SplineFontDB: 3.2
FontName: SteMiNormal
FullName: SteMiNormal
FamilyName: SteMi Normal
Weight: Light
Copyright: Created by Krzysztof (Stenografow) Smirnow, with FontForge 2.0 (https://www.stenografia.pl)
UComments: "PL: Font, kt+APMA-rego zadaniem jest umo+AXwA-liwienie tworzenia tekst+APMA-w przy pomocy stenograficznego pisma SteMi: +AAoA-https://www.stenografia.pl/blog/2013-02-28_kurs-stemi-lekcja-01/+AAoA-EN:+AKAA Font whose task is to enable the creation of texts using the SteMi shorthand script (Polish basically, but)"
FontLog: "v. 2.0 began in 2023+AAoA-v. 1.0 postponed in 2013+AAoA-v. 1.0 began in 2012"
Version: 002.000
ItalicAngle: 0
UnderlinePosition: -203.435
UnderlineWidth: 101.035
Ascent: 2000
Descent: 48
InvalidEm: 0
sfntRevision: 0x00020000
LayerCount: 3
Layer: 0 1 "Warstwa t+AUIA-a" 1
Layer: 1 1 "Plan pierwszy" 1
Layer: 2 0 "Warstwa t+AUIA-a 2" 1
HasVMetrics: 1
XUID: [1021 102 369710040 9179092]
BaseHoriz: 0
StyleMap: 0x0040
FSType: 0
OS2Version: 4
OS2_WeightWidthSlopeOnly: 0
OS2_UseTypoMetrics: 1
CreationTime: 1379607424
ModificationTime: 1718113845
PfmFamily: 17
TTFWeight: 300
TTFWidth: 3
LineGap: 184
VLineGap: 184
Panose: 2 0 5 3 0 0 0 0 0 0
OS2TypoAscent: 1365
OS2TypoAOffset: 0
OS2TypoDescent: -683
OS2TypoDOffset: 0
OS2TypoLinegap: 184
OS2WinAscent: 2428
OS2WinAOffset: 0
OS2WinDescent: 745
OS2WinDOffset: 0
HheadAscent: 2428
HheadAOffset: 0
HheadDescent: -745
HheadDOffset: 0
OS2SubXSize: 1331
OS2SubYSize: 1434
OS2SubXOff: 0
OS2SubYOff: 287
OS2SupXSize: 1331
OS2SupYSize: 1434
OS2SupXOff: 0
OS2SupYOff: 983
OS2StrikeYSize: 102
OS2StrikeYPos: 530
OS2CapHeight: 2343
OS2XHeight: 1038
OS2FamilyClass: 2560
OS2Vendor: 'KsMi'
OS2CodePages: 00000001.00000000
OS2UnicodeRanges: 00000007.02000000.04000000.00000000
MarkAttachClasses: 1
DEI: 91125
TtTable: prep
PUSHW_1
 511
SCANCTRL
PUSHB_1
 1
SCANTYPE
SVTCA[y-axis]
MPPEM
PUSHB_1
 8
LT
IF
PUSHB_2
 1
 1
INSTCTRL
EIF
PUSHB_2
 70
 6
CALL
IF
POP
PUSHB_1
 16
EIF
MPPEM
PUSHB_1
 20
GT
IF
POP
PUSHB_1
 128
EIF
SCVTCI

StartChar: .notdef
Encoding: 1114112 -1 0
Width: 1024
Flags: W
LayerCount: 3
Fore
SplineSet
102 0 m 1,0,-1
 102 910 l 1,1,-1
 922 910 l 1,2,-1
 922 0 l 1,3,-1
 102 0 l 1,0,-1
205 102 m 1,4,-1
 819 102 l 1,5,-1
 819 808 l 1,6,-1
 205 808 l 1,7,-1
 205 102 l 1,4,-1
EndSplineSet
EndChar

StartChar: percent
Encoding: 37 37 9
Width: 1452
VWidth: 1398
GlyphClass: 2
Flags: W
LayerCount: 3
Fore
Refer: 425 57354 N 0.642788 -0.766044 0.766044 0.642788 209 507 2
Refer: 425 57354 N 0.642788 -0.766044 0.766044 0.642788 100 -68 2
Refer: 281 57352 N 0.866025 -0.5 0.5 0.866025 101 -88 2
Refer: 541 57481 N 1 0 0 1 500 26 2
Refer: 541 57481 S 1 0 0 1 40 433 2
Layer: 2
SplineSet
206.165039062 830.123046875 m 4
 206.165039062 891.107421875 227.100585938 942.990234375 268.970703125 985.770507812 c 4
 310.840820312 1027.640625 362.49609375 1048.57617188 423.935546875 1048.57617188 c 4
 452.608398438 1048.57617188 480.59765625 1043.11425781 507.904296875 1032.19238281 c 4
 534.755859375 1020.81445312 558.193359375 1005.11328125 578.21875 985.087890625 c 132
 598.243164062 965.063476562 613.9453125 941.625 625.322265625 914.7734375 c 4
 634.879882812 892.47265625 640.341796875 869.034179688 641.70703125 844.458984375 c 5
 1067.0078125 1366.015625 l 5
 1194.66699219 1366.015625 l 5
 416.426757812 -323.583984375 l 5
 862.890625 266.922851562 l 6
 867.44140625 272.383789062 871.083007812 276.252929688 873.813476562 278.528320312 c 4
 915.68359375 320.853515625 967.111328125 342.015625 1028.09570312 342.015625 c 4
 1057.22265625 342.015625 1084.98535156 336.5546875 1111.38085938 325.631835938 c 4
 1137.32226562 314.708984375 1160.76074219 298.780273438 1181.69628906 277.845703125 c 4
 1202.17578125 257.365234375 1218.33203125 233.471679688 1230.16503906 206.165039062 c 4
 1241.54296875 180.223632812 1247.23242188 152.689453125 1247.23242188 123.5625 c 4
 1247.23242188 63.033203125 1226.06933594 11.60546875 1183.74414062 -30.7197265625 c 132
 1141.41894531 -73.044921875 1089.53613281 -94.2080078125 1028.09570312 -94.2080078125 c 4
 966.201171875 -94.2080078125 914.545898438 -73.2724609375 873.130859375 -31.40234375 c 4
 839.907226562 1.8203125 819.8828125 41.8701171875 813.055664062 88.7470703125 c 5
 369.322265625 -511.317382812 l 5
 237.568359375 -511.317382812 l 5
 1045.84570312 1234.94433594 l 5
 578.901367188 675.83984375 l 5
 536.576171875 633.514648438 484.920898438 612.3515625 423.935546875 612.3515625 c 4
 362.49609375 612.3515625 310.840820312 633.287109375 268.970703125 675.157226562 c 132
 227.100585938 717.02734375 206.165039062 768.682617188 206.165039062 830.123046875 c 4
298.325195312 830.123046875 m 4
 298.325195312 794.168945312 310.385742188 764.131835938 334.506835938 740.010742188 c 4
 358.172851562 716.344726562 387.982421875 704.51171875 423.935546875 704.51171875 c 4
 458.979492188 704.51171875 488.7890625 716.799804688 513.365234375 741.375976562 c 4
 537.94140625 765.041992188 550.229492188 794.624023438 550.229492188 830.123046875 c 132
 550.229492188 865.62109375 537.94140625 895.203125 513.365234375 918.869140625 c 4
 488.7890625 943.4453125 458.979492188 955.733398438 423.935546875 955.733398438 c 4
 389.34765625 955.733398438 359.538085938 943.672851562 334.506835938 919.551757812 c 4
 310.385742188 895.430664062 298.325195312 865.62109375 298.325195312 830.123046875 c 4
903.16796875 123.5625 m 4
 903.16796875 87.609375 915.228515625 57.798828125 939.349609375 34.1337890625 c 4
 962.559570312 10.0126953125 992.142578125 -2.0478515625 1028.09570312 -2.0478515625 c 4
 1063.13964844 -2.0478515625 1092.72167969 10.0126953125 1116.84277344 34.1337890625 c 4
 1141.41894531 58.708984375 1153.70703125 88.51953125 1153.70703125 123.5625 c 132
 1153.70703125 158.606445312 1141.41894531 188.416015625 1116.84277344 212.9921875 c 132
 1092.26660156 237.568359375 1062.68457031 249.856445312 1028.09570312 249.856445312 c 4
 992.142578125 249.856445312 962.559570312 237.795898438 939.349609375 213.674804688 c 4
 915.228515625 190.008789062 903.16796875 159.971679688 903.16796875 123.5625 c 4
EndSplineSet
EndChar

StartChar: ampersand
Encoding: 38 38 10
Width: 576
VWidth: 1398
GlyphClass: 2
Flags: W
LayerCount: 3
Fore
SplineSet
89 227 m 4,0,1
 89 151 89 151 140 100.5 c 132,-1,2
 191 50 191 50 268 50 c 4,3,4
 337 50 337 50 397 100 c 5,5,-1
 181 392 l 5,6,7
 138 358 138 358 113.5 319 c 132,-1,8
 89 280 89 280 89 227 c 4,0,1
219 484 m 5,9,10
 241 492 241 492 260.5 513.5 c 132,-1,11
 280 535 280 535 290 559 c 132,-1,12
 300 583 300 583 300 601 c 6,13,-1
 300 603 l 6,14,15
 300 619 300 619 289.5 633 c 132,-1,16
 279 647 279 647 264 655 c 4,17,18
 246 665 246 665 235 665 c 4,19,20
 222 665 222 665 207 653 c 4,21,22
 179 630 179 630 179 591 c 4,23,24
 179 562 179 562 189.5 537.5 c 132,-1,25
 200 513 200 513 219 484 c 5,9,10
140 449 m 5,26,27
 116 484 116 484 103.5 517 c 132,-1,28
 91 550 91 550 90 590 c 4,29,30
 90 666 90 666 141 710 c 4,31,32
 164 730 164 730 183 739 c 132,-1,33
 202 748 202 748 229 748 c 4,34,35
 243 748 243 748 257 746 c 4,36,37
 293 741 293 741 332 712 c 132,-1,38
 371 683 371 683 379 655 c 4,39,40
 385 632 385 632 385 611 c 4,41,42
 385 558 385 558 352 509 c 132,-1,43
 319 460 319 460 264 422 c 5,44,-1
 457 163 l 5,45,46
 498 215 498 215 494 358 c 6,48,49
 494 358 494 358 494 371 c 5,50,-1
 576 371 l 5,51,-1
 576 351 l 6,52,53
 576 191 576 191 501 103 c 5,54,-1
 550 33 l 5,55,-1
 480 -15 l 5,56,-1
 440 42 l 5,57,58
 358 -28 358 -28 251.5 -27.5 c 132,-1,59
 145 -27 145 -27 72.5 39.5 c 132,-1,60
 0 106 0 106 0 211 c 4,61,62
 0 252 0 252 11 288 c 132,-1,63
 22 324 22 324 42.5 353 c 132,-1,64
 63 382 63 382 86 404.5 c 132,-1,65
 109 427 109 427 140 449 c 5,26,27
EndSplineSet
Refer: 564 57346 S 1 0 0 1 474 -32 2
Refer: 564 57346 S 1 0 0 1 494 330 2
EndChar

StartChar: parenleft
Encoding: 40 40 12
Width: 910
VWidth: 1398
GlyphClass: 2
Flags: W
LayerCount: 3
Fore
SplineSet
383 532 m 1,9,10
 416 120 416 120 490 -132 c 0,11,12
 551 -341 551 -341 668 -555 c 1,13,-1
 594 -597 l 1,14,15
 456 -346 456 -346 400 -145 c 0,16,17
 303 204 303 204 296 487 c 1,19,-1
 296 569 l 1,21,22
 291 894 291 894 360 1186 c 0,23,24
 437 1510 437 1510 612 1894 c 1,27,-1
 686 1853 l 1,0,1
 533 1520 533 1520 448 1155 c 0,2,3
 381 871 381 871 383 532 c 1,9,10
EndSplineSet
Refer: 564 57346 N 1 0 0 1 608 1833 2
Refer: 564 57346 N 1 0 0 1 590 -616 2
Refer: 534 57356 N 0 1 -1 0 515 486 2
EndChar

StartChar: comma
Encoding: 44 44 16
Width: 549
VWidth: 1398
GlyphClass: 2
Flags: W
LayerCount: 3
Fore
SplineSet
28 -273 m 1,0,1
 113 -249 113 -249 159 -203 c 1,2,3
 220 -142 220 -142 242 -62 c 1,4,5
 282 -73 282 -73 323 -85 c 1,8,9
 297 -182 297 -182 218 -261 c 1,10,11
 153 -326 153 -326 50 -353 c 1,12,13
 38 -309 38 -309 28 -273 c 1,0,1
30 -323 m 25,0,-1
 50 -304 l 25,1,-1
 50 -323 l 25,2,-1
 30 -304 l 1049,3,-1
11 -342 m 128,-1,5
 -2 -329 -2 -329 -2 -314 c 0,6,7
 -2 -298 -2 -298 11 -284 c 0,7,8
 25 -270 25 -270 41 -270 c 0,9,10
 55 -270 55 -270 68.5 -284 c 128,-1,11
 82 -298 82 -298 83 -312 c 0,12,13
 83 -328 83 -328 69 -342 c 0,14,15
 56 -355 56 -355 39 -355 c 0,16,17
 24 -355 24 -355 11 -342 c 128,-1,5
272 -83 m 25,0,-1
 291 -64 l 25,1,-1
 291 -83 l 25,2,-1
 272 -64 l 1049,3,-1
252.5 -102 m 128,-1,5
 240 -89 240 -89 240 -74 c 0,6,7
 240 -58 240 -58 253 -44 c 0,7,8
 267 -30 267 -30 283 -30 c 0,9,10
 297 -30 297 -30 310.5 -44 c 128,-1,11
 324 -58 324 -58 325 -72 c 0,12,13
 325 -88 325 -88 311 -102 c 0,14,15
 298 -115 298 -115 281 -115 c 0,16,17
 265 -115 265 -115 252.5 -102 c 128,-1,5
EndSplineSet
Refer: 283 57358 N 0 -1 1 0 163 -32 2
Layer: 2
SplineSet
283.989257812 170.666992188 m 1
 444.416015625 169.984375 l 1
 443.733398438 85.3330078125 l 1026
EndSplineSet
EndChar

StartChar: period
Encoding: 46 46 18
Width: 1049
VWidth: 0
GlyphClass: 2
Flags: W
LayerCount: 3
Fore
Refer: 533 57355 S -0.707107 -0.707107 0.707107 -0.707107 45 15 2
Refer: 533 57355 S 0.707107 -0.707107 0.707107 0.707107 -14 -323 2
Layer: 2
SplineSet
926.365234375 133.802734375 m 5
 1050.61035156 134.485351562 l 5
 935.922851562 4.095703125 l 5
 1043.78417969 -126.975585938 l 5
 919.5390625 -128.341796875 l 5
 885.405273438 -53.248046875 l 5
 836.935546875 -131.072265625 l 5
 727.026367188 -128.341796875 l 5
 836.935546875 -0.6826171875 l 5
 727.708984375 134.485351562 l 5
 848.541015625 134.485351562 l 5
 889.500976562 63.48828125 l 5
 926.365234375 133.802734375 l 5
EndSplineSet
EndChar

StartChar: zero
Encoding: 48 48 20
Width: 841
VWidth: 1398
GlyphClass: 2
Flags: W
LayerCount: 3
Fore
SplineSet
421 1038 m 0,0,1
 584 1038 584 1038 668 904 c 0,2,3
 751 770 751 770 751 509 c 0,4,5
 751 249 751 249 668 114 c 0,6,7
 584 -20 584 -20 421 -20 c 0,8,9
 257 -20 257 -20 174 114 c 0,10,11
 91 248 91 248 91 509 c 0,12,13
 91 770 91 770 174 904 c 0,14,15
 257 1038 257 1038 421 1038 c 0,0,1
421 928 m 0,16,17
 325 928 325 928 277 825 c 0,18,19
 229 723 229 723 229 509 c 0,20,21
 229 322 229 322 266 219 c 1,22,-1
 532 877 l 1,23,24
 489 928 489 928 421 928 c 0,16,17
322 128 m 1,25,26
 364 90 364 90 421 89 c 0,27,28
 517 89 517 89 565 193 c 0,29,30
 612 296 612 296 612 509 c 0,31,32
 612 666 612 666 587 762 c 1,33,-1
 322 128 l 1,25,26
EndSplineSet
EndChar

StartChar: one
Encoding: 49 49 21
Width: 841
VWidth: 1398
GlyphClass: 2
Flags: W
LayerCount: 3
Fore
SplineSet
184 116 m 1,0,-1
 399 116 l 1,1,-1
 399 895 l 1,2,-1
 168 843 l 1,3,-1
 168 969 l 1,4,-1
 397 1019 l 1,5,-1
 535 1019 l 1,6,-1
 535 116 l 1,7,-1
 747 116 l 1,8,-1
 747 0 l 1,9,-1
 184 0 l 1,10,-1
 184 116 l 1,0,-1
EndSplineSet
EndChar

StartChar: two
Encoding: 50 50 22
Width: 841
VWidth: 1398
GlyphClass: 2
Flags: W
LayerCount: 3
Fore
SplineSet
255 116 m 1,0,-1
 723 116 l 1,1,-1
 723 0 l 1,2,-1
 104 0 l 1,3,-1
 104 116 l 1,4,5
 232 250 232 250 327 354 c 0,6,7
 431 467 431 467 459 499 c 0,8,9
 527 582 527 582 551 634 c 0,10,11
 575 687 575 687 575 739 c 0,12,13
 575 825 575 825 525 873 c 0,14,15
 474 921 474 921 387 922 c 0,16,17
 325 922 325 922 256.5 899.5 c 128,-1,18
 188 877 188 877 112 831 c 1,19,-1
 112 970 l 1,20,21
 180 1003 180 1003 251 1021 c 0,22,23
 317 1038 317 1038 384 1038 c 0,24,25
 534 1038 534 1038 625 958 c 0,26,27
 716 878 716 878 716 750 c 0,28,29
 716 685 716 685 686 618 c 0,30,31
 655 551 655 551 587 474 c 0,32,33
 567 451 567 451 477 351 c 0,34,35
 426 296 426 296 255 116 c 1,0,-1
EndSplineSet
EndChar

StartChar: three
Encoding: 51 51 23
Width: 841
VWidth: 1398
GlyphClass: 2
Flags: W
LayerCount: 3
Fore
SplineSet
530 545 m 1,0,1
 630 518 630 518 683 451 c 0,2,3
 736 383 736 383 737 281 c 0,4,5
 737 140 737 140 642 60 c 0,6,7
 548 -20 548 -20 380 -20 c 0,8,9
 308 -20 308 -20 237 -7 c 0,10,11
 162 7 162 7 94 31 c 1,12,-1
 94 168 l 1,13,14
 166 130 166 130 231 114 c 0,15,16
 300 96 300 96 365 96 c 0,17,18
 479 96 479 96 539 147 c 0,19,20
 600 198 600 198 600 295 c 0,21,22
 600 384 600 384 539 436 c 0,23,24
 480 489 480 489 375 488 c 2,25,-1
 270 488 l 1,26,-1
 270 601 l 1,27,-1
 375 601 l 2,28,29
 471 601 471 601 523 643 c 0,30,31
 576 685 576 685 576 759 c 0,32,33
 576 838 576 838 526 880 c 0,34,35
 478 922 478 922 386 922 c 0,36,37
 327 922 327 922 260.5 908 c 128,-1,38
 194 894 194 894 124 867 c 1,39,-1
 124 994 l 1,40,41
 207 1016 207 1016 272 1027 c 0,42,43
 335 1038 335 1038 386 1038 c 0,44,45
 535 1038 535 1038 624 963 c 0,46,47
 713 888 713 888 713 765 c 0,48,49
 713 682 713 682 666 625 c 0,50,51
 620 569 620 569 530 545 c 1,0,1
EndSplineSet
EndChar

StartChar: four
Encoding: 52 52 24
Width: 841
VWidth: 1398
GlyphClass: 2
Flags: W
LayerCount: 3
Fore
SplineSet
502 894 m 1,0,-1
 180 355 l 1,1,-1
 502 355 l 1,2,-1
 502 894 l 1,0,-1
479 1019 m 1,3,-1
 639 1019 l 1,4,-1
 639 355 l 1,5,-1
 775 355 l 1,6,-1
 775 243 l 1,7,-1
 639 243 l 1,8,-1
 639 0 l 1,9,-1
 502 0 l 1,10,-1
 502 243 l 1,11,-1
 70 243 l 1,12,-1
 70 373 l 1,13,-1
 479 1019 l 1,3,-1
EndSplineSet
EndChar

StartChar: five
Encoding: 53 53 25
Width: 841
VWidth: 1398
GlyphClass: 2
Flags: W
LayerCount: 3
Fore
SplineSet
141 1019 m 1,0,-1
 657 1019 l 1,1,-1
 657 903 l 1,2,-1
 267 903 l 1,3,-1
 267 653 l 1,4,5
 294 663 294 663 326 668 c 0,6,7
 357 673 357 673 386 674 c 0,8,9
 544 674 544 674 637 580 c 0,10,11
 730 487 730 487 730 327 c 0,12,13
 730 166 730 166 633 73 c 128,-1,14
 536 -20 536 -20 367 -20 c 0,15,16
 284 -20 284 -20 218 -9 c 0,17,18
 150 3 150 3 98 24 c 1,19,-1
 98 164 l 1,20,21
 161 130 161 130 224 113 c 0,22,23
 286 96 286 96 354 96 c 0,24,25
 468 96 468 96 530 156 c 0,26,27
 591 217 591 217 591 327 c 128,-1,28
 591 437 591 437 527 497 c 0,29,30
 463 558 463 558 350 558 c 0,31,32
 293 558 293 558 242 545 c 0,33,34
 189 533 189 533 141 507 c 1,35,-1
 141 1019 l 1,0,-1
EndSplineSet
EndChar

StartChar: six
Encoding: 54 54 26
Width: 841
VWidth: 1398
GlyphClass: 2
Flags: W
LayerCount: 3
Fore
SplineSet
677 997 m 1,0,-1
 677 870 l 1,1,2
 637 894 637 894 585 908 c 0,3,4
 536 922 536 922 484 922 c 0,5,6
 353 922 353 922 285 823 c 0,7,8
 217 725 217 725 218 532 c 1,9,10
 251 600 251 600 309 638 c 0,11,12
 368 674 368 674 442 674 c 0,13,14
 590 674 590 674 670 583 c 0,15,16
 751 494 751 494 751 327 c 0,17,18
 751 162 751 162 668 71 c 0,19,20
 585 -20 585 -20 433 -20 c 0,21,22
 256 -20 256 -20 173 108 c 0,23,24
 90 234 90 234 91 509 c 0,25,26
 91 766 91 766 190 902 c 0,27,28
 289 1038 289 1038 478 1038 c 0,29,30
 531 1038 531 1038 579 1027 c 0,31,32
 629 1017 629 1017 677 997 c 1,0,-1
431 566 m 0,33,34
 342 566 342 566 292 502 c 0,35,36
 241 438 241 438 241.5 327 c 128,-1,37
 242 216 242 216 292 152 c 0,38,39
 342 89 342 89 431 88 c 0,40,41
 523 88 523 88 569 148 c 0,42,43
 615 209 615 209 615 327 c 128,-1,44
 615 445 615 445 569 506 c 0,45,46
 523 566 523 566 431 566 c 0,33,34
EndSplineSet
EndChar

StartChar: seven
Encoding: 55 55 27
Width: 841
VWidth: 1398
GlyphClass: 2
Flags: W
LayerCount: 3
Fore
SplineSet
95 1019 m 1,0,-1
 737 1019 l 1,1,-1
 737 961 l 1,2,-1
 372 0 l 1,3,-1
 228 0 l 1,4,-1
 583 903 l 1,5,-1
 95 903 l 1,6,-1
 95 1019 l 1,0,-1
EndSplineSet
EndChar

StartChar: eight
Encoding: 56 56 28
Width: 841
VWidth: 1398
GlyphClass: 2
Flags: W
LayerCount: 3
Fore
SplineSet
421 484 m 0,0,1
 328 484 328 484 278 433 c 0,2,3
 228 381 228 381 228 287 c 0,4,5
 228 193 228 193 279 141 c 0,6,7
 330 88 330 88 421 88 c 0,8,9
 513 88 513 88 564 140 c 0,10,11
 614 192 614 192 614 287 c 0,12,13
 614 380 614 380 563 432 c 0,14,15
 513 484 513 484 421 484 c 0,0,1
300 541 m 1,16,17
 213 564 213 564 162 625 c 0,18,19
 113 686 113 686 113 773 c 0,20,21
 113 895 113 895 196 967 c 0,22,23
 279 1038 279 1038 421 1038 c 0,24,25
 563 1038 563 1038 646 967 c 0,26,27
 729 895 729 895 728 773 c 0,28,29
 728 686 728 686 679 625 c 0,30,31
 630 564 630 564 541 541 c 1,32,33
 643 518 643 518 698 451 c 0,34,35
 753 382 753 382 752 274 c 0,36,37
 752 136 752 136 664 58 c 128,-1,38
 576 -20 576 -20 420.5 -20 c 128,-1,39
 265 -20 265 -20 177 58 c 0,40,41
 90 135 90 135 89 272 c 0,42,43
 89 382 89 382 143 450 c 128,-1,44
 197 518 197 518 300 541 c 1,16,17
251 760 m 0,45,46
 251 678 251 678 294 636 c 0,47,48
 338 593 338 593 421 593 c 0,49,50
 504 593 504 593 547 636 c 256,51,52
 591 679 591 679 591 760 c 0,53,54
 591 843 591 843 547 887 c 0,55,56
 504 931 504 931 421 931 c 0,57,58
 340 931 340 931 294 887 c 0,59,60
 251 843 251 843 251 760 c 0,45,46
EndSplineSet
EndChar

StartChar: nine
Encoding: 57 57 29
Width: 841
VWidth: 1398
GlyphClass: 2
Flags: W
LayerCount: 3
Fore
SplineSet
407 452 m 0,0,1
 494 452 494 452 545 515 c 0,2,3
 596 579 596 579 595.5 690.5 c 128,-1,4
 595 802 595 802 545 866 c 0,5,6
 494 929 494 929 407 930 c 0,7,8
 316 930 316 930 269 870 c 0,9,10
 223 808 223 808 223 691 c 0,11,12
 223 572 223 572 269 512 c 0,13,14
 314 452 314 452 407 452 c 0,0,1
161 21 m 1,15,-1
 161 148 l 1,16,17
 201 124 201 124 253 110 c 0,18,19
 302 96 302 96 354 96 c 0,20,21
 486 96 486 96 552 195 c 0,22,23
 620 293 620 293 619 485 c 1,24,25
 587 416 587 416 529 381 c 0,26,27
 471 344 471 344 396 344 c 0,28,29
 248 344 248 344 167.5 435 c 128,-1,30
 87 526 87 526 87 692 c 0,31,32
 87 857 87 857 169 948 c 0,33,34
 252 1038 252 1038 404 1038 c 0,35,36
 581 1038 581 1038 664 910 c 128,-1,37
 747 782 747 782 747 509 c 0,38,39
 747 252 747 252 647 116 c 0,40,41
 548 -20 548 -20 359 -20 c 0,42,43
 307 -20 307 -20 259 -9 c 0,44,45
 209 1 209 1 161 21 c 1,15,-1
EndSplineSet
EndChar

StartChar: equal
Encoding: 61 61 33
Width: 841
VWidth: 1398
GlyphClass: 2
Flags: W
LayerCount: 3
Fore
SplineSet
375 750 m 1,0,-1
 490 750 l 1,1,-1
 490 635 l 1,2,-1
 782 635 l 1,3,-1
 782 519 l 1,4,-1
 60 519 l 1,5,-1
 60 635 l 1,6,-1
 375 635 l 1,7,-1
 375 750 l 1,0,-1
60 358 m 1,8,-1
 782 358 l 1,9,-1
 782 240 l 1,10,-1
 482 240 l 1,11,-1
 482 125 l 1,12,-1
 367 125 l 1,13,-1
 367 240 l 1,14,-1
 60 240 l 1,15,-1
 60 358 l 1,8,-1
EndSplineSet
EndChar

StartChar: question
Encoding: 63 63 35
Width: 546
VWidth: 0
GlyphClass: 2
Flags: W
LayerCount: 3
Fore
SplineSet
19 969 m 1,0,1
 179 1062 179 1062 273 1046 c 0,2,3
 476 1011 476 1011 505 816 c 0,4,5
 527 668 527 668 354 524 c 0,6,7
 307 485 307 485 291 427 c 0,8,9
 287 414 287 414 286 268 c 1,10,-1
 205 268 l 1,11,-1
 205 425 l 0,12,13
 205 489 205 489 303 582 c 1,14,15
 434 692 434 692 418 807 c 0,16,17
 398 945 398 945 267 963 c 0,18,19
 187 974 187 974 64 896 c 1,20,-1
 19 969 l 1,0,1
EndSplineSet
Refer: 564 57346 N 1 0 0 1 0 891 2
Refer: 564 57346 N 1 0 0 1 204 227 2
Refer: 18 46 N 1 0 0 1 69 -2 2
EndChar

StartChar: at
Encoding: 64 64 36
Width: 1073
VWidth: 1398
GlyphClass: 2
Flags: W
LayerCount: 3
Fore
SplineSet
790 358 m 4,0,1
 790 434 790 434 753 479 c 4,2,3
 716 525 716 525 653 524 c 4,4,5
 590 524 590 524 553 479 c 4,6,7
 515 435 515 435 515 358.5 c 132,-1,8
 515 282 515 282 553 237 c 4,9,10
 590 192 590 192 653 192 c 4,11,12
 715 192 715 192 753 237 c 4,13,14
 790 282 790 282 790 358 c 4,0,1
871 451 m 4,18,19
 868 352 868 352 860 306 c 5,20,21
 845 246 845 246 812 198 c 4,22,23
 798 178 798 178 774 158.5 c 132,-1,24
 750 139 750 139 729 127 c 4,25,26
 691 107 691 107 642 107 c 4,27,28
 548 107 548 107 487 178 c 4,29,30
 425 248 425 248 425 358 c 132,-1,31
 425 468 425 468 487 539 c 4,32,33
 548 609 548 609 642 609 c 4,34,35
 695 609 695 609 738 584 c 4,36,37
 787 554 787 554 797 539 c 5,38,-1
 799 645 799 645 737 716 c 4,41,42
 690 771 690 771 601 772 c 4,43,44
 457 772 457 772 372 660 c 4,45,46
 287 548 287 548 287 356.5 c 132,-1,47
 287 165 287 165 384 50.5 c 132,-1,48
 481 -64 481 -64 640 -62 c 4,49,50
 673 -62 673 -62 703 -57 c 4,51,52
 736 -51 736 -51 768 -39 c 5,53,-1
 796 -117 l 5,54,55
 760 -131 760 -131 723 -139 c 4,56,57
 688 -146 688 -146 653 -146 c 4,58,59
 445 -146 445 -146 322 -10 c 4,60,61
 200 126 200 126 200 357 c 4,62,63
 200 584 200 584 310 720 c 4,64,65
 419 855 419 855 604 855 c 4,66,67
 727 855 727 855 799 777 c 4,68,69
 872 699 872 699 872 569 c 4,70,-1
 872 492 872 492 871 451 c 4,18,19
EndSplineSet
Refer: 564 57346 S 1 0 0 1 741 -119 2
EndChar

StartChar: A
Encoding: 65 65 37
Width: 449
VWidth: 0
GlyphClass: 2
Flags: W
LayerCount: 3
Fore
SplineSet
189 1656 m 5,0,-1
 260 1656 l 5,1,-1
 426 1427 l 5,2,-1
 355 1386 l 5,3,-1
 225 1571 l 5,4,-1
 85 1379 l 5,5,-1
 14 1420 l 5,6,-1
 189 1656 l 5,0,-1
225 1647 m 25,0,-1
 225 1619 l 25,1,-1
 211 1633 l 25,2,-1
 238 1633 l 1049,3,-1
224.5 1674 m 128,-1,5
 244 1674 244 1674 255 1663 c 4,6,7
 266 1651 266 1651 266 1633 c 0,8,9
 266 1612 266 1612 255.5 1602 c 128,-1,11
 245 1592 245 1592 224.5 1592 c 128,-1,12
 204 1592 204 1592 194 1602 c 128,-1,14
 184 1612 184 1612 184 1633 c 0,15,16
 184 1649 184 1649 195 1662 c 0,17,18
 205 1674 205 1674 224.5 1674 c 128,-1,5
384 1418 m 25,0,-1
 397 1394 l 25,1,-1
 379 1399 l 25,2,-1
 402 1413 l 1049,3,-1
370 1442 m 128,-1,5
 387 1452 387 1452 401 1447 c 4,6,7
 416 1442 416 1442 426 1427 c 0,8,9
 437 1409 437 1409 433 1395 c 128,-1,11
 429 1381 429 1381 411 1370.5 c 128,-1,12
 393 1360 393 1360 379.5 1363.5 c 128,-1,14
 366 1367 366 1367 355 1386 c 0,15,16
 347 1400 347 1400 350 1417 c 0,17,18
 353 1432 353 1432 370 1442 c 128,-1,5
56 1411 m 25,0,-1
 42 1388 l 25,1,-1
 37 1406 l 25,2,-1
 61 1393 l 1049,3,-1
70 1434.5 m 128,-1,5
 87 1425 87 1425 90 1410 c 4,6,7
 94 1394 94 1394 85 1379 c 0,8,9
 74 1361 74 1361 60 1357.5 c 128,-1,11
 46 1354 46 1354 28.5 1364 c 128,-1,12
 11 1374 11 1374 7 1388 c 128,-1,14
 3 1402 3 1402 14 1420 c 0,15,16
 22 1434 22 1434 38 1439 c 0,17,18
 53 1444 53 1444 70 1434.5 c 128,-1,5
392 424 m 5,0,-1
 159 21 l 1,1,2
 124 41 124 41 89 62 c 1,5,-1
 321 464 l 5,6,7
 357 444 357 444 392 424 c 5,0,-1
89 62 m 1025
131 54 m 25,0,-1
 117 30 l 25,1,-1
 112 49 l 25,2,-1
 136 35 l 1049,3,-1
145 77.5 m 128,-1,5
 162 68 162 68 165 53 c 4,6,7
 169 37 169 37 159 21 c 0,8,9
 148 3 148 3 134.5 -0.5 c 128,-1,11
 121 -4 121 -4 103.5 6.5 c 128,-1,12
 86 17 86 17 82 30.5 c 128,-1,14
 78 44 78 44 89 62 c 0,15,16
 97 76 97 76 113 82 c 0,17,18
 128 87 128 87 145 77.5 c 128,-1,5
363 456 m 25,0,-1
 349 432 l 25,1,-1
 344 451 l 25,2,-1
 368 437 l 1049,3,-1
377 479.5 m 128,-1,5
 394 470 394 470 397 455 c 4,6,7
 401 439 401 439 392 424 c 0,8,9
 381 406 381 406 367 402 c 128,-1,11
 353 398 353 398 335.5 408.5 c 128,-1,12
 318 419 318 419 314 432.5 c 128,-1,14
 310 446 310 446 321 464 c 0,15,16
 329 478 329 478 345 484 c 0,17,18
 360 489 360 489 377 479.5 c 128,-1,5
EndSplineSet
EndChar

StartChar: O
Encoding: 79 79 51
Width: 443
VWidth: 0
GlyphClass: 2
Flags: W
LayerCount: 3
Fore
SplineSet
189 1656 m 5,0,-1
 260 1656 l 5,1,-1
 426 1427 l 5,2,-1
 355 1386 l 5,3,-1
 225 1571 l 5,4,-1
 85 1379 l 5,5,-1
 14 1420 l 5,6,-1
 189 1656 l 5,0,-1
225 1647 m 25,0,-1
 225 1619 l 25,1,-1
 211 1633 l 25,2,-1
 238 1633 l 1049,3,-1
224.5 1674 m 128,-1,5
 244 1674 244 1674 255 1663 c 4,6,7
 266 1651 266 1651 266 1633 c 0,8,9
 266 1612 266 1612 255.5 1602 c 128,-1,11
 245 1592 245 1592 224.5 1592 c 128,-1,12
 204 1592 204 1592 194 1602 c 128,-1,14
 184 1612 184 1612 184 1633 c 0,15,16
 184 1649 184 1649 195 1662 c 0,17,18
 205 1674 205 1674 224.5 1674 c 128,-1,5
384 1418 m 25,0,-1
 397 1394 l 25,1,-1
 379 1399 l 25,2,-1
 402 1413 l 1049,3,-1
370 1442 m 128,-1,5
 387 1452 387 1452 401 1447 c 4,6,7
 416 1442 416 1442 426 1427 c 0,8,9
 437 1409 437 1409 433 1395 c 128,-1,11
 429 1381 429 1381 411 1370.5 c 128,-1,12
 393 1360 393 1360 379.5 1363.5 c 128,-1,14
 366 1367 366 1367 355 1386 c 0,15,16
 347 1400 347 1400 350 1417 c 0,17,18
 353 1432 353 1432 370 1442 c 128,-1,5
56 1411 m 25,0,-1
 42 1388 l 25,1,-1
 37 1406 l 25,2,-1
 61 1393 l 1049,3,-1
70 1434.5 m 128,-1,5
 87 1425 87 1425 90 1410 c 4,6,7
 94 1394 94 1394 85 1379 c 0,8,9
 74 1361 74 1361 60 1357.5 c 128,-1,11
 46 1354 46 1354 28.5 1364 c 128,-1,12
 11 1374 11 1374 7 1388 c 128,-1,14
 3 1402 3 1402 14 1420 c 0,15,16
 22 1434 22 1434 38 1439 c 0,17,18
 53 1444 53 1444 70 1434.5 c 128,-1,5
60 110 m 1,0,1
 161 169 161 169 225 280 c 1,2,3
 306 419 306 419 306 534 c 1,4,5
 306 534 306 534 391 535 c 1,8,9
 390 402 390 402 295 239 c 1,10,11
 219 106 219 106 102 38 c 1,12,13
 81 74 81 74 60 110 c 1,0,1
341 523 m 25,0,-1
 355 546 l 25,1,-1
 360 528 l 25,2,-1
 336 541 l 1049,3,-1
327 499 m 128,-1,5
 311 508 311 508 307 523 c 0,6,7
 303 539 303 539 312 555 c 0,7,8
 322 573 322 573 338 576 c 0,9,10
 352 579 352 579 368.5 570 c 128,-1,11
 385 561 385 561 389 547 c 0,12,13
 394 532 394 532 383 514 c 0,14,15
 374 499 374 499 358 494 c 0,16,17
 343 490 343 490 327 499 c 128,-1,5
75 62 m 25,0,-1
 88 85 l 25,1,-1
 93 67 l 25,2,-1
 70 80 l 1049,3,-1
60.5 38 m 128,-1,5
 45 47 45 47 41 62 c 0,6,7
 37 78 37 78 46 94 c 0,7,8
 56 112 56 112 72 115 c 0,9,10
 86 118 86 118 102.5 108.5 c 128,-1,11
 119 99 119 99 123 86 c 0,12,13
 128 71 128 71 117 53 c 0,14,15
 108 38 108 38 91 33 c 0,16,17
 76 29 76 29 60.5 38 c 128,-1,5
EndSplineSet
EndChar

StartChar: bracketleft
Encoding: 91 91 63
Width: 330
VWidth: 1398
GlyphClass: 2
Flags: W
LayerCount: 3
Fore
SplineSet
0 2219 m 5,0,-1
 290 2219 l 5,1,-1
 290 2137 l 5,2,-1
 82 2137 l 5,3,-1
 82 -601 l 5,4,-1
 289 -601 l 5,5,-1
 289 -683 l 5,6,-1
 0 -683 l 5,7,-1
 0 2219 l 5,0,-1
EndSplineSet
Refer: 564 57346 S 1 0 0 1 249 2137 2
Refer: 564 57346 S 1 0 0 1 248 -683 2
EndChar

StartChar: backslash
Encoding: 92 92 64
Width: 1535
VWidth: 1398
GlyphClass: 2
Flags: W
LayerCount: 3
Fore
SplineSet
78 1893 m 1,0,-1
 1528 -620 l 1,1,-1
 1457 -661 l 1,2,-1
 7 1852 l 1,3,-1
 78 1893 l 1,0,-1
EndSplineSet
Refer: 564 57346 N 0.866025 0.5 -0.5 0.866025 27 1816 2
Refer: 564 57346 N 0.866025 0.5 -0.5 0.866025 1478 -697 2
EndChar

StartChar: underscore
Encoding: 95 95 67
Width: 923
VWidth: 1398
GlyphClass: 2
Flags: W
LayerCount: 3
Fore
SplineSet
883 82 m 1,0,-1
 883 0 l 1,1,-1
 41 0 l 1,2,-1
 41 82 l 1,3,-1
 883 82 l 1,0,-1
EndSplineSet
Refer: 564 57346 N 1 0 0 1 0 0 2
Refer: 564 57346 N 1 0 0 1 842 0 2
EndChar

StartChar: grave
Encoding: 96 96 68
Width: 841
VWidth: 1398
GlyphClass: 2
Flags: W
LayerCount: 3
Fore
SplineSet
68 1434 m 1,0,-1
 386 1154 l 1,1,-1
 326 1094 l 5,2,-1
 14 1367 l 1,3,-1
 68 1434 l 1,0,-1
EndSplineSet
Refer: 564 57346 N 1 0 0 1 315 1083 2
Refer: 564 57346 N 1 0 0 1 0 1360 2
EndChar

StartChar: a
Encoding: 97 97 69
Width: 368
VWidth: 0
GlyphClass: 2
Flags: W
LayerCount: 3
Fore
SplineSet
310 424 m 5,0,-1
 78 22 l 1,1,2
 43 42 43 42 7 63 c 1,5,-1
 239 465 l 5,6,7
 275 444 275 444 310 424 c 5,0,-1
7 63 m 1025
50 54 m 25,0,-1
 36 31 l 25,1,-1
 31 49 l 25,2,-1
 55 36 l 1049,3,-1
63.5 78 m 128,-1,5
 80 68 80 68 84 54 c 4,6,7
 88 38 88 38 78 22 c 0,8,9
 67 4 67 4 53.5 0.5 c 128,-1,11
 40 -3 40 -3 22.5 7 c 128,-1,12
 5 17 5 17 1 31 c 128,-1,14
 -3 45 -3 45 7 63 c 0,15,16
 15 77 15 77 32 83 c 0,17,18
 47 88 47 88 63.5 78 c 128,-1,5
282 456 m 25,0,-1
 268 433 l 25,1,-1
 263 451 l 25,2,-1
 287 438 l 1049,3,-1
295.5 480 m 128,-1,5
 312 470 312 470 316 456 c 4,6,7
 320 440 320 440 310 424 c 0,8,9
 299 406 299 406 285.5 402.5 c 128,-1,11
 272 399 272 399 254.5 409 c 128,-1,12
 237 419 237 419 233 433 c 128,-1,14
 229 447 229 447 239 465 c 0,15,16
 247 479 247 479 264 485 c 0,17,18
 279 490 279 490 295.5 480 c 128,-1,5
EndSplineSet
EndChar

StartChar: b
Encoding: 98 98 70
Width: 241
VWidth: 0
GlyphClass: 2
Flags: W
LayerCount: 3
Fore
SplineSet
82 682 m 1,0,1
 114 715 114 715 146 748 c 0,2,3
 227 829 227 829 225 869 c 0,0,0
 221 945 221 945 160 949 c 0,4,5
 82 954 82 954 82 834 c 0,6,7
 82 755 82 755 82 682 c 1,0,1
81 571 m 1,10,11
 81 571 81 571 0 584 c 5,14,-1
 0 836 l 2,15,16
 0 1032 0 1032 158 1031 c 0,17,18
 230 1030 230 1030 272 970 c 0,0,0
 342 870 342 870 270 763 c 0,0,0
 255 740 255 740 210 696 c 0,19,20
 164 649 164 649 81 571 c 1,10,11
41 598 m 25,0,-1
 41 571 l 25,1,-1
 27 584 l 25,2,-1
 55 584 l 1049,3,-1
41 625 m 128,-1,5
 59 625 59 625 70 614 c 0,6,7
 82 602 82 602 82 584 c 0,7,8
 82 564 82 564 70 553 c 0,9,10
 60 543 60 543 41 543 c 128,-1,11
 22 543 22 543 12 553 c 0,12,13
 0 564 0 564 0 584 c 0,14,15
 0 602 0 602 12 614 c 0,16,17
 23 625 23 625 41 625 c 128,-1,5
41 601 m 25,0,-1
 41 574 l 25,1,-1
 27 588 l 25,2,-1
 55 588 l 1049,3,-1
41 629 m 128,-1,5
 59 629 59 629 70 618 c 0,6,7
 82 606 82 606 82 588 c 0,7,8
 82 568 82 568 70 556 c 0,9,10
 60 546 60 546 41 546.5 c 128,-1,11
 22 547 22 547 12 556 c 0,12,13
 0 567 0 567 0 588 c 0,14,15
 0 606 0 606 12 618 c 0,16,17
 23 629 23 629 41 629 c 128,-1,5
EndSplineSet
Refer: 281 57352 N 1 0 0 1 0 0 2
EndChar

StartChar: c
Encoding: 99 99 71
Width: 64
VWidth: 1398
GlyphClass: 2
Flags: W
LayerCount: 3
Fore
SplineSet
177 -352 m 0,0,1
 221 -352 221 -352 253.5 -336.5 c 128,-1,2
 286 -321 286 -321 303 -294.5 c 128,-1,3
 320 -268 320 -268 327.5 -239 c 128,-1,4
 335 -210 335 -210 335 -177 c 0,5,6
 335 -139 335 -139 327 -108 c 128,-1,7
 319 -77 319 -77 302 -50 c 128,-1,8
 285 -23 285 -23 253 -7.5 c 128,-1,9
 221 8 221 8 177 8 c 2,10,-1
 176 8 l 2,11,12
 136 8 136 8 105 -9.5 c 128,-1,13
 74 -27 74 -27 56 -54 c 128,-1,14
 38 -81 38 -81 29 -112 c 128,-1,15
 20 -143 20 -143 20 -174 c 0,16,17
 20 -248 20 -248 59 -300 c 128,-1,18
 98 -352 98 -352 177 -352 c 0,0,1
174 115 m 128,-1,20
 227 115 227 115 268.5 96 c 128,-1,21
 310 77 310 77 350 41 c 0,22,23
 390 4 390 4 414 -51.5 c 128,-1,24
 438 -107 438 -107 438 -174 c 128,-1,25
 438 -241 438 -241 411.5 -301 c 128,-1,26
 385 -361 385 -361 350 -389 c 0,27,28
 304 -425 304 -425 265 -444 c 128,-1,29
 226 -463 226 -463 174 -463 c 0,30,31
 121 -463 121 -463 81.5 -444 c 128,-1,32
 42 -425 42 -425 -1 -389 c 0,33,34
 -39 -358 -39 -358 -63 -300 c 128,-1,35
 -87 -242 -87 -242 -87 -174 c 0,36,37
 -87 -37 -87 -37 -1 41 c 0,38,39
 39 76 39 76 80 95.5 c 128,-1,19
 121 115 121 115 174 115 c 128,-1,20
EndSplineSet
EndChar

StartChar: d
Encoding: 100 100 72
Width: 643
VWidth: 0
GlyphClass: 2
Flags: W
LayerCount: 3
Fore
SplineSet
-525 -300 m 5,0,-1
 -566 -371 l 5,1,2
 -751 -264 -751 -264 -751 -18 c 5,3,-1
 -669 -18 l 5,4,5
 -669 -215 -669 -215 -525 -300 c 5,0,-1
-534 -343 m 25,0,-1
 -558 -329 l 25,1,-1
 -539 -324 l 25,2,-1
 -553 -348 l 1049,3,-1
-510 -356.5 m 128,-1,5
 -519 -372 -519 -372 -534 -376 c 0,6,7
 -550 -380 -550 -380 -566 -371 c 0,7,8
 -584 -361 -584 -361 -588 -346 c 0,9,10
 -591 -332 -591 -332 -581.5 -315.5 c 128,-1,11
 -572 -299 -572 -299 -558 -295 c 0,12,13
 -543 -290 -543 -290 -525 -300 c 0,14,15
 -510 -309 -510 -309 -505 -326 c 0,16,17
 -501 -341 -501 -341 -510 -356.5 c 128,-1,5
-710 -31 m 25,0,-1
 -710 -4 l 25,1,-1
 -696 -18 l 25,2,-1
 -724 -18 l 1049,3,-1
-710 -59 m 128,-1,5
 -728 -59 -728 -59 -739 -48 c 0,6,7
 -751 -36 -751 -36 -751 -18 c 0,7,8
 -751 2 -751 2 -739 14 c 0,9,10
 -729 24 -729 24 -710 23.5 c 128,-1,11
 -691 23 -691 23 -681 14 c 0,12,13
 -669 3 -669 3 -669 -18 c 0,14,15
 -669 -36 -669 -36 -681 -48 c 0,16,17
 -692 -59 -692 -59 -710 -59 c 128,-1,5
EndSplineSet
EndChar

StartChar: i
Encoding: 105 105 77
Width: 33
VWidth: 0
GlyphClass: 2
Flags: W
LayerCount: 3
Fore
SplineSet
84 399 m 1,0,-1
 84 18 l 1,1,-1
 -18 18 l 1,2,-1
 -18 399 l 1,3,-1
 84 399 l 1,0,-1
EndSplineSet
EndChar

StartChar: j
Encoding: 106 106 78
Width: 169
VWidth: 0
GlyphClass: 2
Flags: W
LayerCount: 3
Fore
SplineSet
170 106 m 5,0,-1
 257 40 l 5,1,-1
 61 -141 l 5,2,-1
 61 -18 l 5,3,-1
 170 106 l 5,0,-1
-49 105 m 5,4,-1
 61 105 l 5,5,-1
 61 -141 l 5,6,-1
 -49 -246 l 5,7,-1
 -49 105 l 5,4,-1
EndSplineSet
EndChar

StartChar: l
Encoding: 108 108 80
Width: 56
VWidth: 1398
GlyphClass: 2
Flags: W
LayerCount: 3
Fore
SplineSet
16 271 m 4,0,1
 57 271 57 271 91 239 c 4,2,3
 130 204 130 204 130 146 c 4,4,5
 130 117 130 117 118 91.5 c 132,-1,6
 106 66 106 66 91 53 c 4,7,8
 50 21 50 21 16 21 c 4,9,10
 -22 21 -22 21 -60 53 c 4,11,12
 -76 67 -76 67 -87 92 c 132,-1,13
 -98 117 -98 117 -98 146 c 4,14,15
 -98 205 -98 205 -60 239 c 4,16,17
 -24 271 -24 271 16 271 c 4,0,1
EndSplineSet
EndChar

StartChar: o
Encoding: 111 111 83
Width: 352
VWidth: 0
GlyphClass: 2
Flags: W
LayerCount: 3
Fore
SplineSet
-30 110 m 1,0,1
 71 169 71 169 134 280 c 1,2,3
 215 419 215 419 216 534 c 1,4,5
 216 534 216 534 300 535 c 1,8,9
 299 402 299 402 205 239 c 1,10,11
 129 106 129 106 12 38 c 1,12,13
 -9 74 -9 74 -30 110 c 1,0,1
251 523 m 25,0,-1
 264 546 l 25,1,-1
 269 528 l 25,2,-1
 246 541 l 1049,3,-1
236.5 499 m 128,-1,5
 221 508 221 508 217 523 c 0,6,7
 213 539 213 539 222 555 c 0,7,8
 232 573 232 573 248 576 c 0,9,10
 262 579 262 579 278 570 c 128,-1,11
 294 561 294 561 298 547 c 0,12,13
 303 532 303 532 293 514 c 0,14,15
 284 499 284 499 267 494 c 0,16,17
 252 490 252 490 236.5 499 c 128,-1,5
-16 62 m 25,0,-1
 -2 85 l 25,1,-1
 3 67 l 25,2,-1
 -21 80 l 1049,3,-1
-29.5 38 m 128,-1,5
 -45 47 -45 47 -49 62 c 0,6,7
 -53 78 -53 78 -44 94 c 0,7,8
 -34 112 -34 112 -19 115 c 0,9,10
 -5 118 -5 118 11.5 108.5 c 128,-1,11
 28 99 28 99 32 86 c 0,12,13
 37 71 37 71 27 53 c 0,14,15
 18 38 18 38 1 33 c 0,16,17
 -14 29 -14 29 -29.5 38 c 128,-1,5
EndSplineSet
EndChar

StartChar: p
Encoding: 112 112 84
Width: 241
VWidth: 2095
GlyphClass: 2
Flags: W
LayerCount: 3
Fore
SplineSet
80 614 m 1,0,1
 60 615 60 615 40 614 c 1,2,3
 20 614 20 614 -1 614 c 1,4,5
 -1 891 -1 891 -1 1012 c 1,6,7
 10 1208 10 1208 159 1198 c 0,8,9
 254 1192 254 1192 286 1118 c 0,0,0
 352 966 352 966 262 819 c 0,10,11
 208 731 208 731 80 614 c 1,0,1
81 730 m 1,13,14
 156 804 156 804 188 857 c 0,15,16
 243 952 243 952 221 1050 c 0,0,0
 207 1114 207 1114 159 1114 c 0,17,18
 81 1114 81 1114 81 1012 c 0,19,20
 81 931 81 931 81 730 c 1,13,14
40 642 m 25,0,-1
 40 614 l 25,1,-1
 27 628 l 25,2,-1
 54 628 l 1049,3,-1
41 669 m 128,-1,5
 59 669 59 669 70 658 c 0,6,7
 82 646 82 646 81 628 c 0,7,8
 81 608 81 608 70 597 c 0,9,10
 60 587 60 587 40.5 587 c 128,-1,11
 21 587 21 587 11 597 c 0,12,13
 -1 608 -1 608 -1 628 c 0,14,15
 -1 646 -1 646 12 658 c 0,16,17
 23 669 23 669 41 669 c 128,-1,5
40 639 m 25,0,-1
 40 612 l 25,1,-1
 27 625 l 25,2,-1
 54 625 l 1049,3,-1
41 666 m 128,-1,5
 59 666 59 666 70 655 c 0,6,7
 82 643 82 643 81 625 c 0,7,8
 81 605 81 605 70 594 c 0,9,10
 60 584 60 584 40.5 584 c 128,-1,11
 21 584 21 584 11 594 c 0,12,13
 -1 605 -1 605 -1 625 c 0,14,15
 -1 643 -1 643 12 655 c 0,16,17
 23 666 23 666 41 666 c 128,-1,5
EndSplineSet
Refer: 281 57352 N 1 0 0 1 -1 0 2
EndChar

StartChar: r
Encoding: 114 114 86
Width: 40
VWidth: 0
GlyphClass: 2
Flags: W
LayerCount: 3
Fore
SplineSet
26 204 m 1,0,-1
 212 -60 l 1,1,-1
 87 -60 l 1,2,-1
 -104 204 l 1,3,-1
 26 204 l 1,0,-1
EndSplineSet
EndChar

StartChar: s
Encoding: 115 115 87
Width: -91
VWidth: 1398
GlyphClass: 2
Flags: W
LayerCount: 3
Fore
SplineSet
-194.5 545 m 132,-1,1
 -141 545 -141 545 -99.5 526 c 132,-1,2
 -58 507 -58 507 -19 471 c 4,3,4
 21 434 21 434 45.5 378.5 c 132,-1,5
 70 323 70 323 70 256 c 132,-1,6
 70 189 70 189 43.5 129 c 132,-1,7
 17 69 17 69 -19 41 c 4,8,9
 -65 5 -65 5 -103.5 -14 c 132,-1,10
 -142 -33 -142 -33 -194 -33 c 4,11,12
 -247 -33 -247 -33 -287 -14 c 132,-1,13
 -327 5 -327 5 -369 41 c 4,14,15
 -407 72 -407 72 -431.5 130 c 132,-1,16
 -456 188 -456 188 -456 256 c 4,17,18
 -456 393 -456 393 -369 471 c 4,19,20
 -329 506 -329 506 -288.5 525.5 c 132,-1,0
 -248 545 -248 545 -194.5 545 c 132,-1,1
-191 96 m 4,21,22
 -151 96 -151 96 -122 110 c 132,-1,23
 -93 124 -93 124 -78 147.5 c 132,-1,24
 -63 171 -63 171 -56 197.5 c 132,-1,25
 -49 224 -49 224 -49 254 c 4,26,27
 -49 287 -49 287 -56 315 c 132,-1,28
 -63 343 -63 343 -78.5 367.5 c 132,-1,29
 -94 392 -94 392 -122.5 406 c 132,-1,30
 -151 420 -151 420 -191 420 c 6,31,-1
 -192 420 l 6,32,33
 -239 420 -239 420 -272.5 393 c 132,-1,34
 -306 366 -306 366 -319.5 330 c 132,-1,35
 -333 294 -333 294 -333 256 c 4,36,37
 -333 189 -333 189 -297.5 142.5 c 132,-1,38
 -262 96 -262 96 -191 96 c 4,21,22
EndSplineSet
EndChar

StartChar: t
Encoding: 116 116 88
Width: 329
VWidth: 0
GlyphClass: 2
Flags: W
LayerCount: 3
Fore
SplineSet
-106 393 m 1,0,1
 -135 364 -135 364 -164 335 c 1,4,5
 -170 341 -170 341 -170 341 c 1,6,7
 -379 551 -379 551 -379 882 c 0,8,9
 -379 889 -379 889 -379 896 c 1,10,-1
 -297 896 l 1,11,12
 -297 894 -297 894 -297 882 c 0,13,14
 -297 586 -297 586 -112 400 c 1,15,16
 -106 393 -106 393 -106 393 c 1,0,1
-338 882 m 25,0,-1
 -338 909 l 25,1,-1
 -324 896 l 25,2,-1
 -351 896 l 1049,3,-1
-338 855 m 128,-1,5
 -356 855 -356 855 -367 866 c 0,6,7
 -379 878 -379 878 -379 896 c 0,7,8
 -379 916 -379 916 -367 927 c 0,9,10
 -357 937 -357 937 -338 937 c 128,-1,11
 -319 937 -319 937 -308 927 c 0,12,13
 -296 916 -296 916 -297 896 c 0,14,15
 -297 878 -297 878 -309 866 c 0,16,17
 -320 855 -320 855 -338 855 c 128,-1,5
-144 354 m 25,0,-1
 -125 374 l 25,1,-1
 -125 354 l 25,2,-1
 -144 374 l 1049,3,-1
-164 335.5 m 128,-1,5
 -177 348 -177 348 -177 364 c 0,6,7
 -177 380 -177 380 -164 393 c 0,7,8
 -150 407 -150 407 -133 407 c 0,9,10
 -119 407 -119 407 -105.5 393.5 c 128,-1,11
 -92 380 -92 380 -92 366 c 0,12,13
 -92 350 -92 350 -106 335 c 0,14,15
 -119 322 -119 322 -136 323 c 0,16,17
 -151 323 -151 323 -164 335.5 c 128,-1,5
EndSplineSet
EndChar

StartChar: u
Encoding: 117 117 89
Width: 309
VWidth: 0
GlyphClass: 2
Flags: W
LayerCount: 3
Fore
Refer: 549 58570 S 1 0 0 1 0 0 2
Layer: 2
SplineSet
199.279296875 1192.06152344 m 4
 244.046875 1192.265625 287.301757812 1172.65332031 329.044921875 1133.2265625 c 4
 375.59375 1089.36816406 398.97265625 1031.484375 399.182617188 959.577148438 c 4
 399.427734375 888.580078125 376.048828125 832.061523438 329.044921875 790.0234375 c 4
 285.936523438 751.051757812 242.909179688 731.440429688 199.961914062 731.188476562 c 4
 158.258789062 730.985351562 114.95703125 750.59765625 70.0595703125 790.0234375 c 4
 24.390625 830.241210938 1.5556640625 886.3046875 1.5556640625 958.211914062 c 4
 1.5556640625 1033.76074219 24.390625 1092.09863281 70.0595703125 1133.2265625 c 4
 113.591796875 1172.19824219 156.665039062 1191.80957031 199.279296875 1192.06152344 c 4
200.637695312 817.241210938 m 4
 234.942382812 817.46875 263.165039062 834.6015625 285.305664062 868.638671875 c 4
 305.490234375 899.681640625 315.223632812 930.0703125 314.5078125 959.803710938 c 4
 313.404296875 999.247070312 305.342773438 1030.80175781 290.32421875 1054.46777344 c 4
 268.93359375 1089.05664062 238.810546875 1106.41601562 199.955078125 1106.546875 c 4
 162.807617188 1106.41601562 134.220703125 1089.05664062 114.196289062 1054.46777344 c 4
 94.1708984375 1019.42480469 84.345703125 987.291015625 84.7216796875 958.067382812 c 4
 84.8017578125 926.76171875 94.4326171875 896.723632812 113.615234375 867.956054688 c 4
 136.302734375 833.918945312 165.310546875 817.013671875 200.637695312 817.241210938 c 4
EndSplineSet
Refer: 564 57346 S 1 0 0 1 270.526 790.958 2
Refer: 564 57346 S 1 0 0 1 1.556 916.569 2
Refer: 564 57346 S 1 0 0 1 172.905 732.931 2
Refer: 564 57346 S 1 0 0 1 145.349 732.556 2
Refer: 564 57346 S 1 0 0 1 316.948 916.569 2
Refer: 564 57346 S 1 0 0 1 19.988 1006.68 2
Refer: 564 57346 S 1 0 0 1 295.102 827.139 2
Refer: 564 57346 S 1 0 0 1 45.9293 1050.37 2
Refer: 564 57346 S 1 0 0 1 172.222 1108.4 2
Refer: 564 57346 S 1 0 0 1 148.329 1108.4 2
EndChar

StartChar: z
Encoding: 122 122 94
Width: 50
VWidth: 1398
GlyphClass: 2
Flags: W
LayerCount: 3
Fore
SplineSet
20 83 m 0,0,1
 63 83 63 83 86 121.5 c 128,-1,2
 109 160 109 160 109 201 c 0,3,4
 109 245 109 245 86 285 c 128,-1,5
 63 325 63 325 20 325 c 0,6,7
 -20 325 -20 325 -47 284.5 c 128,-1,8
 -74 244 -74 244 -74 207 c 0,9,10
 -74 167 -74 167 -47 125 c 128,-1,11
 -20 83 -20 83 20 83 c 0,0,1
18 417 m 0,12,13
 86 417 86 417 143 364 c 0,14,15
 172 338 172 338 190 297.5 c 128,-1,16
 208 257 208 257 208 209 c 0,17,18
 208 161 208 161 188.5 117.5 c 128,-1,19
 169 74 169 74 144 54 c 0,20,21
 111 27 111 27 83 14 c 128,-1,22
 55 1 55 1 17.5 1 c 128,-1,23
 -20 1 -20 1 -48.5 14.5 c 128,-1,24
 -77 28 -77 28 -109 54 c 0,25,26
 -136 77 -136 77 -153.5 118.5 c 128,-1,27
 -171 160 -171 160 -171 209 c 0,28,29
 -171 307 -171 307 -109 364 c 0,30,31
 -49 417 -49 417 18 417 c 0,12,13
EndSplineSet
EndChar

StartChar: braceleft
Encoding: 123 123 95
Width: 540
VWidth: 1398
GlyphClass: 2
Flags: W
LayerCount: 3
Fore
SplineSet
500 -342 m 1,0,-1
 500 -424 l 1,1,-1
 464 -424 l 2,2,3
 326 -424 326 -424 277 -381 c 0,4,5
 229 -340 229 -340 230 -216 c 2,6,-1
 230 549 l 2,7,8
 230 634 230 634 200 667 c 0,9,10
 170 698 170 698 85 698 c 6,11,-1
 41 698 l 5,12,-1
 41 780 l 5,13,-1
 85 780 l 6,14,15
 167 780 167 780 200 811 c 0,16,17
 230 838 230 838 230 927 c 2,18,-1
 230 1753 l 2,19,20
 230 1875 230 1875 277 1917 c 0,21,22
 323 1958 323 1958 464 1959 c 2,23,-1
 500 1959 l 1,24,-1
 500 1877 l 1,25,-1
 461 1877 l 2,26,27
 366 1877 366 1877 344 1854 c 0,28,29
 320 1830 320 1830 320 1750 c 2,30,-1
 320 920 l 2,31,32
 320 832 320 832 294 793 c 0,33,34
 269 753 269 753 214 739 c 1,35,36
 262 724 262 724 291 684 c 128,-1,37
 320 644 320 644 320 557 c 2,38,-1
 320 -214 l 2,39,40
 320 -280 320 -280 358 -318 c 0,41,42
 382 -342 382 -342 461 -342 c 2,43,-1
 500 -342 l 1,0,-1
EndSplineSet
Refer: 564 57346 S 1 0 0 1 0 698 2
Refer: 564 57346 N 1 0 0 1 459 1877 2
Refer: 564 57346 N 1 0 0 1 458 -424 2
EndChar

StartChar: bar
Encoding: 124 124 96
Width: 81
VWidth: 1398
GlyphClass: 2
Flags: W
LayerCount: 3
Fore
SplineSet
82 2219 m 1,0,-1
 82 -683 l 1,1,-1
 0 -683 l 1,2,-1
 0 2219 l 1,3,-1
 82 2219 l 1,0,-1
EndSplineSet
Refer: 564 57346 S 1 0 0 1 0 2178 2
Refer: 564 57346 N 1 0 0 1 0 -724 2
EndChar

StartChar: exclamdown
Encoding: 161 161 100
Width: 841
VWidth: 1398
GlyphClass: 2
Flags: W
LayerCount: 3
Fore
SplineSet
352 846 m 1,0,-1
 352 1019 l 1,1,-1
 491 1019 l 1,2,-1
 491 846 l 1,3,-1
 352 846 l 1,0,-1
352 0 m 1,4,-1
 352 447 l 1,5,-1
 367 691 l 1,6,-1
 477 691 l 1,7,-1
 491 447 l 1,8,-1
 491 0 l 1,9,-1
 352 0 l 1,4,-1
EndSplineSet
EndChar

StartChar: cent
Encoding: 162 162 101
Width: 841
VWidth: 1398
GlyphClass: 2
Flags: W
LayerCount: 3
Fore
SplineSet
724 735 m 1,0,-1
 724 618 l 1,1,2
 680 644 680 644 634 660 c 0,3,4
 592 674 592 674 547 678 c 1,5,-1
 547 84 l 1,6,7
 586 87 586 87 635 102 c 0,8,9
 684 120 684 120 724 145 c 1,10,-1
 724 28 l 1,11,12
 674 7 674 7 630 -5 c 0,13,14
 584 -17 584 -17 547 -18 c 1,15,-1
 547 -214 l 1,16,-1
 477 -214 l 1,17,-1
 477 -18 l 1,18,19
 323 -2 323 -2 234 104 c 0,20,21
 145 210 145 210 145 382 c 0,22,23
 145 552 145 552 235 661 c 0,24,25
 325 769 325 769 477 782 c 1,26,-1
 477 978 l 1,27,-1
 547 978 l 1,28,-1
 547 782 l 1,29,30
 585 780 585 780 630 768 c 0,31,32
 674 756 674 756 724 735 c 1,0,-1
477 87 m 1,33,-1
 477 677 l 1,34,35
 386 669 386 669 332 588 c 0,36,37
 277 507 277 507 277 382 c 128,-1,38
 277 257 277 257 332 176 c 0,39,40
 386 97 386 97 477 87 c 1,33,-1
EndSplineSet
EndChar

StartChar: sterling
Encoding: 163 163 102
Width: 841
VWidth: 1398
GlyphClass: 2
Flags: W
LayerCount: 3
Fore
SplineSet
745 998 m 1,0,-1
 745 872 l 1,1,2
 703 902 703 902 659 918 c 0,3,4
 617 933 617 933 571 933 c 0,5,6
 480 933 480 933 436 871 c 0,7,8
 393 811 393 811 393 679 c 2,9,-1
 393 531 l 1,10,-1
 646 531 l 1,11,-1
 646 433 l 1,12,-1
 393 433 l 1,13,-1
 393 116 l 1,14,-1
 759 116 l 1,15,-1
 759 0 l 1,16,-1
 95 0 l 1,17,-1
 95 116 l 1,18,-1
 256 116 l 1,19,-1
 256 433 l 1,20,-1
 120 433 l 1,21,-1
 120 531 l 1,22,-1
 256 531 l 1,23,-1
 256 694 l 2,24,25
 256 867 256 867 330 952 c 0,26,27
 406 1037 406 1037 558 1038 c 0,28,29
 601 1038 601 1038 649 1028 c 0,30,31
 692 1018 692 1018 745 998 c 1,0,-1
EndSplineSet
EndChar

StartChar: currency
Encoding: 164 164 103
Width: 841
VWidth: 1398
GlyphClass: 2
Flags: W
LayerCount: 3
Fore
SplineSet
593 439 m 0,0,1
 593 501 593 501 550 542 c 0,2,3
 508 584 508 584 446 584 c 0,4,5
 384 584 384 584 341 542 c 0,6,7
 299 501 299 501 299 439 c 128,-1,8
 299 377 299 377 341 333 c 0,9,10
 385 291 385 291 446 291 c 0,11,12
 508 291 508 291 550 334 c 0,13,14
 593 378 593 378 593 439 c 0,0,1
576 631 m 1,15,-1
 689 744 l 1,16,-1
 751 681 l 1,17,-1
 638 567 l 1,18,19
 659 532 659 532 668 502 c 0,20,21
 678 469 678 469 678 438 c 0,22,23
 678 404 678 404 668 373 c 0,24,25
 658 341 658 341 636 311 c 1,26,-1
 751 197 l 1,27,-1
 687 133 l 1,28,-1
 573 247 l 1,29,30
 542 226 542 226 511 216 c 0,31,32
 480 206 480 206 446 205 c 0,33,34
 413 205 413 205 380 216 c 0,35,36
 347 226 347 226 315 244 c 1,37,-1
 203 133 l 1,38,-1
 140 195 l 1,39,-1
 253 308 l 1,40,41
 232 342 232 342 223 374 c 0,42,43
 213 407 213 407 212 438 c 0,44,45
 212 471 212 471 223 504 c 0,46,47
 235 538 235 538 255 566 c 1,48,-1
 140 679 l 1,49,-1
 204 744 l 1,50,-1
 317 629 l 1,51,52
 348 650 348 650 380 661 c 0,53,54
 412 671 412 671 446 671 c 0,55,56
 478 671 478 671 509 661 c 0,57,58
 541 652 541 652 576 631 c 1,15,-1
EndSplineSet
EndChar

StartChar: yen
Encoding: 165 165 104
Width: 841
VWidth: 1398
GlyphClass: 2
Flags: W
LayerCount: 3
Fore
SplineSet
25 1019 m 1,0,-1
 172 1019 l 1,1,-1
 421 569 l 1,2,-1
 668 1019 l 1,3,-1
 816 1019 l 1,4,-1
 591 636 l 1,5,-1
 763 636 l 1,6,-1
 763 560 l 1,7,-1
 548 560 l 1,8,-1
 489 457 l 1,9,-1
 489 433 l 1,10,-1
 763 433 l 1,11,-1
 763 358 l 1,12,-1
 489 358 l 1,13,-1
 489 0 l 1,14,-1
 351 0 l 1,15,-1
 351 358 l 1,16,-1
 79 358 l 1,17,-1
 79 433 l 1,18,-1
 351 433 l 1,19,-1
 351 457 l 1,20,-1
 289 560 l 1,21,-1
 79 560 l 1,22,-1
 79 636 l 1,23,-1
 244 636 l 1,24,-1
 25 1019 l 1,0,-1
EndSplineSet
EndChar

StartChar: brokenbar
Encoding: 166 166 105
Width: 841
VWidth: 1398
GlyphClass: 2
Flags: W
LayerCount: 3
Fore
SplineSet
479 978 m 1,0,-1
 479 460 l 1,1,-1
 362 460 l 1,2,-1
 362 978 l 1,3,-1
 479 978 l 1,0,-1
479 279 m 1,4,-1
 479 -239 l 1,5,-1
 362 -239 l 1,6,-1
 362 279 l 1,7,-1
 479 279 l 1,4,-1
EndSplineSet
EndChar

StartChar: section
Encoding: 167 167 106
Width: 841
VWidth: 1398
GlyphClass: 2
Flags: W
LayerCount: 3
Fore
SplineSet
639 998 m 1,0,-1
 639 886 l 1,1,2
 580 914 580 914 534 926 c 0,3,4
 487 940 487 940 446 939 c 0,5,6
 379 939 379 939 343 912 c 0,7,8
 307 884 307 884 307 836 c 0,9,10
 307 775 307 775 446 696 c 0,11,12
 462 686 462 686 474 681 c 0,13,14
 619 600 619 600 663 547 c 128,-1,15
 707 494 707 494 707 425 c 0,16,17
 707 364 707 364 676 316 c 0,18,19
 645 268 645 268 582 232 c 1,20,21
 624 196 624 196 643 160 c 0,22,23
 663 122 663 122 663 79 c 0,24,25
 663 -18 663 -18 593.5 -75.5 c 128,-1,26
 524 -133 524 -133 406 -133 c 0,27,28
 355 -133 355 -133 303 -123 c 0,29,30
 254 -115 254 -115 190 -94 c 1,31,-1
 190 18 l 1,32,33
 245 -7 245 -7 300 -22 c 0,34,35
 353 -35 353 -35 390 -35 c 0,36,37
 460 -35 460 -35 498 -6 c 0,38,39
 536 23 536 23 537 74 c 0,40,41
 537 144 537 144 386 228 c 1,42,-1
 369 238 l 1,43,44
 225 319 225 319 180 371 c 0,45,46
 136 424 136 424 136 494 c 0,47,48
 136 557 136 557 168 605 c 0,49,50
 199 653 199 653 261 687 c 1,51,52
 220 716 220 716 201 755 c 0,53,54
 181 793 181 793 180 840 c 0,55,56
 180 929 180 929 248 983 c 0,57,58
 316 1038 316 1038 431 1038 c 0,59,60
 477 1038 477 1038 532 1028 c 0,61,62
 584 1018 584 1018 639 998 c 1,0,-1
331 639 m 1,63,64
 289 608 289 608 268 578 c 0,65,66
 248 547 248 547 247 515 c 0,67,68
 247 464 247 464 295 416 c 1,69,70
 346 369 346 369 512 280 c 1,71,72
 554 311 554 311 575 341 c 0,73,74
 595 372 595 372 595 404 c 0,75,76
 595 456 595 456 546 502 c 0,77,78
 497 550 497 550 331 639 c 1,63,64
EndSplineSet
EndChar

StartChar: dieresis
Encoding: 168 168 107
Width: 841
VWidth: 1398
GlyphClass: 2
Flags: W
LayerCount: 3
Fore
SplineSet
218 1059 m 1,0,-1
 356 1059 l 1,1,-1
 356 922 l 1,2,-1
 218 922 l 1,3,-1
 218 1059 l 1,0,-1
485 1059 m 1,4,-1
 623 1059 l 1,5,-1
 623 922 l 1,6,-1
 485 922 l 1,7,-1
 485 1059 l 1,4,-1
EndSplineSet
EndChar

StartChar: copyright
Encoding: 169 169 108
Width: 841
VWidth: 1398
GlyphClass: 2
Flags: W
LayerCount: 3
Fore
SplineSet
493 296 m 1,4,5
 446 285 446 285 403 321 c 0,6,7
 361 355 361 355 361.5 436 c 128,-1,8
 362 517 362 517 403 565 c 0,9,10
 438 607 438 607 507 607 c 0,11,12
 593 607 593 607 612 580 c 0,13,14
 651 527 651 527 660 458 c 0,15,16
 670 384 670 384 665 302 c 0,0,0
 649 52 649 52 460 45 c 0,43,44
 321 40 321 40 231 157 c 0,45,46
 146 270 146 270 146 460.5 c 128,-1,47
 146 651 146 651 241.5 764.5 c 128,-1,48
 337 878 337 878 499 879 c 0,49,50
 528 879 528 879 562 873 c 0,51,52
 595 867 595 867 627 855 c 1,53,-1
 655 934 l 1,54,55
 624 947 624 947 582 956 c 0,56,57
 547 964 547 964 512 963 c 0,58,59
 300 960 300 960 181 827 c 0,60,61
 59 691 59 691 59 459 c 0,62,63
 59 232 59 232 169 97 c 0,64,65
 272 -31 272 -31 460 -32 c 0,66,67
 577 -32 577 -32 650 46 c 0,68,69
 724 127 724 127 731 248 c 0,70,-1
 744 475 744 475 684 595 c 0,22,23
 660 643 660 643 591 674 c 0,25,26
 551 692 551 692 496 689 c 0,27,28
 387 686 387 686 341 621 c 0,29,30
 283 539 283 539 282 433.5 c 128,-1,31
 281 328 281 328 338 263 c 0,32,33
 412 179 412 179 523 219 c 1,0,0
 510 253 510 253 493 296 c 1,4,5
EndSplineSet
Refer: 564 57346 N 1 -0 0 -1 598 936 2
Refer: 564 57346 N 0.939693 0.34202 0.34202 -0.939693 455 282 2
Layer: 2
SplineSet
589.82421875 731.135742188 m 5
 589.82421875 657.408203125 l 5
 562.0625 671.061523438 536.12109375 680.390625 512 685.397460938 c 4
 489.244140625 691.768554688 463.530273438 694.955078125 434.858398438 694.955078125 c 4
 382.065429688 694.955078125 339.967773438 678.115234375 308.565429688 644.4375 c 4
 278.073242188 609.848632812 262.827148438 563.655273438 262.827148438 505.856445312 c 4
 262.827148438 445.326171875 278.755859375 399.1328125 310.61328125 367.274414062 c 4
 342.92578125 334.961914062 388.4375 318.805664062 447.146484375 318.805664062 c 4
 473.54296875 318.805664062 497.891601562 321.763671875 520.192382812 327.6796875 c 4
 543.40234375 333.141601562 566.61328125 341.788085938 589.82421875 353.62109375 c 5
 589.82421875 282.624023438 l 5
 563.8828125 271.701171875 539.079101562 263.96484375 515.413085938 259.413085938 c 4
 488.106445312 254.407226562 461.254882812 251.904296875 434.858398438 251.904296875 c 4
 352.028320312 251.904296875 287.629882812 274.659179688 241.6640625 320.170898438 c 4
 194.33203125 365.681640625 170.666992188 427.577148438 170.666992188 505.856445312 c 4
 170.666992188 584.58984375 194.33203125 646.940429688 241.6640625 692.90625 c 132
 288.995117188 738.873046875 353.393554688 761.856445312 434.858398438 761.856445312 c 4
 461.254882812 761.856445312 488.106445312 759.352539062 515.413085938 754.346679688 c 4
 539.079101562 749.795898438 563.8828125 742.05859375 589.82421875 731.135742188 c 5
420.522460938 856.747070312 m 4
 371.826171875 856.747070312 327.224609375 848.327148438 286.719726562 831.48828125 c 4
 244.849609375 814.193359375 207.075195312 788.708007812 173.397460938 755.029296875 c 4
 139.263671875 720.896484375 113.322265625 682.89453125 95.5732421875 641.024414062 c 4
 78.279296875 598.698242188 69.6318359375 553.642578125 69.6318359375 505.856445312 c 4
 69.6318359375 458.524414062 78.279296875 414.151367188 95.5732421875 372.736328125 c 132
 112.8671875 331.321289062 138.80859375 293.319335938 173.397460938 258.73046875 c 4
 208.440429688 223.6875 246.21484375 197.74609375 286.719726562 180.90625 c 4
 329.044921875 163.612304688 373.646484375 154.965820312 420.522460938 154.965820312 c 4
 468.309570312 154.965820312 512.91015625 163.612304688 554.325195312 180.90625 c 4
 595.28515625 197.74609375 633.287109375 223.6875 668.331054688 258.73046875 c 4
 703.829101562 294.229492188 729.54296875 332.231445312 745.471679688 372.736328125 c 4
 762.766601562 412.786132812 771.413085938 457.159179688 771.413085938 505.856445312 c 4
 771.413085938 553.642578125 762.766601562 598.698242188 745.471679688 641.024414062 c 4
 728.177734375 682.439453125 702.463867188 720.440429688 668.331054688 755.029296875 c 4
 634.65234375 788.708007812 597.10546875 814.193359375 555.690429688 831.48828125 c 4
 514.73046875 848.327148438 469.674804688 856.747070312 420.522460938 856.747070312 c 4
420.522460938 927.061523438 m 4
 477.866210938 927.061523438 531.569335938 916.821289062 581.631835938 896.341796875 c 4
 631.239257812 875.861328125 676.522460938 845.141601562 717.482421875 804.181640625 c 4
 757.987304688 762.766601562 788.935546875 717.02734375 810.325195312 666.965820312 c 4
 831.260742188 617.813476562 841.727539062 564.110351562 841.727539062 505.856445312 c 4
 841.727539062 448.966796875 831.48828125 395.71875 811.0078125 346.112304688 c 4
 789.618164062 296.504882812 758.442382812 250.994140625 717.482421875 209.579101562 c 4
 676.067382812 168.619140625 630.556640625 137.443359375 580.94921875 116.053710938 c 4
 531.341796875 95.5732421875 477.866210938 85.3330078125 420.522460938 85.3330078125 c 4
 364.088867188 85.3330078125 310.840820312 95.5732421875 260.778320312 116.053710938 c 4
 210.716796875 137.443359375 165.205078125 168.619140625 124.245117188 209.579101562 c 4
 82.830078125 250.994140625 51.8828125 296.504882812 31.40234375 346.112304688 c 4
 10.4677734375 395.263671875 0 448.51171875 0 505.856445312 c 4
 0 564.110351562 10.4677734375 617.813476562 31.40234375 666.965820312 c 4
 52.79296875 717.02734375 83.740234375 762.766601562 124.245117188 804.181640625 c 4
 165.205078125 845.141601562 210.489257812 875.861328125 260.095703125 896.341796875 c 4
 310.158203125 916.821289062 363.633789062 927.061523438 420.522460938 927.061523438 c 4
EndSplineSet
EndChar

StartChar: ordfeminine
Encoding: 170 170 109
Width: 841
VWidth: 1398
GlyphClass: 2
Flags: W
LayerCount: 3
Fore
SplineSet
467 754 m 2,0,1
 368 754 368 754 326 730 c 0,2,3
 284 706 284 706 284 654 c 0,4,5
 284 610 284 610 314 584 c 0,6,7
 343 557 343 557 393 558 c 0,8,9
 465 558 465 558 509 606 c 0,10,11
 553 656 553 656 554 734 c 2,12,-1
 554 754 l 1,13,-1
 467 754 l 2,0,1
651 795 m 2,14,-1
 651 489 l 1,15,-1
 554 489 l 1,16,-1
 554 566 l 1,17,18
 520 521 520 521 475 499 c 0,19,20
 431 476 431 476 375 477 c 0,21,22
 288 477 288 477 236 523 c 0,23,24
 185 569 185 569 184 649 c 0,25,26
 184 737 184 737 248 784 c 0,27,28
 311 832 311 832 429 832 c 2,29,-1
 554 832 l 1,30,-1
 554 835 l 2,31,32
 554 896 554 896 513 928 c 0,33,34
 473 959 473 959 393 959 c 0,35,36
 359 959 359 959 315 948 c 0,37,38
 273 936 273 936 227 913 c 1,39,-1
 227 999 l 1,40,41
 273 1019 273 1019 319 1028 c 0,42,43
 365 1038 365 1038 408 1038 c 0,44,45
 534 1038 534 1038 592.5 979 c 128,-1,46
 651 920 651 920 651 795 c 2,14,-1
200 404 m 1,47,-1
 656 404 l 1,48,-1
 656 320 l 1,49,-1
 200 320 l 1,50,-1
 200 404 l 1,47,-1
EndSplineSet
EndChar

StartChar: guillemotleft
Encoding: 171 171 110
Width: 841
VWidth: 1398
GlyphClass: 2
Flags: W
LayerCount: 3
Fore
SplineSet
401 723 m 1,0,-1
 401 593 l 1,1,-1
 196 410 l 1,2,-1
 401 227 l 1,3,-1
 401 96 l 1,4,-1
 81 382 l 1,5,-1
 81 438 l 1,6,-1
 401 723 l 1,0,-1
711 723 m 1,7,-1
 711 593 l 1,8,-1
 506 410 l 1,9,-1
 711 227 l 1,10,-1
 711 96 l 1,11,-1
 391 382 l 1,12,-1
 391 438 l 1,13,-1
 711 723 l 1,7,-1
EndSplineSet
EndChar

StartChar: logicalnot
Encoding: 172 172 111
Width: 841
VWidth: 1398
GlyphClass: 2
Flags: W
LayerCount: 3
Fore
SplineSet
60 588 m 1,0,-1
 782 588 l 1,1,-1
 782 253 l 1,2,-1
 667 253 l 1,3,-1
 667 471 l 1,4,-1
 60 471 l 1,5,-1
 60 588 l 1,0,-1
EndSplineSet
EndChar

StartChar: uni00AD
Encoding: 173 173 112
Width: 841
VWidth: 1398
GlyphClass: 2
Flags: W
LayerCount: 3
Fore
SplineSet
243 439 m 1,0,-1
 599 439 l 1,1,-1
 599 327 l 1,2,-1
 243 327 l 1,3,-1
 243 439 l 1,0,-1
EndSplineSet
EndChar

StartChar: registered
Encoding: 174 174 113
Width: 841
VWidth: 1398
GlyphClass: 2
Flags: W
LayerCount: 3
Fore
SplineSet
410 751 m 2,0,1
 511 751 511 751 559 717 c 0,2,3
 608 684 608 684 608 615 c 0,4,5
 608 567 608 567 578 535 c 0,6,7
 549 503 549 503 494 494 c 1,8,9
 507 491 507 491 526 467 c 0,10,11
 547 442 547 442 572 404 c 2,12,-1
 650 277 l 1,13,-1
 552 277 l 1,14,-1
 479 396 l 2,15,16
 444 451 444 451 425 465 c 0,17,18
 405 479 405 479 373 479 c 2,19,-1
 336 479 l 1,20,-1
 336 277 l 1,21,-1
 247 277 l 1,22,-1
 247 751 l 1,23,-1
 410 751 l 2,0,1
406 694 m 2,24,-1
 336 694 l 1,25,-1
 336 535 l 1,26,-1
 406 535 l 2,27,28
 467 535 467 535 492 553.5 c 128,-1,29
 517 572 517 572 517 615 c 0,30,31
 517 657 517 657 492 676 c 0,32,33
 467 694 467 694 406 694 c 2,24,-1
421 927 m 0,34,35
 507 927 507 927 582 896 c 0,36,37
 656 865 656 865 717 804 c 0,38,39
 778 742 778 742 810 667 c 0,40,41
 841 593 841 593 842 506 c 0,42,43
 842 421 842 421 811 346 c 0,44,45
 779 272 779 272 717 210 c 0,46,47
 655 149 655 149 581 116 c 0,48,49
 507 85 507 85 421 85 c 0,50,51
 336 85 336 85 261 116 c 0,52,53
 186 148 186 148 124 210 c 0,54,55
 62 272 62 272 31 346 c 0,56,57
 0 420 0 420 0 506 c 0,58,59
 0 593 0 593 31 667 c 0,60,61
 63 742 63 742 124 804 c 0,62,63
 185 865 185 865 260 896 c 0,64,65
 336 927 336 927 421 927 c 0,34,35
421 857 m 0,66,67
 348 857 348 857 287 831 c 0,68,69
 224 805 224 805 173 755 c 0,70,71
 122 704 122 704 96 641 c 0,72,73
 70 578 70 578 70 506 c 0,74,75
 70 435 70 435 96 373 c 128,-1,76
 122 311 122 311 173 259 c 0,77,78
 226 206 226 206 287 181 c 0,79,80
 350 155 350 155 421 155 c 0,81,82
 493 155 493 155 554 181 c 0,83,84
 615 206 615 206 668 259 c 0,85,86
 721 312 721 312 745 373 c 0,87,88
 771 433 771 433 771 506 c 0,89,90
 771 578 771 578 745 641 c 0,91,92
 719 703 719 703 668 755 c 0,93,94
 617 806 617 806 556 831 c 0,95,96
 495 857 495 857 421 857 c 0,66,67
EndSplineSet
EndChar

StartChar: macron
Encoding: 175 175 114
Width: 841
VWidth: 1398
GlyphClass: 2
Flags: W
LayerCount: 3
Fore
SplineSet
216 1042 m 1,0,-1
 625 1042 l 1,1,-1
 625 941 l 1,2,-1
 216 941 l 1,3,-1
 216 1042 l 1,0,-1
EndSplineSet
EndChar

StartChar: degree
Encoding: 176 176 115
Width: 841
VWidth: 1398
GlyphClass: 2
Flags: W
LayerCount: 3
Fore
SplineSet
421 1038 m 0,0,1
 465 1038 465 1038 505 1021 c 0,2,3
 547 1003 547 1003 575 973 c 0,4,5
 606 942 606 942 621 903 c 0,6,7
 637 864 637 864 638 819 c 0,8,9
 638 730 638 730 574 666 c 0,10,11
 510 604 510 604 419 604 c 0,12,13
 327 604 327 604 265.5 665.5 c 128,-1,14
 204 727 204 727 204 819 c 0,15,16
 204 910 204 910 267 974 c 0,17,18
 330 1038 330 1038 421 1038 c 0,0,1
420.5 950 m 128,-1,20
 367 950 367 950 329 912 c 0,21,22
 291 874 291 874 291 819.5 c 128,-1,23
 291 765 291 765 328 728 c 0,24,25
 366 691 366 691 419 691 c 0,26,27
 474 691 474 691 512 728 c 0,28,29
 551 766 551 766 551 819 c 0,30,31
 551 873 551 873 512.5 911.5 c 128,-1,19
 474 950 474 950 420.5 950 c 128,-1,20
EndSplineSet
EndChar

StartChar: plusminus
Encoding: 177 177 116
Width: 841
VWidth: 1398
GlyphClass: 2
Flags: W
LayerCount: 3
Fore
SplineSet
60 116 m 1,0,-1
 782 116 l 1,1,-1
 782 0 l 1,2,-1
 60 0 l 1,3,-1
 60 116 l 1,0,-1
478 799 m 1,4,-1
 478 575 l 1,5,-1
 782 575 l 1,6,-1
 782 459 l 1,7,-1
 478 459 l 1,8,-1
 478 232 l 1,9,-1
 363 232 l 1,10,-1
 363 459 l 1,11,-1
 60 459 l 1,12,-1
 60 575 l 1,13,-1
 363 575 l 1,14,-1
 363 799 l 1,15,-1
 478 799 l 1,4,-1
EndSplineSet
EndChar

StartChar: uni00B2
Encoding: 178 178 117
Width: 841
VWidth: 1398
GlyphClass: 2
Flags: W
LayerCount: 3
Fore
SplineSet
330 534 m 1,0,-1
 610 534 l 1,1,-1
 610 456 l 1,2,-1
 220 456 l 1,3,-1
 220 531 l 1,4,-1
 378 685 l 2,5,6
 450 755 450 755 474 793 c 0,7,8
 502 834 502 834 502 870 c 0,9,10
 502 912 502 912 467.5 937.5 c 128,-1,11
 433 963 433 963 378 963 c 0,12,13
 345 963 345 963 306 951 c 0,14,15
 267 939 267 939 224 914 c 1,16,-1
 224 999 l 1,17,18
 268 1018 268 1018 310 1028 c 256,19,20
 352 1038 352 1038 391 1038 c 0,21,22
 489 1038 489 1038 547 993 c 0,23,24
 606 947 606 947 606 874 c 0,25,26
 606 834 606 834 580 795 c 0,27,28
 554 754 554 754 474 674 c 2,29,-1
 330 534 l 1,0,-1
EndSplineSet
EndChar

StartChar: uni00B3
Encoding: 179 179 118
Width: 841
VWidth: 1398
GlyphClass: 2
Flags: W
LayerCount: 3
Fore
SplineSet
499 765 m 1,0,1
 564 751 564 751 597 713 c 0,2,3
 631 677 631 677 631 622 c 0,4,5
 631 538 631 538 566 492 c 0,6,7
 502 446 502 446 380 446 c 0,8,9
 337 446 337 446 302 453 c 0,10,11
 269 458 269 458 223 474 c 1,12,-1
 223 556 l 1,13,14
 268 538 268 538 309 529 c 0,15,16
 345 520 345 520 378 520 c 0,17,18
 446 520 446 520 487 547 c 0,19,20
 527 576 527 576 527 622 c 0,21,22
 527 673 527 673 489 698 c 0,23,24
 451 724 451 724 378 724 c 2,25,-1
 332 724 l 1,26,-1
 332 798 l 1,27,-1
 383 798 l 2,28,29
 445 798 445 798 480 819 c 0,30,31
 513 842 513 842 513 882 c 0,32,33
 513 920 513 920 481 942 c 0,34,35
 447 963 447 963 388 963 c 0,36,37
 357 963 357 963 320 955 c 128,-1,38
 283 947 283 947 242 931 c 1,39,-1
 242 1014 l 1,40,41
 294 1026 294 1026 329 1032 c 0,42,43
 368 1038 368 1038 403 1038 c 0,44,45
 501 1038 501 1038 559 997 c 0,46,47
 616 957 616 957 616 890 c 0,48,49
 616 842 616 842 586 810 c 0,50,51
 558 779 558 779 499 765 c 1,0,1
EndSplineSet
EndChar

StartChar: acute
Encoding: 180 180 119
Width: 841
VWidth: 1398
GlyphClass: 2
Flags: W
LayerCount: 3
Fore
SplineSet
516 1118 m 1,0,-1
 651 1118 l 1,1,-1
 429 862 l 1,2,-1
 324 862 l 1,3,-1
 516 1118 l 1,0,-1
EndSplineSet
EndChar

StartChar: mu
Encoding: 181 181 120
Width: 841
VWidth: 1398
GlyphClass: 2
Flags: W
LayerCount: 3
Fore
SplineSet
133 -292 m 1,0,-1
 133 765 l 1,1,-1
 259 765 l 1,2,-1
 259 289 l 2,3,4
 259 192 259 192 300 141 c 0,5,6
 341 90 341 90 416 89 c 0,7,8
 502 89 502 89 547 147 c 0,9,10
 591 206 591 206 591 319 c 2,11,-1
 591 765 l 1,12,-1
 717 765 l 1,13,-1
 717 175 l 2,14,15
 717 135 717 135 728 115.5 c 128,-1,16
 739 96 739 96 762 96 c 0,17,18
 767 96 767 96 778 100 c 0,19,20
 788 103 788 103 807 112 c 1,21,-1
 807 11 l 1,22,23
 779 -6 779 -6 758 -12 c 0,24,25
 733 -20 733 -20 711 -20 c 0,26,27
 669 -20 669 -20 643 7 c 0,28,29
 618 36 618 36 610 88 c 1,30,31
 578 33 578 33 532 7 c 0,32,33
 487 -20 487 -20 427 -20 c 0,34,35
 365 -20 365 -20 321 6 c 0,36,37
 277 31 277 31 247 87 c 1,38,-1
 247 -292 l 1,39,-1
 133 -292 l 1,0,-1
EndSplineSet
EndChar

StartChar: paragraph
Encoding: 182 182 121
Width: 841
VWidth: 1398
GlyphClass: 2
Flags: W
LayerCount: 3
Fore
SplineSet
397 1019 m 2,0,-1
 703 1019 l 1,1,-1
 703 -134 l 1,2,-1
 607 -134 l 1,3,-1
 607 935 l 1,4,-1
 477 935 l 1,5,-1
 477 -134 l 1,6,-1
 380 -134 l 1,7,-1
 380 443 l 1,8,9
 235 454 235 454 153 530 c 0,10,11
 72 606 72 606 72 731 c 0,12,13
 72 861 72 861 161 940 c 0,14,15
 252 1019 252 1019 397 1019 c 2,0,-1
EndSplineSet
EndChar

StartChar: periodcentered
Encoding: 183 183 122
Width: 841
VWidth: 1398
GlyphClass: 2
Flags: W
LayerCount: 3
Fore
SplineSet
334 590 m 1,0,-1
 506 590 l 1,1,-1
 506 382 l 1,2,-1
 334 382 l 1,3,-1
 334 590 l 1,0,-1
EndSplineSet
EndChar

StartChar: cedilla
Encoding: 184 184 123
Width: 841
VWidth: 1398
GlyphClass: 2
Flags: W
LayerCount: 3
Fore
SplineSet
478 0 m 1,0,1
 516 -42 516 -42 534 -78 c 0,2,3
 552 -115 552 -115 552 -147 c 0,4,5
 552 -208 552 -208 511 -239 c 0,6,7
 470 -270 470 -270 390 -270 c 0,8,9
 360 -270 360 -270 329 -265.5 c 128,-1,10
 298 -261 298 -261 270 -253 c 1,11,-1
 270 -164 l 1,12,13
 297 -177 297 -177 318 -180 c 0,14,15
 342 -185 342 -185 376 -186 c 0,16,17
 415 -186 415 -186 437 -169 c 0,18,19
 457 -153 457 -153 457 -122 c 0,20,21
 457 -102 457 -102 442 -71 c 0,22,23
 426 -41 426 -41 397 0 c 1,24,-1
 478 0 l 1,0,1
EndSplineSet
EndChar

StartChar: uni00B9
Encoding: 185 185 124
Width: 841
VWidth: 1398
GlyphClass: 2
Flags: W
LayerCount: 3
Fore
SplineSet
247 531 m 1,0,-1
 387 531 l 1,1,-1
 387 948 l 1,2,-1
 235 920 l 1,3,-1
 235 999 l 1,4,-1
 391 1026 l 1,5,-1
 485 1026 l 1,6,-1
 485 531 l 1,7,-1
 625 531 l 1,8,-1
 625 456 l 1,9,-1
 247 456 l 1,10,-1
 247 531 l 1,0,-1
EndSplineSet
EndChar

StartChar: ordmasculine
Encoding: 186 186 125
Width: 841
VWidth: 1398
GlyphClass: 2
Flags: W
LayerCount: 3
Fore
SplineSet
421 958 m 0,0,1
 351 958 351 958 311 905 c 0,2,3
 272 852 272 852 272 756 c 0,4,5
 272 660 272 660 311 609 c 0,6,7
 351 556 351 556 421 556 c 0,8,9
 489 556 489 556 530 610 c 0,10,11
 570 664 570 664 569 756 c 0,12,13
 569 852 569 852 530 905 c 0,14,15
 491 958 491 958 421 958 c 0,0,1
420.5 1038 m 128,-1,17
 537 1038 537 1038 606 961 c 0,18,19
 675 884 675 884 675 756 c 0,20,21
 675 629 675 629 606 553 c 0,22,23
 538 477 538 477 421 477 c 0,24,25
 304 477 304 477 236 553 c 0,26,27
 167 629 167 629 167 756 c 0,28,29
 167 884 167 884 236 961 c 0,30,16
 304 1038 304 1038 420.5 1038 c 128,-1,17
188 404 m 1,31,-1
 650 404 l 1,32,-1
 650 320 l 1,33,-1
 188 320 l 1,34,-1
 188 404 l 1,31,-1
EndSplineSet
EndChar

StartChar: guillemotright
Encoding: 187 187 126
Width: 841
VWidth: 1398
GlyphClass: 2
Flags: W
LayerCount: 3
Fore
SplineSet
442 723 m 1,0,-1
 762 438 l 1,1,-1
 762 382 l 1,2,-1
 442 96 l 1,3,-1
 442 227 l 1,4,-1
 647 410 l 1,5,-1
 442 593 l 1,6,-1
 442 723 l 1,0,-1
132 723 m 1,7,-1
 452 438 l 1,8,-1
 452 382 l 1,9,-1
 132 96 l 1,10,-1
 132 227 l 1,11,-1
 337 410 l 1,12,-1
 132 593 l 1,13,-1
 132 723 l 1,7,-1
EndSplineSet
EndChar

StartChar: onequarter
Encoding: 188 188 127
Width: 841
VWidth: 1398
GlyphClass: 2
Flags: W
LayerCount: 3
Fore
SplineSet
556 386 m 1,0,-1
 667 386 l 1,1,-1
 667 18 l 1,2,-1
 746 18 l 1,3,-1
 746 -57 l 1,4,-1
 667 -57 l 1,5,-1
 667 -184 l 1,6,-1
 573 -184 l 1,7,-1
 573 -57 l 1,8,-1
 309 -57 l 1,9,-1
 309 25 l 1,10,-1
 556 386 l 1,0,-1
573 300 m 1,11,-1
 386 18 l 1,12,-1
 573 18 l 1,13,-1
 573 300 l 1,11,-1
71 638 m 1,14,-1
 211 638 l 1,15,-1
 211 1055 l 1,16,-1
 59 1027 l 1,17,-1
 59 1106 l 1,18,-1
 215 1133 l 1,19,-1
 309 1133 l 1,20,-1
 309 638 l 1,21,-1
 449 638 l 1,22,-1
 449 563 l 1,23,-1
 71 563 l 1,24,-1
 71 638 l 1,14,-1
35 344 m 1,25,-1
 18 418 l 1,26,-1
 742 597 l 1,27,-1
 760 523 l 1,28,-1
 35 344 l 1,25,-1
EndSplineSet
EndChar

StartChar: onehalf
Encoding: 189 189 128
Width: 841
VWidth: 1398
GlyphClass: 2
Flags: W
LayerCount: 3
Fore
SplineSet
71 638 m 1,0,-1
 211 638 l 1,1,-1
 211 1055 l 1,2,-1
 59 1027 l 1,3,-1
 59 1106 l 1,4,-1
 215 1133 l 1,5,-1
 309 1133 l 1,6,-1
 309 638 l 1,7,-1
 449 638 l 1,8,-1
 449 563 l 1,9,-1
 71 563 l 1,10,-1
 71 638 l 1,0,-1
35 344 m 1,11,-1
 18 418 l 1,12,-1
 742 597 l 1,13,-1
 760 523 l 1,14,-1
 35 344 l 1,11,-1
467 -106 m 1,15,-1
 747 -106 l 1,16,-1
 747 -184 l 1,17,-1
 357 -184 l 1,18,-1
 357 -109 l 1,19,-1
 515 45 l 2,20,21
 584 112 584 112 612 153 c 0,22,23
 639 196 639 196 639 229 c 0,24,25
 639 271 639 271 605 297 c 128,-1,26
 571 323 571 323 515 323 c 0,27,28
 482 323 482 323 442.5 310.5 c 128,-1,29
 403 298 403 298 361 274 c 1,30,-1
 361 359 l 1,31,32
 405 378 405 378 446 388 c 0,33,34
 490 398 490 398 528 397 c 0,35,36
 625 397 625 397 684 352 c 0,37,38
 743 306 743 306 743 233 c 0,39,40
 743 193 743 193 717 154 c 0,41,42
 692 113 692 113 611 33 c 2,43,-1
 467 -106 l 1,15,-1
EndSplineSet
EndChar

StartChar: threequarters
Encoding: 190 190 129
Width: 841
VWidth: 1398
GlyphClass: 2
Flags: W
LayerCount: 3
Fore
SplineSet
556 386 m 1,0,-1
 667 386 l 1,1,-1
 667 18 l 1,2,-1
 746 18 l 1,3,-1
 746 -57 l 1,4,-1
 667 -57 l 1,5,-1
 667 -184 l 1,6,-1
 573 -184 l 1,7,-1
 573 -57 l 1,8,-1
 309 -57 l 1,9,-1
 309 25 l 1,10,-1
 556 386 l 1,0,-1
573 300 m 1,11,-1
 386 18 l 1,12,-1
 573 18 l 1,13,-1
 573 300 l 1,11,-1
344 871 m 1,14,15
 407 857 407 857 442 820 c 0,16,17
 475 782 475 782 476 728 c 0,18,19
 476 644 476 644 411 598 c 0,20,21
 347 552 347 552 225 552 c 0,22,23
 182 552 182 552 147 560 c 0,24,25
 114 565 114 565 68 580 c 1,26,-1
 68 663 l 1,27,28
 112 646 112 646 153 636 c 0,29,30
 191 627 191 627 223 627 c 0,31,32
 291 627 291 627 332 654 c 0,33,34
 372 683 372 683 372 728 c 0,35,36
 372 779 372 779 335 805 c 0,37,38
 297 831 297 831 223 831 c 2,39,-1
 177 831 l 1,40,-1
 177 905 l 1,41,-1
 228 905 l 2,42,43
 290 905 290 905 325 926 c 0,44,45
 358 949 358 949 358 989 c 0,46,47
 358 1027 358 1027 326 1049 c 0,48,49
 292 1070 292 1070 233 1070 c 0,50,51
 203 1070 203 1070 165 1062 c 0,52,53
 127 1054 127 1054 87 1038 c 1,54,-1
 87 1120 l 1,55,56
 137 1132 137 1132 173 1138 c 0,57,58
 214 1144 214 1144 248 1144 c 0,59,60
 346 1144 346 1144 404 1104 c 0,61,62
 461 1064 461 1064 461 996 c 0,63,64
 461 948 461 948 431 916 c 0,65,66
 403 885 403 885 344 871 c 1,14,15
35 344 m 1,67,-1
 18 418 l 1,68,-1
 742 597 l 1,69,-1
 760 523 l 1,70,-1
 35 344 l 1,67,-1
EndSplineSet
EndChar

StartChar: divide
Encoding: 247 247 134
Width: 841
VWidth: 1398
GlyphClass: 2
Flags: W
LayerCount: 3
Fore
SplineSet
337 270 m 1,0,-1
 504 270 l 1,1,-1
 504 102 l 1,2,-1
 337 102 l 1,3,-1
 337 270 l 1,0,-1
337 775 m 1,4,-1
 504 775 l 1,5,-1
 504 607 l 1,6,-1
 337 607 l 1,7,-1
 337 775 l 1,4,-1
60 496 m 1,8,-1
 782 496 l 1,9,-1
 782 380 l 1,10,-1
 60 380 l 1,11,-1
 60 496 l 1,8,-1
EndSplineSet
EndChar

StartChar: cacute
Encoding: 263 263 138
Width: 376
VWidth: 0
GlyphClass: 3
Flags: W
LayerCount: 3
Fore
SplineSet
317 -74 m 1,0,-1
 261 23 l 1,1,2
 428 136 428 136 396 376 c 0,3,4
 372 558 372 558 326 606 c 0,5,6
 220 712 220 712 141 650 c 0,7,8
 116 631 116 631 91 538 c 1,9,-1
 -18 612 l 1,10,11
 0 710 0 710 80 758 c 0,12,13
 247 859 247 859 400 689 c 0,14,15
 491 587 491 587 520 378 c 0,16,17
 559 91 559 91 317 -74 c 1,0,-1
EndSplineSet
LCarets2: 1 0
EndChar

StartChar: ccaron
Encoding: 269 269 140
Width: 45
VWidth: 2095
GlyphClass: 3
Flags: W
LayerCount: 3
Fore
SplineSet
1 -68 m 1,0,1
 -31 -101 -31 -101 -64 -133 c 0,2,3
 -145 -214 -145 -214 -142 -255 c 0,0,0
 -138 -331 -138 -331 -77 -335 c 0,4,5
 1 -340 1 -340 1 -220 c 0,6,7
 1 -141 1 -141 1 -68 c 1,0,1
2 44 m 1,10,11
 2 44 2 44 82 31 c 5,14,-1
 82 -222 l 2,15,16
 82 -418 82 -418 -75 -416 c 0,17,18
 -147 -415 -147 -415 -189 -356 c 0,0,0
 -259 -256 -259 -256 -187 -149 c 0,0,0
 -172 -126 -172 -126 -128 -81 c 0,19,20
 -81 -34 -81 -34 2 44 c 1,10,11
41 16 m 25,0,-1
 41 44 l 25,1,-1
 55 30 l 25,2,-1
 28 30 l 1049,3,-1
41 -11 m 128,-1,5
 23 -11 23 -11 12 0 c 0,6,7
 0 12 0 12 1 30 c 0,7,8
 1 50 1 50 12 61 c 0,9,10
 22 71 22 71 41.5 71 c 128,-1,11
 61 71 61 71 71 61 c 0,12,13
 83 50 83 50 82 30 c 0,14,15
 82 12 82 12 70 0 c 0,16,17
 59 -11 59 -11 41 -11 c 128,-1,5
41 13 m 25,0,-1
 41 40 l 25,1,-1
 55 27 l 25,2,-1
 28 27 l 1049,3,-1
41 -14 m 128,-1,5
 23 -14 23 -14 12 -3 c 0,6,7
 0 9 0 9 1 27 c 0,7,8
 1 47 1 47 12 58 c 0,9,10
 22 68 22 68 41.5 68 c 128,-1,11
 61 68 61 68 71 58 c 0,12,13
 83 47 83 47 82 27 c 0,14,15
 82 9 82 9 70 -3 c 0,16,17
 59 -14 59 -14 41 -14 c 128,-1,5
EndSplineSet
Refer: 425 57354 N 1 0 0 1 0 0 2
LCarets2: 1 0
EndChar

StartChar: dcaron
Encoding: 271 271 142
Width: 40
VWidth: 2095
GlyphClass: 3
Flags: W
LayerCount: 3
Fore
SplineSet
1 -70 m 1,0,1
 -31 -103 -31 -103 -64 -136 c 0,2,3
 -145 -217 -145 -217 -142 -257 c 0,0,0
 -138 -333 -138 -333 -77 -337 c 0,4,5
 1 -342 1 -342 1 -223 c 0,6,7
 1 -143 1 -143 1 -70 c 1,0,1
2 41 m 1,10,11
 2 41 2 41 82 28 c 5,14,-1
 82 -225 l 2,15,16
 82 -421 82 -421 -75 -419 c 0,17,18
 -147 -418 -147 -418 -189 -358 c 0,0,0
 -259 -258 -259 -258 -187 -152 c 0,0,0
 -172 -129 -172 -129 -128 -84 c 0,19,20
 -81 -37 -81 -37 2 41 c 1,10,11
41 14 m 25,0,-1
 41 41 l 25,1,-1
 55 27 l 25,2,-1
 28 27 l 1049,3,-1
41 -14 m 128,-1,5
 23 -14 23 -14 12 -3 c 0,6,7
 0 9 0 9 1 27 c 0,7,8
 1 47 1 47 12 59 c 0,9,10
 22 69 22 69 41.5 68.5 c 128,-1,11
 61 68 61 68 71 59 c 0,12,13
 83 48 83 48 82 27 c 0,14,15
 82 9 82 9 70 -3 c 0,16,17
 59 -14 59 -14 41 -14 c 128,-1,5
41 10 m 25,0,-1
 41 38 l 25,1,-1
 55 24 l 25,2,-1
 28 24 l 1049,3,-1
41 -17 m 128,-1,5
 23 -17 23 -17 12 -6 c 0,6,7
 0 6 0 6 1 24 c 0,7,8
 1 44 1 44 12 55 c 0,9,10
 22 65 22 65 41.5 65 c 128,-1,11
 61 65 61 65 71 55 c 0,12,13
 83 44 83 44 82 24 c 0,14,15
 82 6 82 6 70 -6 c 0,16,17
 59 -17 59 -17 41 -17 c 128,-1,5
EndSplineSet
Refer: 281 57352 N 1 0 0 1 0 0 2
LCarets2: 1 19
EndChar

StartChar: lslash
Encoding: 322 322 146
Width: 53
VWidth: 1398
GlyphClass: 2
Flags: W
LayerCount: 3
Fore
SplineSet
149 30 m 1,0,-1
 -46 30 l 1,1,2
 -40 35 -40 35 -30 43 c 128,-1,3
 -20 51 -20 51 1 68 c 128,-1,4
 22 85 22 85 35.5 97 c 128,-1,5
 49 109 49 109 48 109 c 1,6,-1
 149 30 l 1,0,-1
51 91 m 0,7,8
 92 91 92 91 126 59 c 0,9,10
 165 24 165 24 165 -34 c 0,11,12
 165 -63 165 -63 153.5 -89 c 128,-1,13
 142 -115 142 -115 127 -127 c 0,14,15
 113 -138 113 -138 104.5 -143.5 c 128,-1,16
 96 -149 96 -149 81.5 -154 c 128,-1,17
 67 -159 67 -159 51 -159 c 0,18,19
 13 -159 13 -159 -25 -127 c 0,20,21
 -41 -113 -41 -113 -51.5 -88 c 128,-1,22
 -62 -63 -62 -63 -62 -34 c 0,23,24
 -62 25 -62 25 -25 59 c 0,25,26
 11 91 11 91 51 91 c 0,7,8
EndSplineSet
EndChar

StartChar: sacute
Encoding: 347 347 150
Width: 367
VWidth: 0
GlyphClass: 3
Flags: W
LayerCount: 3
Fore
SplineSet
277 31 m 1,0,1
 318 31 318 31 359 31 c 1,4,5
 359 22 359 22 359 22 c 1,6,7
 358 -274 358 -274 125 -508 c 0,8,9
 120 -513 120 -513 115 -518 c 1,10,-1
 57 -460 l 1,11,12
 59 -459 59 -459 67 -450 c 0,13,14
 277 -241 277 -241 277 21 c 1,15,16
 277 31 277 31 277 31 c 1,0,1
96 -479 m 25,0,-1
 76 -498 l 25,1,-1
 76 -479 l 25,2,-1
 96 -498 l 1049,3,-1
115 -460 m 128,-1,5
 128 -473 128 -473 128 -488 c 0,6,7
 128 -504 128 -504 115 -518 c 0,7,8
 101 -532 101 -532 85 -532 c 0,9,10
 71 -532 71 -532 57 -518 c 128,-1,11
 43 -504 43 -504 43 -490 c 0,12,13
 43 -474 43 -474 57 -460 c 0,14,15
 70 -447 70 -447 87 -447 c 0,16,17
 102 -447 102 -447 115 -460 c 128,-1,5
332 31 m 25,0,-1
 305 31 l 25,1,-1
 318 45 l 25,2,-1
 318 17 l 1049,3,-1
359 31 m 128,-1,5
 359 13 359 13 348 2 c 0,6,7
 336 -10 336 -10 318 -10 c 0,7,8
 298 -10 298 -10 287 2 c 0,9,10
 277 12 277 12 277 31 c 128,-1,11
 277 50 277 50 287 60 c 0,12,13
 298 72 298 72 318 72 c 0,14,15
 336 72 336 72 348 60 c 0,16,17
 359 49 359 49 359 31 c 128,-1,5
EndSplineSet
Refer: 424 57353 N 1 0 0 1 207 117 2
Refer: 424 57353 N 1 0 0 1 207 0 2
EndChar

StartChar: scaron
Encoding: 353 353 152
Width: 176
VWidth: 2095
GlyphClass: 3
Flags: W
LayerCount: 3
Fore
SplineSet
-69 87 m 1,0,1
 -49 86 -49 86 -29 86 c 1,2,3
 -9 86 -9 86 12 86 c 1,4,5
 12 -191 12 -191 12 -311 c 1,6,7
 1 -507 1 -507 -148 -498 c 0,8,9
 -243 -492 -243 -492 -275 -418 c 0,0,0
 -341 -266 -341 -266 -251 -119 c 0,10,11
 -197 -30 -197 -30 -69 87 c 1,0,1
-70 -29 m 1,13,14
 -145 -103 -145 -103 -177 -157 c 0,15,16
 -232 -252 -232 -252 -210 -350 c 0,0,0
 -196 -414 -196 -414 -148 -414 c 0,17,18
 -70 -414 -70 -414 -70 -311 c 0,19,20
 -70 -230 -70 -230 -70 -29 c 1,13,14
-29 59 m 25,0,-1
 -29 86 l 25,1,-1
 -16 72 l 25,2,-1
 -43 72 l 1049,3,-1
-30 31 m 128,-1,5
 -48 31 -48 31 -59 42 c 0,6,7
 -71 54 -71 54 -70 72 c 0,7,8
 -70 92 -70 92 -59 104 c 0,9,10
 -49 114 -49 114 -29.5 113.5 c 128,-1,11
 -10 113 -10 113 -0 104 c 0,12,13
 12 93 12 93 12 72 c 0,14,15
 12 54 12 54 -1 42 c 0,16,17
 -12 31 -12 31 -30 31 c 128,-1,5
-29 61 m 25,0,-1
 -29 89 l 25,1,-1
 -16 75 l 25,2,-1
 -43 75 l 1049,3,-1
-30 34 m 128,-1,5
 -48 34 -48 34 -59 45 c 0,6,7
 -71 57 -71 57 -70 75 c 0,7,8
 -70 95 -70 95 -59 106 c 0,9,10
 -49 116 -49 116 -29.5 116 c 128,-1,11
 -10 116 -10 116 -0 106 c 0,12,13
 12 95 12 95 12 75 c 0,14,15
 12 57 12 57 -1 45 c 0,16,17
 -12 34 -12 34 -30 34 c 128,-1,5
EndSplineSet
Refer: 281 57352 S 1 0 0 1 165 -59 2
LCarets2: 1 143
EndChar

StartChar: zacute
Encoding: 378 378 154
Width: 204
VWidth: 0
GlyphClass: 3
Flags: W
LayerCount: 3
Fore
SplineSet
-2 616 m 1,0,-1
 -2 752 l 1,1,2
 33 742 33 742 65.5 725.5 c 128,-1,3
 98 709 98 709 123.5 688.5 c 128,-1,4
 149 668 149 668 170.5 648 c 128,-1,5
 192 628 192 628 210 605 c 128,-1,6
 228 582 228 582 238.5 567 c 128,-1,7
 249 552 249 552 259.5 535.5 c 128,-1,8
 270 519 270 519 272 517 c 0,9,10
 299 479 299 479 310 393 c 128,-1,11
 321 307 321 307 311.5 212.5 c 128,-1,12
 302 118 302 118 274 64 c 0,13,14
 258 33 258 33 249.5 17 c 128,-1,15
 241 1 241 1 219 -36 c 128,-1,16
 197 -73 197 -73 175.5 -98.5 c 128,-1,17
 154 -124 154 -124 124.5 -156.5 c 128,-1,18
 95 -189 95 -189 58.5 -215.5 c 128,-1,19
 22 -242 22 -242 -18 -261 c 1,20,-1
 -70 -175 l 1,21,22
 -23 -157 -23 -157 19.5 -122 c 128,-1,23
 62 -87 62 -87 93.5 -45 c 128,-1,24
 125 -3 125 -3 147 38 c 128,-1,25
 169 79 169 79 183 117 c 0,26,27
 259 330 259 330 173 483 c 0,28,29
 103 609 103 609 -2 616 c 1,0,-1
EndSplineSet
EndChar

StartChar: zcaron
Encoding: 382 382 158
Width: 510
VWidth: 2095
GlyphClass: 2
Flags: W
LayerCount: 3
Fore
SplineSet
216 -14 m 1,0,1
 184 -47 184 -47 152 -80 c 0,2,3
 71 -161 71 -161 74 -201 c 0,0,0
 78 -277 78 -277 138 -281 c 0,4,5
 216 -286 216 -286 216 -167 c 0,6,7
 216 -87 216 -87 216 -14 c 1,0,1
218 97 m 1,10,11
 218 97 218 97 298 84 c 5,14,-1
 298 -169 l 2,15,16
 298 -365 298 -365 140 -363 c 0,17,18
 68 -362 68 -362 26 -302 c 0,0,0
 -44 -202 -44 -202 29 -96 c 0,0,0
 44 -73 44 -73 88 -28 c 0,19,20
 135 19 135 19 218 97 c 1,10,11
257 70 m 25,0,-1
 257 97 l 25,1,-1
 271 83 l 25,2,-1
 244 83 l 1049,3,-1
257 42 m 128,-1,5
 239 42 239 42 228 53 c 0,6,7
 216 65 216 65 216 83 c 0,7,8
 216 103 216 103 228 115 c 0,9,10
 238 125 238 125 257 124.5 c 128,-1,11
 276 124 276 124 287 115 c 0,12,13
 299 104 299 104 298 83 c 0,14,15
 298 65 298 65 286 53 c 0,16,17
 275 42 275 42 257 42 c 128,-1,5
257 66 m 25,0,-1
 257 94 l 25,1,-1
 271 80 l 25,2,-1
 244 80 l 1049,3,-1
257 39 m 128,-1,5
 239 39 239 39 228 50 c 0,6,7
 216 62 216 62 216 80 c 0,7,8
 216 100 216 100 228 111 c 0,9,10
 238 121 238 121 257 121 c 128,-1,11
 276 121 276 121 287 111 c 0,12,13
 299 100 299 100 298 80 c 0,14,15
 298 62 298 62 286 50 c 0,16,17
 275 39 275 39 257 39 c 128,-1,5
EndSplineSet
Refer: 281 57352 S 1 0 0 1 216 -61 2
LCarets2: 1 374
EndChar

StartChar: uni02B9
Encoding: 697 697 161
Width: 841
VWidth: 1398
GlyphClass: 2
Flags: W
LayerCount: 3
Fore
SplineSet
336 778 m 1,0,-1
 380 1118 l 1,1,-1
 510 1118 l 1,2,-1
 435 778 l 1,3,-1
 336 778 l 1,0,-1
EndSplineSet
EndChar

StartChar: uni02BB
Encoding: 699 699 162
Width: 841
VWidth: 1398
GlyphClass: 2
Flags: W
LayerCount: 3
Fore
SplineSet
488 660 m 1,0,-1
 316 660 l 1,1,-1
 316 801 l 1,2,-1
 450 1062 l 1,3,-1
 555 1062 l 1,4,-1
 488 801 l 1,5,-1
 488 660 l 1,0,-1
EndSplineSet
EndChar

StartChar: afii57929
Encoding: 700 700 163
Width: 841
VWidth: 1398
GlyphClass: 2
Flags: W
LayerCount: 3
Fore
SplineSet
383 1062 m 1,0,-1
 555 1062 l 1,1,-1
 555 922 l 1,2,-1
 421 660 l 1,3,-1
 316 660 l 1,4,-1
 383 922 l 1,5,-1
 383 1062 l 1,0,-1
EndSplineSet
EndChar

StartChar: afii64937
Encoding: 701 701 164
Width: 841
VWidth: 1398
GlyphClass: 2
Flags: W
LayerCount: 3
Fore
SplineSet
339 1007 m 2,0,-1
 339 1180 l 1,1,-1
 503 1180 l 1,2,-1
 503 1007 l 1,3,-1
 427 1007 l 1,4,5
 427 916 427 916 503 915 c 1,6,-1
 503 831 l 1,7,8
 339 832 339 832 339 1007 c 2,0,-1
EndSplineSet
EndChar

StartChar: uni02BE
Encoding: 702 702 165
Width: 841
VWidth: 1398
GlyphClass: 2
Flags: W
LayerCount: 3
Fore
SplineSet
328 687 m 1,0,-1
 328 771 l 1,1,2
 372 771 372 771 401.5 801 c 128,-1,3
 431 831 431 831 431 875 c 0,4,5
 431 918 431 918 401 948 c 128,-1,6
 371 978 371 978 328 978 c 1,7,-1
 328 1062 l 1,8,9
 406 1062 406 1062 460.5 1007.5 c 128,-1,10
 515 953 515 953 515 875 c 0,11,12
 515 796 515 796 460.5 741.5 c 128,-1,13
 406 687 406 687 328 687 c 1,0,-1
EndSplineSet
EndChar

StartChar: uni02BF
Encoding: 703 703 166
Width: 841
VWidth: 1398
GlyphClass: 2
Flags: W
LayerCount: 3
Fore
SplineSet
515 687 m 1,0,1
 436 687 436 687 381 742 c 0,2,3
 328 796 328 796 328 875 c 0,4,5
 328 953 328 953 381 1008 c 0,6,7
 436 1063 436 1063 515 1062 c 1,8,-1
 515 978 l 1,9,10
 471 978 471 978 441 948 c 128,-1,11
 411 918 411 918 411 875 c 0,12,13
 411 831 411 831 441 801 c 128,-1,14
 471 771 471 771 515 771 c 1,15,-1
 515 687 l 1,0,1
EndSplineSet
EndChar

StartChar: uni02C0
Encoding: 704 704 167
Width: 841
VWidth: 1398
GlyphClass: 2
Flags: W
LayerCount: 3
Fore
SplineSet
347 926 m 1,0,-1
 375 926 l 2,1,2
 458 926 458 926 494 970 c 0,3,4
 519 999 519 999 519 1036 c 0,5,6
 519 1087 519 1087 494 1112 c 0,7,8
 452 1156 452 1156 375 1156 c 0,9,10
 340 1156 340 1156 307 1148 c 256,11,12
 274 1140 274 1140 239 1123 c 1,13,-1
 239 1189 l 1,14,15
 273 1203 273 1203 307 1208 c 0,16,17
 340 1215 340 1215 378 1215 c 0,18,19
 496 1215 496 1215 556 1155 c 0,20,21
 603 1107 603 1107 603 1036 c 0,22,23
 603 972 603 972 556 928 c 0,24,25
 508 882 508 882 435 870 c 1,26,-1
 435 621 l 1,27,-1
 348 621 l 1,28,-1
 347 926 l 1,0,-1
EndSplineSet
EndChar

StartChar: uni02C1
Encoding: 705 705 168
Width: 841
VWidth: 1398
GlyphClass: 2
Flags: W
LayerCount: 3
Fore
SplineSet
494 926 m 1,0,-1
 494 621 l 1,1,-1
 407 621 l 1,2,-1
 407 870 l 1,3,4
 333 882 333 882 285 928 c 0,5,6
 239 972 239 972 239 1036 c 0,7,8
 239 1107 239 1107 287 1155 c 0,9,10
 345 1215 345 1215 464 1215 c 0,11,12
 502 1215 502 1215 535 1208 c 0,13,14
 568 1202 568 1202 603 1189 c 1,15,-1
 603 1123 l 1,16,17
 570 1139 570 1139 535 1148 c 256,18,19
 501 1156 501 1156 467 1156 c 0,20,21
 389 1156 389 1156 347 1112 c 0,22,23
 322 1087 322 1087 323 1036 c 0,24,25
 323 998 323 998 347 970 c 0,26,27
 384 926 384 926 467 926 c 2,28,-1
 494 926 l 1,0,-1
EndSplineSet
EndChar

StartChar: circumflex
Encoding: 710 710 169
Width: 436
VWidth: 1398
GlyphClass: 2
Flags: W
LayerCount: 3
Fore
SplineSet
182 1658 m 5,0,-1
 253 1658 l 5,1,-1
 419 1428 l 5,2,-1
 348 1387 l 5,3,-1
 218 1572 l 5,4,-1
 78 1380 l 5,5,-1
 7 1421 l 5,6,-1
 182 1658 l 5,0,-1
EndSplineSet
Refer: 564 57346 S 1 0 0 1 177 1593 2
Refer: 564 57346 S 0.866025 0.5 -0.5 0.866025 369 1352 2
Refer: 564 57346 S 0.866025 -0.5 0.5 0.866025 -14 1386 2
EndChar

StartChar: caron
Encoding: 711 711 170
Width: 841
VWidth: 1398
GlyphClass: 2
Flags: W
LayerCount: 3
Fore
SplineSet
371 862 m 1,0,-1
 203 1118 l 1,1,-1
 298 1118 l 1,2,-1
 421 951 l 1,3,-1
 544 1118 l 1,4,-1
 639 1118 l 1,5,-1
 471 862 l 1,6,-1
 371 862 l 1,0,-1
EndSplineSet
EndChar

StartChar: uni02C8
Encoding: 712 712 171
Width: 841
VWidth: 1398
GlyphClass: 2
Flags: W
LayerCount: 3
Fore
SplineSet
467 1061 m 1,0,-1
 467 682 l 1,1,-1
 374 682 l 1,2,-1
 374 1061 l 1,3,-1
 467 1061 l 1,0,-1
EndSplineSet
EndChar

StartChar: uni02C9
Encoding: 713 713 172
Width: 841
VWidth: 1398
GlyphClass: 2
Flags: W
LayerCount: 3
Fore
SplineSet
216 1042 m 1,0,-1
 625 1042 l 1,1,-1
 625 941 l 1,2,-1
 216 941 l 1,3,-1
 216 1042 l 1,0,-1
EndSplineSet
EndChar

StartChar: uni02CC
Encoding: 716 716 173
Width: 841
VWidth: 1398
GlyphClass: 2
Flags: W
LayerCount: 3
Fore
SplineSet
467 172 m 1,0,-1
 467 -207 l 1,1,-1
 374 -207 l 1,2,-1
 374 172 l 1,3,-1
 467 172 l 1,0,-1
EndSplineSet
EndChar

StartChar: uni02CD
Encoding: 717 717 174
Width: 841
VWidth: 1398
GlyphClass: 2
Flags: W
LayerCount: 3
Fore
SplineSet
217 -143 m 1,0,-1
 625 -143 l 1,1,-1
 625 -244 l 1,2,-1
 217 -244 l 1,3,-1
 217 -143 l 1,0,-1
EndSplineSet
EndChar

StartChar: uni02D0
Encoding: 720 720 175
Width: 841
VWidth: 1398
GlyphClass: 2
Flags: W
LayerCount: 3
Fore
SplineSet
421 498 m 1,0,-1
 299 723 l 1,1,-1
 543 723 l 1,2,-1
 421 498 l 1,0,-1
421 225 m 1,3,-1
 543 0 l 1,4,-1
 299 0 l 1,5,-1
 421 225 l 1,3,-1
EndSplineSet
EndChar

StartChar: uni02D1
Encoding: 721 721 176
Width: 841
VWidth: 1398
GlyphClass: 2
Flags: W
LayerCount: 3
Fore
SplineSet
421 498 m 1,0,-1
 299 723 l 1,1,-1
 543 723 l 1,2,-1
 421 498 l 1,0,-1
EndSplineSet
EndChar

StartChar: uni02D2
Encoding: 722 722 177
Width: 841
VWidth: 1398
GlyphClass: 2
Flags: W
LayerCount: 3
Fore
SplineSet
328 348 m 5,0,-1
 328 432 l 5,1,2
 372 432 372 432 401.5 462 c 132,-1,3
 431 492 431 492 431 536 c 4,4,5
 431 579 431 579 401 609 c 132,-1,6
 371 639 371 639 328 639 c 5,7,-1
 328 723 l 5,8,9
 406 723 406 723 460.5 668.5 c 132,-1,10
 515 614 515 614 515 536 c 4,11,12
 515 457 515 457 460.5 402.5 c 132,-1,13
 406 348 406 348 328 348 c 5,0,-1
EndSplineSet
EndChar

StartChar: uni02D3
Encoding: 723 723 178
Width: 841
VWidth: 1398
GlyphClass: 2
Flags: W
LayerCount: 3
Fore
SplineSet
515 348 m 1,0,1
 436 348 436 348 381 403 c 0,2,3
 328 458 328 458 328 536 c 256,4,5
 328 615 328 615 381 668 c 0,6,7
 436 723 436 723 515 723 c 1,8,-1
 515 639 l 1,9,10
 471 639 471 639 441 609 c 128,-1,11
 411 579 411 579 411 536 c 0,12,13
 411 492 411 492 441 462 c 128,-1,14
 471 432 471 432 515 432 c 1,15,-1
 515 348 l 1,0,1
EndSplineSet
EndChar

StartChar: uni02D6
Encoding: 726 726 179
Width: 841
VWidth: 1398
GlyphClass: 2
Flags: W
LayerCount: 3
Fore
SplineSet
370 429 m 1,0,-1
 370 582 l 1,1,-1
 472 582 l 1,2,-1
 472 429 l 1,3,-1
 625 429 l 1,4,-1
 625 327 l 1,5,-1
 472 327 l 1,6,-1
 472 174 l 1,7,-1
 370 174 l 1,8,-1
 370 327 l 1,9,-1
 217 327 l 1,10,-1
 217 429 l 1,11,-1
 370 429 l 1,0,-1
EndSplineSet
EndChar

StartChar: uni02D7
Encoding: 727 727 180
Width: 841
VWidth: 1398
GlyphClass: 2
Flags: W
LayerCount: 3
Fore
SplineSet
575 327 m 1,0,-1
 268 327 l 1,1,-1
 268 429 l 1,2,-1
 575 429 l 1,3,-1
 575 327 l 1,0,-1
EndSplineSet
EndChar

StartChar: breve
Encoding: 728 728 181
Width: 841
VWidth: 1398
GlyphClass: 2
Flags: W
LayerCount: 3
Fore
SplineSet
207 1098 m 1,0,-1
 288 1098 l 1,1,2
 295 1047 295 1047 328 1021 c 0,3,4
 360 996 360 996 421 995 c 0,5,6
 480 995 480 995 511 1021 c 0,7,8
 544 1047 544 1047 554 1098 c 1,9,-1
 635 1098 l 1,10,11
 627 1000 627 1000 573 951 c 0,12,13
 518 902 518 902 420 902 c 128,-1,14
 322 902 322 902 268.5 951 c 128,-1,15
 215 1000 215 1000 207 1098 c 1,0,-1
EndSplineSet
EndChar

StartChar: dotaccent
Encoding: 729 729 182
Width: 841
VWidth: 1398
GlyphClass: 2
Flags: W
LayerCount: 3
Fore
SplineSet
350 1059 m 1,0,-1
 490 1059 l 1,1,-1
 490 920 l 1,2,-1
 350 920 l 1,3,-1
 350 1059 l 1,0,-1
EndSplineSet
EndChar

StartChar: ring
Encoding: 730 730 183
Width: 841
VWidth: 1398
GlyphClass: 2
Flags: W
LayerCount: 3
Fore
SplineSet
608 1040 m 0,0,1
 608 962 608 962 554 907 c 0,2,3
 498 852 498 852 421 853 c 0,4,5
 342 853 342 853 288 907 c 0,6,7
 233 961 233 961 233 1040 c 0,8,9
 233 1120 233 1120 288 1173 c 1,10,11
 341 1228 341 1228 421 1227 c 0,12,13
 500 1227 500 1227 554 1173 c 0,14,15
 608 1119 608 1119 608 1040 c 0,0,1
524 1040 m 0,16,17
 524 1083 524 1083 494 1113 c 128,-1,18
 464 1143 464 1143 421 1143 c 0,19,20
 379 1143 379 1143 347 1114 c 1,21,22
 318 1083 318 1083 317 1040 c 0,23,24
 317 996 317 996 347 967 c 0,25,26
 377 937 377 937 420.5 937 c 128,-1,27
 464 937 464 937 494 966.5 c 128,-1,28
 524 996 524 996 524 1040 c 0,16,17
EndSplineSet
EndChar

StartChar: ogonek
Encoding: 731 731 184
Width: 841
VWidth: 1398
GlyphClass: 2
Flags: W
LayerCount: 3
Fore
SplineSet
360 0 m 1,0,-1
 442 0 l 1,1,2
 413 -40 413 -40 396 -72 c 0,3,4
 382 -101 382 -101 382 -123 c 0,5,6
 382 -154 382 -154 400 -170 c 0,7,8
 420 -186 420 -186 456 -186 c 0,9,10
 480 -186 480 -186 499 -180 c 0,11,12
 517 -177 517 -177 541 -165 c 1,13,-1
 541 -256 l 1,14,15
 516 -264 516 -264 492 -266 c 0,16,17
 466 -269 466 -269 449 -270 c 0,18,19
 366 -270 366 -270 326 -240 c 0,20,21
 286 -209 286 -209 287 -147 c 0,22,23
 287 -116 287 -116 304 -78 c 0,24,25
 325 -40 325 -40 360 0 c 1,0,-1
EndSplineSet
EndChar

StartChar: tilde
Encoding: 732 732 185
Width: 841
VWidth: 1398
GlyphClass: 2
Flags: W
LayerCount: 3
Fore
SplineSet
418 935 m 2,0,-1
 379 973 l 2,1,2
 365 986 365 986 354 993 c 0,3,4
 342 1000 342 1000 332 999 c 0,5,6
 306 999 306 999 294 974 c 0,7,8
 281 947 281 947 281 894 c 1,9,-1
 196 894 l 1,10,11
 197 986 197 986 231 1036 c 0,12,13
 266 1087 266 1087 328 1086 c 0,14,15
 354 1086 354 1086 377 1077 c 0,16,17
 397 1068 397 1068 424 1044 c 2,18,-1
 463 1007 l 2,19,20
 479 992 479 992 489 987 c 0,21,22
 499 980 499 980 509 980 c 0,23,24
 536 980 536 980 547 1006 c 0,25,26
 559 1031 559 1031 560 1086 c 1,27,-1
 646 1086 l 1,28,29
 645 994 645 994 610 944 c 0,30,31
 575 893 575 893 513 894 c 0,32,33
 487 894 487 894 465 903 c 0,34,35
 445 912 445 912 418 935 c 2,0,-1
EndSplineSet
EndChar

StartChar: hungarumlaut
Encoding: 733 733 186
Width: 841
VWidth: 1398
GlyphClass: 2
Flags: W
LayerCount: 3
Fore
SplineSet
365 1118 m 1,0,-1
 481 1118 l 1,1,-1
 328 862 l 1,2,-1
 235 862 l 1,3,-1
 365 1118 l 1,0,-1
593 1118 m 1,4,-1
 715 1118 l 1,5,-1
 545 862 l 1,6,-1
 453 862 l 1,7,-1
 593 1118 l 1,4,-1
EndSplineSet
EndChar

StartChar: uni02DE
Encoding: 734 734 187
Width: 841
VWidth: 1398
GlyphClass: 2
Flags: W
LayerCount: 3
Fore
SplineSet
-240 593 m 1,0,-1
 183 705 l 1,1,-1
 309 705 l 1,2,-1
 309 603 l 2,3,4
 309 499 309 499 335 466 c 0,5,6
 361 433 361 433 432 433 c 2,7,-1
 603 433 l 1,8,-1
 603 326 l 1,9,-1
 418 326 l 2,10,11
 299 326 299 326 239 392 c 0,12,13
 183 453 183 453 183 590 c 1,14,-1
 -239 479 l 1,15,-1
 -240 593 l 1,0,-1
EndSplineSet
EndChar

StartChar: uni02E0
Encoding: 736 736 188
Width: 841
VWidth: 1398
GlyphClass: 2
Flags: W
LayerCount: 3
Fore
SplineSet
473 674 m 1,0,1
 595 505 595 505 595 382 c 0,2,3
 595 294 595 294 429 291 c 0,4,5
 248 289 248 289 247 382 c 0,6,7
 246 512 246 512 371 677 c 1,8,-1
 200 884 l 1,9,-1
 293 884 l 1,10,-1
 423 731 l 1,11,-1
 549 884 l 1,12,-1
 642 884 l 1,13,-1
 473 674 l 1,0,1
421 629 m 1,14,15
 326 511 326 511 328 406 c 0,16,17
 329 353 329 353 421 354 c 0,18,19
 508 354 508 354 508 406 c 0,20,21
 509 501 509 501 421 629 c 1,14,15
EndSplineSet
EndChar

StartChar: uni02E1
Encoding: 737 737 189
Width: 841
VWidth: 1398
GlyphClass: 2
Flags: W
LayerCount: 3
Fore
SplineSet
440 611 m 2,0,1
 440 563 440 563 459 539 c 0,2,3
 479 515 479 515 516 515 c 2,4,-1
 609 515 l 1,5,-1
 609 456 l 1,6,-1
 509 456 l 2,7,8
 438 456 438 456 399 497 c 0,9,10
 360 537 360 537 360 611 c 2,11,-1
 360 1000 l 1,12,-1
 233 1000 l 1,13,-1
 233 1055 l 1,14,-1
 440 1055 l 1,15,-1
 440 611 l 2,0,1
EndSplineSet
EndChar

StartChar: uni02E2
Encoding: 738 738 190
Width: 841
VWidth: 1398
GlyphClass: 2
Flags: W
LayerCount: 3
Fore
SplineSet
579 883 m 1,0,-1
 579 816 l 1,1,2
 545 831 545 831 509 839 c 0,3,4
 471 847 471 847 435 847 c 0,5,6
 376 847 376 847 346 830 c 0,7,8
 317 815 317 815 317 782 c 0,9,10
 317 757 317 757 338 744 c 0,11,12
 360 730 360 730 423 717 c 2,13,-1
 450 712 l 2,14,15
 536 696 536 696 569 667 c 0,16,17
 604 638 604 638 605 585 c 0,18,19
 605 526 605 526 552 491 c 0,20,21
 500 456 500 456 406 456 c 0,22,23
 366 456 366 456 325 463 c 0,24,25
 275 472 275 472 237 483 c 1,26,-1
 237 556 l 1,27,28
 281 536 281 536 324 525 c 256,29,30
 366 515 366 515 408 515 c 0,31,32
 465 515 465 515 494 532 c 0,33,34
 524 550 524 550 524 580 c 0,35,36
 524 609 524 609 502 624 c 0,37,38
 481 638 481 638 407 653 c 2,39,-1
 379 659 l 2,40,41
 306 673 306 673 273 702 c 0,42,43
 240 729 240 729 240 780 c 0,44,45
 240 839 240 839 288 872 c 0,46,47
 336 905 336 905 425 906 c 0,48,49
 469 906 469 906 508 900 c 0,50,51
 544 895 544 895 579 883 c 1,0,-1
EndSplineSet
EndChar

StartChar: uni02E3
Encoding: 739 739 191
Width: 841
VWidth: 1398
GlyphClass: 2
Flags: W
LayerCount: 3
Fore
SplineSet
645 884 m 1,0,-1
 471 676 l 1,1,-1
 655 456 l 1,2,-1
 561 456 l 1,3,-1
 421 624 l 1,4,-1
 281 456 l 1,5,-1
 187 456 l 1,6,-1
 374 680 l 1,7,-1
 203 884 l 1,8,-1
 296 884 l 1,9,-1
 425 732 l 1,10,-1
 552 884 l 1,11,-1
 645 884 l 1,0,-1
EndSplineSet
EndChar

StartChar: uni02E4
Encoding: 740 740 192
Width: 841
VWidth: 1398
GlyphClass: 2
Flags: W
LayerCount: 3
Fore
SplineSet
494 761 m 1,0,-1
 494 456 l 1,1,-1
 407 456 l 1,2,-1
 407 705 l 1,3,4
 333 717 333 717 285 763 c 0,5,6
 239 807 239 807 239 871 c 0,7,8
 239 942 239 942 287 990 c 0,9,10
 345 1050 345 1050 464 1050 c 0,11,12
 502 1050 502 1050 535 1043 c 0,13,14
 568 1037 568 1037 603 1023 c 1,15,-1
 603 958 l 1,16,17
 570 974 570 974 535 982 c 256,18,19
 501 990 501 990 467 991 c 0,20,21
 389 991 389 991 347 947 c 0,22,23
 322 922 322 922 323 871 c 0,24,25
 323 833 323 833 347 805 c 0,26,27
 384 761 384 761 467 761 c 2,28,-1
 494 761 l 1,0,-1
EndSplineSet
EndChar

StartChar: uni02E5
Encoding: 741 741 193
Width: 841
VWidth: 1398
GlyphClass: 2
Flags: W
LayerCount: 3
Fore
SplineSet
544 0 m 1,0,-1
 544 841 l 1,1,-1
 205 841 l 1,2,-1
 205 934 l 1,3,-1
 637 934 l 1,4,-1
 637 0 l 1,5,-1
 544 0 l 1,0,-1
EndSplineSet
EndChar

StartChar: uni02E6
Encoding: 742 742 194
Width: 841
VWidth: 1398
GlyphClass: 2
Flags: W
LayerCount: 3
Fore
SplineSet
544 0 m 1,0,-1
 544 631 l 1,1,-1
 205 631 l 1,2,-1
 205 724 l 1,3,-1
 544 724 l 1,4,-1
 544 934 l 1,5,-1
 637 934 l 1,6,-1
 637 0 l 1,7,-1
 544 0 l 1,0,-1
EndSplineSet
EndChar

StartChar: uni02E7
Encoding: 743 743 195
Width: 841
VWidth: 1398
GlyphClass: 2
Flags: W
LayerCount: 3
Fore
SplineSet
544 513 m 1,0,-1
 544 934 l 1,1,-1
 637 934 l 1,2,-1
 637 0 l 1,3,-1
 544 0 l 1,4,-1
 544 421 l 1,5,-1
 205 421 l 1,6,-1
 205 513 l 1,7,-1
 544 513 l 1,0,-1
EndSplineSet
EndChar

StartChar: uni02E8
Encoding: 744 744 196
Width: 841
VWidth: 1398
GlyphClass: 2
Flags: W
LayerCount: 3
Fore
SplineSet
544 303 m 1,0,-1
 544 934 l 1,1,-1
 637 934 l 1,2,-1
 637 0 l 1,3,-1
 544 0 l 1,4,-1
 544 210 l 1,5,-1
 205 210 l 1,6,-1
 205 303 l 1,7,-1
 544 303 l 1,0,-1
EndSplineSet
EndChar

StartChar: uni02E9
Encoding: 745 745 197
Width: 841
VWidth: 1398
GlyphClass: 2
Flags: W
LayerCount: 3
Fore
SplineSet
544 93 m 1,0,-1
 544 934 l 1,1,-1
 637 934 l 1,2,-1
 637 0 l 1,3,-1
 205 0 l 1,4,-1
 205 93 l 1,5,-1
 544 93 l 1,0,-1
EndSplineSet
EndChar

StartChar: uni02EE
Encoding: 750 750 198
Width: 841
VWidth: 1398
GlyphClass: 2
Flags: W
LayerCount: 3
Fore
SplineSet
524 1062 m 1,0,-1
 696 1062 l 1,1,-1
 696 922 l 1,2,-1
 562 660 l 1,3,-1
 457 660 l 1,4,-1
 524 922 l 1,5,-1
 524 1062 l 1,0,-1
211 1062 m 1,6,-1
 383 1062 l 1,7,-1
 383 922 l 1,8,-1
 249 660 l 1,9,-1
 144 660 l 1,10,-1
 211 922 l 1,11,-1
 211 1062 l 1,6,-1
EndSplineSet
EndChar

StartChar: uni02F3
Encoding: 755 755 199
Width: 841
VWidth: 1398
GlyphClass: 2
Flags: W
LayerCount: 3
Fore
SplineSet
571 -192.5 m 128,-1,1
 571 -255 571 -255 527 -299 c 0,2,3
 484 -343 484 -343 421 -343 c 0,4,5
 358 -343 358 -343 314 -299 c 0,6,7
 271 -255 271 -255 271 -192.5 c 128,-1,8
 271 -130 271 -130 314 -86 c 0,9,10
 358 -43 358 -43 421 -43 c 0,11,12
 484 -43 484 -43 527 -86 c 0,13,0
 571 -130 571 -130 571 -192.5 c 128,-1,1
504 -193 m 0,14,15
 504 -159 504 -159 479 -134 c 0,16,17
 455 -110 455 -110 420.5 -110 c 128,-1,18
 386 -110 386 -110 362 -134 c 128,-1,19
 338 -158 338 -158 338 -193 c 0,20,21
 338 -228 338 -228 362 -252 c 128,-1,22
 386 -276 386 -276 421 -276 c 0,23,24
 456 -276 456 -276 479 -251 c 0,25,26
 504 -228 504 -228 504 -193 c 0,14,15
EndSplineSet
EndChar

StartChar: gravecomb
Encoding: 768 768 200
Width: 841
VWidth: 1398
GlyphClass: 2
Flags: W
LayerCount: 3
Fore
SplineSet
326 1118 m 1,0,-1
 517 862 l 1,1,-1
 412 862 l 1,2,-1
 190 1118 l 1,3,-1
 326 1118 l 1,0,-1
EndSplineSet
EndChar

StartChar: acutecomb
Encoding: 769 769 201
Width: 841
VWidth: 1398
GlyphClass: 2
Flags: W
LayerCount: 3
Fore
SplineSet
516 1118 m 1,0,-1
 651 1118 l 1,1,-1
 429 862 l 1,2,-1
 324 862 l 1,3,-1
 516 1118 l 1,0,-1
EndSplineSet
EndChar

StartChar: uni0302
Encoding: 770 770 202
Width: 841
VWidth: 1398
GlyphClass: 2
Flags: W
LayerCount: 3
Fore
SplineSet
371 1118 m 1,0,-1
 471 1118 l 1,1,-1
 639 862 l 1,2,-1
 544 862 l 1,3,-1
 421 1029 l 1,4,-1
 298 862 l 1,5,-1
 203 862 l 1,6,-1
 371 1118 l 1,0,-1
EndSplineSet
EndChar

StartChar: tildecomb
Encoding: 771 771 203
Width: 841
VWidth: 1398
GlyphClass: 2
Flags: W
LayerCount: 3
Fore
SplineSet
418 935 m 2,0,-1
 379 973 l 2,1,2
 365 986 365 986 354 993 c 0,3,4
 342 1000 342 1000 332 999 c 0,5,6
 306 999 306 999 294 974 c 0,7,8
 281 947 281 947 281 894 c 1,9,-1
 196 894 l 1,10,11
 197 986 197 986 231 1036 c 0,12,13
 266 1087 266 1087 328 1086 c 0,14,15
 354 1086 354 1086 377 1077 c 0,16,17
 397 1068 397 1068 424 1044 c 2,18,-1
 463 1007 l 2,19,20
 479 992 479 992 489 987 c 0,21,22
 499 980 499 980 509 980 c 0,23,24
 536 980 536 980 547 1006 c 0,25,26
 559 1031 559 1031 560 1086 c 1,27,-1
 646 1086 l 1,28,29
 645 994 645 994 610 944 c 0,30,31
 575 893 575 893 513 894 c 0,32,33
 487 894 487 894 465 903 c 0,34,35
 445 912 445 912 418 935 c 2,0,-1
EndSplineSet
EndChar

StartChar: uni0304
Encoding: 772 772 204
Width: 841
VWidth: 1398
GlyphClass: 2
Flags: W
LayerCount: 3
Fore
SplineSet
216 1042 m 1,0,-1
 625 1042 l 1,1,-1
 625 941 l 1,2,-1
 216 941 l 1,3,-1
 216 1042 l 1,0,-1
EndSplineSet
EndChar

StartChar: uni0305
Encoding: 773 773 205
Width: 841
VWidth: 1398
GlyphClass: 2
Flags: W
LayerCount: 3
Fore
SplineSet
842 1056 m 1,0,-1
 842 1001 l 1,1,-1
 0 1001 l 1,2,-1
 0 1056 l 1,3,-1
 842 1056 l 1,0,-1
EndSplineSet
EndChar

StartChar: uni0306
Encoding: 774 774 206
Width: 841
VWidth: 1398
GlyphClass: 2
Flags: W
LayerCount: 3
Fore
SplineSet
207 1098 m 1,0,-1
 288 1098 l 1,1,2
 295 1047 295 1047 328 1021 c 0,3,4
 360 996 360 996 421 995 c 0,5,6
 480 995 480 995 511 1021 c 0,7,8
 544 1047 544 1047 554 1098 c 1,9,-1
 635 1098 l 1,10,11
 627 1000 627 1000 573 951 c 0,12,13
 518 902 518 902 420 902 c 128,-1,14
 322 902 322 902 268.5 951 c 128,-1,15
 215 1000 215 1000 207 1098 c 1,0,-1
EndSplineSet
EndChar

StartChar: uni0307
Encoding: 775 775 207
Width: 841
VWidth: 1398
GlyphClass: 2
Flags: W
LayerCount: 3
Fore
SplineSet
350 1059 m 1,0,-1
 490 1059 l 1,1,-1
 490 920 l 1,2,-1
 350 920 l 1,3,-1
 350 1059 l 1,0,-1
EndSplineSet
EndChar

StartChar: uni0308
Encoding: 776 776 208
Width: 841
VWidth: 1398
GlyphClass: 2
Flags: W
LayerCount: 3
Fore
SplineSet
218 1059 m 1,0,-1
 356 1059 l 1,1,-1
 356 922 l 1,2,-1
 218 922 l 1,3,-1
 218 1059 l 1,0,-1
485 1059 m 1,4,-1
 623 1059 l 1,5,-1
 623 922 l 1,6,-1
 485 922 l 1,7,-1
 485 1059 l 1,4,-1
EndSplineSet
EndChar

StartChar: hookabovecomb
Encoding: 777 777 209
Width: 841
VWidth: 1398
GlyphClass: 2
Flags: W
LayerCount: 3
Fore
SplineSet
400 1184 m 0,0,1
 556 1184 556 1184 562 1068 c 0,2,3
 563 1066 563 1066 563 1061 c 0,4,5
 563 1017 563 1017 543 993 c 0,6,7
 510 947 510 947 474 924 c 1,8,-1
 474 864 l 1,9,-1
 373 864 l 1,10,-1
 373 938 l 1,11,12
 419 953 419 953 452 986 c 0,13,14
 467 999 467 999 467 1036 c 0,15,16
 467 1100 467 1100 385 1100 c 0,17,18
 325 1100 325 1100 280 1078 c 1,19,-1
 280 1167 l 1,20,21
 339 1184 339 1184 400 1184 c 0,0,1
EndSplineSet
EndChar

StartChar: uni030A
Encoding: 778 778 210
Width: 841
VWidth: 1398
GlyphClass: 2
Flags: W
LayerCount: 3
Fore
SplineSet
608 1040 m 0,0,1
 608 962 608 962 554 907 c 0,2,3
 498 852 498 852 421 853 c 0,4,5
 342 853 342 853 288 907 c 0,6,7
 233 961 233 961 233 1040 c 0,8,9
 233 1120 233 1120 288 1173 c 1,10,11
 341 1228 341 1228 421 1227 c 0,12,13
 500 1227 500 1227 554 1173 c 0,14,15
 608 1119 608 1119 608 1040 c 0,0,1
524 1040 m 0,16,17
 524 1083 524 1083 494 1113 c 128,-1,18
 464 1143 464 1143 421 1143 c 0,19,20
 379 1143 379 1143 347 1114 c 1,21,22
 318 1083 318 1083 317 1040 c 0,23,24
 317 996 317 996 347 967 c 0,25,26
 377 937 377 937 420.5 937 c 128,-1,27
 464 937 464 937 494 966.5 c 128,-1,28
 524 996 524 996 524 1040 c 0,16,17
EndSplineSet
EndChar

StartChar: uni030B
Encoding: 779 779 211
Width: 841
VWidth: 1398
GlyphClass: 2
Flags: W
LayerCount: 3
Fore
SplineSet
365 1118 m 1,0,-1
 481 1118 l 1,1,-1
 328 862 l 1,2,-1
 235 862 l 1,3,-1
 365 1118 l 1,0,-1
593 1118 m 1,4,-1
 715 1118 l 1,5,-1
 545 862 l 1,6,-1
 453 862 l 1,7,-1
 593 1118 l 1,4,-1
EndSplineSet
EndChar

StartChar: uni030C
Encoding: 780 780 212
Width: 841
VWidth: 1398
GlyphClass: 2
Flags: W
LayerCount: 3
Fore
SplineSet
371 862 m 1,0,-1
 203 1118 l 1,1,-1
 298 1118 l 1,2,-1
 421 951 l 1,3,-1
 544 1118 l 1,4,-1
 639 1118 l 1,5,-1
 471 862 l 1,6,-1
 371 862 l 1,0,-1
EndSplineSet
EndChar

StartChar: uni030D
Encoding: 781 781 213
Width: 841
VWidth: 1398
GlyphClass: 2
Flags: W
LayerCount: 3
Fore
SplineSet
466 1165 m 1,0,-1
 466 862 l 1,1,-1
 373 862 l 1,2,-1
 373 1165 l 1,3,-1
 466 1165 l 1,0,-1
EndSplineSet
EndChar

StartChar: uni030E
Encoding: 782 782 214
Width: 841
VWidth: 1398
GlyphClass: 2
Flags: W
LayerCount: 3
Fore
SplineSet
605 1165 m 1,0,-1
 605 862 l 1,1,-1
 512 862 l 1,2,-1
 512 1165 l 1,3,-1
 605 1165 l 1,0,-1
326 1165 m 1,4,-1
 326 862 l 1,5,-1
 233 862 l 1,6,-1
 233 1165 l 1,7,-1
 326 1165 l 1,4,-1
EndSplineSet
EndChar

StartChar: uni030F
Encoding: 783 783 215
Width: 841
VWidth: 1398
GlyphClass: 2
Flags: W
LayerCount: 3
Fore
SplineSet
265 1118 m 1,0,-1
 405 862 l 1,1,-1
 313 862 l 1,2,-1
 143 1118 l 1,3,-1
 265 1118 l 1,0,-1
493 1118 m 1,4,-1
 623 862 l 1,5,-1
 529 862 l 1,6,-1
 377 1118 l 1,7,-1
 493 1118 l 1,4,-1
EndSplineSet
EndChar

StartChar: uni0310
Encoding: 784 784 216
Width: 841
VWidth: 1398
GlyphClass: 2
Flags: W
LayerCount: 3
Fore
SplineSet
350 1199 m 1,0,-1
 490 1199 l 1,1,-1
 490 1059 l 1,2,-1
 350 1059 l 1,3,-1
 350 1199 l 1,0,-1
207 1098 m 1,4,-1
 288 1098 l 1,5,6
 295 1047 295 1047 328 1021 c 0,7,8
 360 996 360 996 421 995 c 0,9,10
 480 995 480 995 511 1021 c 0,11,12
 544 1047 544 1047 554 1098 c 1,13,-1
 635 1098 l 1,14,15
 627 1000 627 1000 573 951 c 0,16,17
 518 902 518 902 420 902 c 128,-1,18
 322 902 322 902 268.5 951 c 128,-1,19
 215 1000 215 1000 207 1098 c 1,4,-1
EndSplineSet
EndChar

StartChar: uni0311
Encoding: 785 785 217
Width: 841
VWidth: 1398
GlyphClass: 2
Flags: W
LayerCount: 3
Fore
SplineSet
207 902 m 1,0,1
 215 1000 215 1000 268.5 1049 c 128,-1,2
 322 1098 322 1098 420.5 1098 c 128,-1,3
 519 1098 519 1098 573 1049 c 0,4,5
 627 1000 627 1000 635 902 c 1,6,-1
 554 902 l 1,7,8
 545 953 545 953 511 979 c 0,9,10
 479 1004 479 1004 421 1004 c 0,11,12
 361 1004 361 1004 328 979 c 0,13,14
 295 953 295 953 288 902 c 1,15,-1
 207 902 l 1,0,1
EndSplineSet
EndChar

StartChar: uni0312
Encoding: 786 786 218
Width: 841
VWidth: 1398
GlyphClass: 2
Flags: W
LayerCount: 3
Fore
SplineSet
483 660 m 1,0,-1
 320 660 l 1,1,-1
 448 896 l 1,2,-1
 547 896 l 1,3,-1
 483 660 l 1,0,-1
EndSplineSet
EndChar

StartChar: uni0313
Encoding: 787 787 219
Width: 841
VWidth: 1398
GlyphClass: 2
Flags: W
LayerCount: 3
Fore
SplineSet
503 1007 m 2,0,1
 503 832 503 832 339 831 c 1,2,-1
 339 915 l 1,3,4
 415 913 415 913 415 1007 c 1,5,-1
 339 1007 l 1,6,-1
 339 1180 l 1,7,-1
 503 1180 l 1,8,-1
 503 1007 l 2,0,1
EndSplineSet
EndChar

StartChar: uni0314
Encoding: 788 788 220
Width: 841
VWidth: 1398
GlyphClass: 2
Flags: W
LayerCount: 3
Fore
SplineSet
339 1007 m 2,0,-1
 339 1180 l 1,1,-1
 503 1180 l 1,2,-1
 503 1007 l 1,3,-1
 427 1007 l 1,4,5
 427 916 427 916 503 915 c 1,6,-1
 503 831 l 1,7,8
 339 832 339 832 339 1007 c 2,0,-1
EndSplineSet
EndChar

StartChar: uni0315
Encoding: 789 789 221
Width: 841
VWidth: 1398
GlyphClass: 2
Flags: W
LayerCount: 3
Fore
SplineSet
371 1118 m 1,0,-1
 507 1118 l 1,1,-1
 429 862 l 1,2,-1
 324 862 l 1,3,-1
 371 1118 l 1,0,-1
EndSplineSet
EndChar

StartChar: uni0316
Encoding: 790 790 222
Width: 841
VWidth: 1398
GlyphClass: 2
Flags: W
LayerCount: 3
Fore
SplineSet
393 -142 m 1,0,-1
 584 -399 l 1,1,-1
 479 -399 l 1,2,-1
 257 -142 l 1,3,-1
 393 -142 l 1,0,-1
EndSplineSet
EndChar

StartChar: uni0317
Encoding: 791 791 223
Width: 841
VWidth: 1398
GlyphClass: 2
Flags: W
LayerCount: 3
Fore
SplineSet
449 -142 m 1,0,-1
 584 -142 l 1,1,-1
 362 -399 l 1,2,-1
 257 -399 l 1,3,-1
 449 -142 l 1,0,-1
EndSplineSet
EndChar

StartChar: uni0318
Encoding: 792 792 224
Width: 841
VWidth: 1398
GlyphClass: 2
Flags: W
LayerCount: 3
Fore
SplineSet
401 -310 m 1,0,-1
 401 -189 l 1,1,-1
 494 -189 l 1,2,-1
 494 -524 l 1,3,-1
 401 -524 l 1,4,-1
 401 -403 l 1,5,-1
 281 -403 l 1,6,-1
 281 -310 l 1,7,-1
 401 -310 l 1,0,-1
EndSplineSet
EndChar

StartChar: uni0319
Encoding: 793 793 225
Width: 841
VWidth: 1398
GlyphClass: 2
Flags: W
LayerCount: 3
Fore
SplineSet
407 -403 m 1,0,-1
 407 -524 l 1,1,-1
 314 -524 l 1,2,-1
 314 -189 l 1,3,-1
 407 -189 l 1,4,-1
 407 -310 l 1,5,-1
 527 -310 l 1,6,-1
 527 -403 l 1,7,-1
 407 -403 l 1,0,-1
EndSplineSet
EndChar

StartChar: uni031A
Encoding: 794 794 226
Width: 841
VWidth: 1398
GlyphClass: 2
Flags: W
LayerCount: 3
Fore
SplineSet
496 1207 m 5,0,-1
 254 1207 l 5,1,-1
 254 1300 l 5,2,-1
 588 1300 l 5,3,-1
 588 965 l 5,4,-1
 496 965 l 5,5,-1
 496 1207 l 5,0,-1
EndSplineSet
EndChar

StartChar: uni031B
Encoding: 795 795 227
Width: 841
VWidth: 1398
GlyphClass: 2
Flags: W
LayerCount: 3
Fore
SplineSet
286 595 m 1,0,-1
 286 677 l 1,1,2
 326 648 326 648 358 631 c 0,3,4
 388 617 388 617 409 616 c 0,5,6
 441 616 441 616 456 635 c 0,7,8
 472 655 472 655 472 691 c 0,9,10
 472 709 472 709 467 734 c 0,11,12
 460 757 460 757 451 776 c 1,13,-1
 542 776 l 1,14,15
 549 751 549 751 552 727 c 0,16,17
 555 701 555 701 556 683 c 0,18,19
 556 599 556 599 526 561 c 0,20,21
 497 521 497 521 433 522 c 0,22,23
 400 522 400 522 365 539 c 0,24,25
 328 557 328 557 286 595 c 1,0,-1
EndSplineSet
EndChar

StartChar: uni031C
Encoding: 796 796 228
Width: 841
VWidth: 1398
GlyphClass: 2
Flags: W
LayerCount: 3
Fore
SplineSet
496 -276 m 1,0,-1
 496 -343 l 1,1,2
 433 -343 433 -343 389 -299 c 0,3,4
 345 -255 345 -255 345 -192.5 c 128,-1,5
 345 -130 345 -130 389 -86 c 0,6,7
 432 -43 432 -43 496 -43 c 1,8,-1
 496 -110 l 1,9,10
 461 -110 461 -110 437 -134 c 0,11,12
 412 -159 412 -159 412 -193 c 0,13,14
 412 -228 412 -228 437 -251 c 0,15,16
 461 -276 461 -276 496 -276 c 1,0,-1
EndSplineSet
EndChar

StartChar: uni031D
Encoding: 797 797 229
Width: 841
VWidth: 1398
GlyphClass: 2
Flags: W
LayerCount: 3
Fore
SplineSet
455 -310 m 1,0,-1
 576 -310 l 1,1,-1
 576 -403 l 1,2,-1
 242 -403 l 1,3,-1
 242 -310 l 1,4,-1
 362 -310 l 1,5,-1
 362 -189 l 1,6,-1
 455 -189 l 1,7,-1
 455 -310 l 1,0,-1
EndSplineSet
EndChar

StartChar: uni031E
Encoding: 798 798 230
Width: 841
VWidth: 1398
GlyphClass: 2
Flags: W
LayerCount: 3
Fore
SplineSet
360 -282 m 1,0,-1
 239 -282 l 1,1,-1
 239 -189 l 1,2,-1
 573 -189 l 1,3,-1
 573 -282 l 1,4,-1
 453 -282 l 1,5,-1
 453 -403 l 1,6,-1
 360 -403 l 1,7,-1
 360 -282 l 1,0,-1
EndSplineSet
EndChar

StartChar: uni031F
Encoding: 799 799 231
Width: 841
VWidth: 1398
GlyphClass: 2
Flags: W
LayerCount: 3
Fore
SplineSet
360 -403 m 1,0,-1
 240 -403 l 1,1,-1
 240 -310 l 1,2,-1
 360 -310 l 1,3,-1
 360 -189 l 1,4,-1
 453 -189 l 1,5,-1
 453 -310 l 1,6,-1
 574 -310 l 1,7,-1
 574 -403 l 1,8,-1
 453 -403 l 1,9,-1
 453 -524 l 1,10,-1
 360 -524 l 1,11,-1
 360 -403 l 1,0,-1
EndSplineSet
EndChar

StartChar: uni0320
Encoding: 800 800 232
Width: 841
VWidth: 1398
GlyphClass: 2
Flags: W
LayerCount: 3
Fore
SplineSet
254 -282 m 1,0,-1
 254 -189 l 1,1,-1
 588 -189 l 1,2,-1
 588 -282 l 1,3,-1
 254 -282 l 1,0,-1
EndSplineSet
EndChar

StartChar: uni0321
Encoding: 801 801 233
Width: 841
VWidth: 1398
GlyphClass: 2
Flags: W
LayerCount: 3
Fore
SplineSet
717 87 m 1,0,-1
 717 -14 l 2,1,2
 717 -146 717 -146 657 -218 c 0,3,4
 596 -290 596 -290 483 -291 c 2,5,-1
 343 -291 l 1,6,-1
 343 -184 l 1,7,-1
 469 -184 l 2,8,9
 530 -184 530 -184 561 -142 c 0,10,11
 591 -100 591 -100 591 -14 c 2,12,-1
 591 87 l 1,13,-1
 717 87 l 1,0,-1
EndSplineSet
EndChar

StartChar: uni0322
Encoding: 802 802 234
Width: 841
VWidth: 1398
GlyphClass: 2
Flags: W
LayerCount: 3
Fore
SplineSet
124 87 m 5,0,-1
 251 87 l 5,1,-1
 251 -14 l 6,2,3
 251 -100 251 -100 281 -142 c 4,4,5
 312 -184 312 -184 373 -184 c 6,6,-1
 499 -184 l 5,7,-1
 499 -291 l 5,8,-1
 359 -291 l 6,9,10
 246 -291 246 -291 185 -218 c 4,11,12
 124 -146 124 -146 124 -14 c 6,13,-1
 124 87 l 5,0,-1
EndSplineSet
EndChar

StartChar: dotbelowcomb
Encoding: 803 803 235
Width: 841
VWidth: 1398
GlyphClass: 2
Flags: W
LayerCount: 3
Fore
SplineSet
350 -143 m 1,0,-1
 490 -143 l 1,1,-1
 490 -282 l 1,2,-1
 350 -282 l 1,3,-1
 350 -143 l 1,0,-1
EndSplineSet
EndChar

StartChar: uni0324
Encoding: 804 804 236
Width: 841
VWidth: 1398
GlyphClass: 2
Flags: W
LayerCount: 3
Fore
SplineSet
218 -143 m 1,0,-1
 356 -143 l 1,1,-1
 356 -281 l 1,2,-1
 218 -281 l 1,3,-1
 218 -143 l 1,0,-1
486 -143 m 1,4,-1
 624 -143 l 1,5,-1
 624 -281 l 1,6,-1
 486 -281 l 1,7,-1
 486 -143 l 1,4,-1
EndSplineSet
EndChar

StartChar: uni0325
Encoding: 805 805 237
Width: 841
VWidth: 1398
GlyphClass: 2
Flags: W
LayerCount: 3
Fore
SplineSet
571 -192.5 m 128,-1,1
 571 -255 571 -255 527 -299 c 0,2,3
 484 -343 484 -343 421 -343 c 0,4,5
 358 -343 358 -343 314 -299 c 0,6,7
 271 -255 271 -255 271 -192.5 c 128,-1,8
 271 -130 271 -130 314 -86 c 0,9,10
 358 -43 358 -43 421 -43 c 0,11,12
 484 -43 484 -43 527 -86 c 0,13,0
 571 -130 571 -130 571 -192.5 c 128,-1,1
504 -193 m 0,14,15
 504 -159 504 -159 479 -134 c 0,16,17
 455 -110 455 -110 420.5 -110 c 128,-1,18
 386 -110 386 -110 362 -134 c 128,-1,19
 338 -158 338 -158 338 -193 c 0,20,21
 338 -228 338 -228 362 -252 c 128,-1,22
 386 -276 386 -276 421 -276 c 0,23,24
 456 -276 456 -276 479 -251 c 0,25,26
 504 -228 504 -228 504 -193 c 0,14,15
EndSplineSet
EndChar

StartChar: uni0326
Encoding: 806 806 238
Width: 841
VWidth: 1398
GlyphClass: 2
Flags: W
LayerCount: 3
Fore
SplineSet
343 -134 m 1,0,-1
 506 -134 l 1,1,-1
 378 -370 l 1,2,-1
 279 -370 l 1,3,-1
 343 -134 l 1,0,-1
EndSplineSet
EndChar

StartChar: uni0327
Encoding: 807 807 239
Width: 841
VWidth: 1398
GlyphClass: 2
Flags: W
LayerCount: 3
Fore
SplineSet
478 0 m 1,0,1
 516 -42 516 -42 534 -78 c 0,2,3
 552 -115 552 -115 552 -147 c 0,4,5
 552 -208 552 -208 511 -239 c 0,6,7
 470 -270 470 -270 390 -270 c 0,8,9
 360 -270 360 -270 329 -265.5 c 128,-1,10
 298 -261 298 -261 270 -253 c 1,11,-1
 270 -164 l 1,12,13
 297 -177 297 -177 318 -180 c 0,14,15
 342 -185 342 -185 376 -186 c 0,16,17
 415 -186 415 -186 437 -169 c 0,18,19
 457 -153 457 -153 457 -122 c 0,20,21
 457 -102 457 -102 442 -71 c 0,22,23
 426 -41 426 -41 397 0 c 1,24,-1
 478 0 l 1,0,1
EndSplineSet
EndChar

StartChar: uni0328
Encoding: 808 808 240
Width: 841
VWidth: 1398
GlyphClass: 2
Flags: W
LayerCount: 3
Fore
SplineSet
367 0 m 1,0,-1
 449 0 l 1,1,2
 420 -40 420 -40 403 -72 c 0,3,4
 389 -101 389 -101 388 -123 c 0,5,6
 388 -154 388 -154 407 -170 c 0,7,8
 427 -186 427 -186 463 -186 c 0,9,10
 487 -186 487 -186 506 -180 c 0,11,12
 524 -177 524 -177 548 -165 c 1,13,-1
 548 -256 l 1,14,15
 523 -264 523 -264 499 -266 c 0,16,17
 473 -269 473 -269 455 -270 c 0,18,19
 372 -270 372 -270 333 -240 c 0,20,21
 293 -209 293 -209 294 -147 c 0,22,23
 294 -116 294 -116 311 -78 c 0,24,25
 332 -40 332 -40 367 0 c 1,0,-1
EndSplineSet
EndChar

StartChar: uni0329
Encoding: 809 809 241
Width: 841
VWidth: 1398
GlyphClass: 2
Flags: W
LayerCount: 3
Fore
SplineSet
467 -143 m 1,0,-1
 467 -446 l 1,1,-1
 374 -446 l 1,2,-1
 374 -143 l 1,3,-1
 467 -143 l 1,0,-1
EndSplineSet
EndChar

StartChar: uni032A
Encoding: 810 810 242
Width: 841
VWidth: 1398
GlyphClass: 2
Flags: W
LayerCount: 3
Fore
SplineSet
609 -143 m 1,0,-1
 609 -368 l 1,1,-1
 515 -368 l 1,2,-1
 515 -236 l 1,3,-1
 326 -236 l 1,4,-1
 326 -368 l 1,5,-1
 233 -368 l 1,6,-1
 233 -143 l 1,7,-1
 609 -143 l 1,0,-1
EndSplineSet
EndChar

StartChar: uni032B
Encoding: 811 811 243
Width: 841
VWidth: 1398
GlyphClass: 2
Flags: W
LayerCount: 3
Fore
SplineSet
421 -255 m 1,0,1
 381 -311 381 -311 301 -311 c 0,2,3
 151 -311 151 -311 141 -118 c 1,4,-1
 141 -115 l 1,5,-1
 221 -115 l 1,6,7
 231 -217 231 -217 300.5 -217 c 128,-1,8
 370 -217 370 -217 381 -115 c 1,9,-1
 461 -115 l 1,10,11
 468 -216 468 -216 541 -217 c 0,12,13
 611 -217 611 -217 621 -115 c 1,14,-1
 701 -115 l 1,15,16
 691 -310 691 -310 541 -311 c 0,17,18
 462 -311 462 -311 421 -255 c 1,0,1
EndSplineSet
EndChar

StartChar: uni032C
Encoding: 812 812 244
Width: 841
VWidth: 1398
GlyphClass: 2
Flags: W
LayerCount: 3
Fore
SplineSet
371 -331 m 1,0,-1
 203 -74 l 1,1,-1
 298 -74 l 1,2,-1
 421 -242 l 1,3,-1
 544 -74 l 1,4,-1
 639 -74 l 1,5,-1
 471 -331 l 1,6,-1
 371 -331 l 1,0,-1
EndSplineSet
EndChar

StartChar: uni032D
Encoding: 813 813 245
Width: 841
VWidth: 1398
GlyphClass: 2
Flags: W
LayerCount: 3
Fore
SplineSet
371 -74 m 1,0,-1
 471 -74 l 1,1,-1
 639 -331 l 1,2,-1
 544 -331 l 1,3,-1
 421 -164 l 1,4,-1
 298 -331 l 1,5,-1
 203 -331 l 1,6,-1
 371 -74 l 1,0,-1
EndSplineSet
EndChar

StartChar: uni032E
Encoding: 814 814 246
Width: 841
VWidth: 1398
GlyphClass: 2
Flags: W
LayerCount: 3
Fore
SplineSet
207 -137 m 1,0,-1
 288 -137 l 1,1,2
 295 -188 295 -188 328 -214 c 0,3,4
 360 -239 360 -239 421 -239 c 0,5,6
 480 -239 480 -239 511 -214 c 0,7,8
 544 -188 544 -188 554 -137 c 1,9,-1
 635 -137 l 1,10,11
 627 -235 627 -235 573 -283 c 0,12,13
 518 -332 518 -332 420 -332 c 128,-1,14
 322 -332 322 -332 268.5 -283.5 c 128,-1,15
 215 -235 215 -235 207 -137 c 1,0,-1
EndSplineSet
EndChar

StartChar: uni032F
Encoding: 815 815 247
Width: 841
VWidth: 1398
GlyphClass: 2
Flags: W
LayerCount: 3
Fore
SplineSet
635 -331 m 1,0,-1
 554 -331 l 1,1,2
 547 -280 547 -280 513 -254 c 0,3,4
 481 -229 481 -229 421 -229 c 0,5,6
 362 -229 362 -229 330 -254 c 0,7,8
 297 -280 297 -280 288 -331 c 1,9,-1
 207 -331 l 1,10,11
 215 -233 215 -233 268.5 -184 c 128,-1,12
 322 -135 322 -135 421 -135 c 0,13,14
 519 -135 519 -135 573 -184 c 0,15,16
 627 -233 627 -233 635 -331 c 1,0,-1
EndSplineSet
EndChar

StartChar: uni0330
Encoding: 816 816 248
Width: 841
VWidth: 1398
GlyphClass: 2
Flags: W
LayerCount: 3
Fore
SplineSet
418 -289 m 2,0,-1
 379 -252 l 2,1,2
 365 -239 365 -239 354 -232 c 0,3,4
 342 -225 342 -225 332 -225 c 0,5,6
 306 -225 306 -225 294 -251 c 0,7,8
 281 -278 281 -278 281 -331 c 1,9,-1
 196 -331 l 1,10,11
 197 -239 197 -239 231 -189 c 0,12,13
 266 -138 266 -138 328 -139 c 0,14,15
 354 -139 354 -139 377 -148 c 0,16,17
 397 -157 397 -157 424 -180 c 2,18,-1
 463 -218 l 2,19,20
 479 -233 479 -233 489 -238 c 0,21,22
 499 -245 499 -245 509 -244 c 0,23,24
 536 -244 536 -244 547 -219 c 0,25,26
 559 -194 559 -194 560 -139 c 1,27,-1
 646 -139 l 1,28,29
 645 -231 645 -231 610 -281 c 0,30,31
 575 -332 575 -332 513 -331 c 0,32,33
 487 -331 487 -331 465 -322 c 0,34,35
 445 -312 445 -312 418 -289 c 2,0,-1
EndSplineSet
EndChar

StartChar: uni0331
Encoding: 817 817 249
Width: 841
VWidth: 1398
GlyphClass: 2
Flags: W
LayerCount: 3
Fore
SplineSet
217 -143 m 1,0,-1
 625 -143 l 1,1,-1
 625 -244 l 1,2,-1
 217 -244 l 1,3,-1
 217 -143 l 1,0,-1
EndSplineSet
EndChar

StartChar: uni0332
Encoding: 818 818 250
Width: 841
VWidth: 1398
GlyphClass: 2
Flags: W
LayerCount: 3
Fore
SplineSet
842 -275 m 1,0,-1
 842 -330 l 1,1,-1
 0 -330 l 1,2,-1
 0 -275 l 1,3,-1
 842 -275 l 1,0,-1
EndSplineSet
EndChar

StartChar: uni0333
Encoding: 819 819 251
Width: 841
VWidth: 1398
GlyphClass: 2
Flags: W
LayerCount: 3
Fore
SplineSet
842 -275 m 1,0,-1
 842 -330 l 1,1,-1
 0 -330 l 1,2,-1
 0 -275 l 1,3,-1
 842 -275 l 1,0,-1
842 -111 m 1,4,-1
 842 -166 l 1,5,-1
 0 -166 l 1,6,-1
 0 -111 l 1,7,-1
 842 -111 l 1,4,-1
EndSplineSet
EndChar

StartChar: uni0334
Encoding: 820 820 252
Width: 841
VWidth: 1398
GlyphClass: 2
Flags: W
LayerCount: 3
Fore
SplineSet
782 532 m 1,0,-1
 782 414 l 1,1,2
 730 374 730 374 681 355 c 0,3,4
 634 336 634 336 579 336 c 0,5,6
 518 336 518 336 440 371 c 0,7,8
 435 373 435 373 431 375 c 128,-1,9
 427 377 427 377 423 378.5 c 128,-1,10
 419 380 419 380 418 380 c 0,11,12
 366 403 366 403 330 411 c 0,13,14
 294 419 294 419 260 419 c 0,15,16
 205 419 205 419 158 399 c 0,17,18
 112 381 112 381 60 336 c 1,19,-1
 60 455 l 1,20,21
 113 496 113 496 163 514 c 256,22,23
 213 532 213 532 270 532 c 0,24,25
 305 532 305 532 340 525 c 0,26,27
 375 517 375 517 425 496 c 0,28,29
 433 493 433 493 447 486 c 0,30,31
 525 448 525 448 590 449 c 0,32,33
 639 449 639 449 684 470 c 0,34,35
 731 490 731 490 782 532 c 1,0,-1
EndSplineSet
EndChar

StartChar: uni0335
Encoding: 821 821 253
Width: 841
VWidth: 1398
GlyphClass: 2
Flags: W
LayerCount: 3
Fore
SplineSet
725 421 m 1,0,-1
 725 309 l 1,1,-1
 97 309 l 1,2,-1
 97 421 l 1,3,-1
 725 421 l 1,0,-1
EndSplineSet
EndChar

StartChar: uni0336
Encoding: 822 822 254
Width: 841
VWidth: 1398
GlyphClass: 2
Flags: W
LayerCount: 3
Fore
SplineSet
0 309 m 1,0,-1
 0 421 l 1,1,-1
 842 421 l 1,2,-1
 842 309 l 1,3,-1
 0 309 l 1,0,-1
EndSplineSet
EndChar

StartChar: uni0337
Encoding: 823 823 255
Width: 841
VWidth: 1398
GlyphClass: 2
Flags: W
LayerCount: 3
Fore
SplineSet
95 -66 m 1,0,-1
 32 -14 l 1,1,-1
 738 827 l 1,2,-1
 801 775 l 1,3,-1
 95 -66 l 1,0,-1
EndSplineSet
EndChar

StartChar: uni0338
Encoding: 824 824 256
Width: 841
VWidth: 1398
GlyphClass: 2
Flags: W
LayerCount: 3
Fore
SplineSet
76 -48 m 1,0,-1
 5 0 l 1,1,-1
 751 1064 l 1,2,-1
 819 1014 l 1,3,-1
 76 -48 l 1,0,-1
EndSplineSet
EndChar

StartChar: uni0339
Encoding: 825 825 257
Width: 841
VWidth: 1398
GlyphClass: 2
Flags: W
LayerCount: 3
Fore
SplineSet
345 -276 m 1,0,1
 380 -276 380 -276 404 -251 c 0,2,3
 429 -228 429 -228 429 -193 c 0,4,5
 429 -159 429 -159 404 -134 c 0,6,7
 380 -110 380 -110 345 -110 c 1,8,-1
 345 -43 l 1,9,10
 408 -43 408 -43 452 -86 c 0,11,12
 496 -130 496 -130 496 -192.5 c 128,-1,13
 496 -255 496 -255 452 -299 c 0,14,15
 409 -343 409 -343 345 -343 c 1,16,-1
 345 -276 l 1,0,1
EndSplineSet
EndChar

StartChar: uni033A
Encoding: 826 826 258
Width: 841
VWidth: 1398
GlyphClass: 2
Flags: W
LayerCount: 3
Fore
SplineSet
233 -262 m 1,0,-1
 233 -37 l 1,1,-1
 326 -37 l 1,2,-1
 326 -169 l 1,3,-1
 515 -169 l 1,4,-1
 515 -37 l 1,5,-1
 609 -37 l 1,6,-1
 609 -262 l 1,7,-1
 233 -262 l 1,0,-1
EndSplineSet
EndChar

StartChar: uni033B
Encoding: 827 827 259
Width: 841
VWidth: 1398
GlyphClass: 2
Flags: W
LayerCount: 3
Fore
SplineSet
609 -143 m 1,0,-1
 609 -518 l 1,1,-1
 233 -518 l 1,2,-1
 233 -143 l 1,3,-1
 609 -143 l 1,0,-1
515 -425 m 1,4,-1
 515 -236 l 1,5,-1
 326 -236 l 1,6,-1
 326 -425 l 1,7,-1
 515 -425 l 1,4,-1
EndSplineSet
EndChar

StartChar: uni033C
Encoding: 828 828 260
Width: 841
VWidth: 1398
GlyphClass: 2
Flags: W
LayerCount: 3
Fore
SplineSet
421 -171 m 1,0,1
 462 -115 462 -115 541 -115 c 0,2,3
 690 -115 690 -115 701 -307 c 1,4,-1
 701 -311 l 1,5,-1
 621 -311 l 1,6,7
 611 -209 611 -209 541 -208 c 0,8,9
 472 -208 472 -208 461 -311 c 1,10,-1
 381 -311 l 1,11,12
 373 -209 373 -209 301 -208 c 0,13,14
 231 -208 231 -208 221 -311 c 1,15,-1
 141 -311 l 1,16,17
 151 -116 151 -116 301 -115 c 0,18,19
 381 -115 381 -115 421 -171 c 1,0,1
EndSplineSet
EndChar

StartChar: uni033D
Encoding: 829 829 261
Width: 841
VWidth: 1398
GlyphClass: 2
Flags: W
LayerCount: 3
Fore
SplineSet
421 924 m 1,0,-1
 335 838 l 1,1,-1
 270 904 l 1,2,-1
 355 989 l 1,3,-1
 270 1075 l 1,4,-1
 335 1141 l 1,5,-1
 421 1055 l 1,6,-1
 507 1141 l 1,7,-1
 572 1075 l 1,8,-1
 487 989 l 1,9,-1
 572 904 l 1,10,-1
 507 838 l 1,11,-1
 421 924 l 1,0,-1
EndSplineSet
EndChar

StartChar: uni033E
Encoding: 830 830 262
Width: 841
VWidth: 1398
GlyphClass: 2
Flags: W
LayerCount: 3
Fore
SplineSet
366 1010 m 2,0,1
 343 1031 343 1031 335 1045 c 0,2,3
 325 1062 325 1062 325 1081 c 0,4,5
 325 1135 325 1135 375 1163 c 0,6,7
 427 1191 427 1191 517 1192 c 1,8,-1
 517 1117 l 1,9,10
 460 1116 460 1116 436 1106 c 0,11,12
 411 1098 411 1098 411 1078 c 0,13,14
 411 1070 411 1070 418 1063 c 0,15,16
 426 1052 426 1052 438 1043 c 2,17,-1
 475 1014 l 2,18,19
 499 994 499 994 508 978 c 0,20,21
 518 961 518 961 517 943 c 0,22,23
 517 889 517 889 467 860 c 0,24,25
 415 832 415 832 325 831 c 1,26,-1
 325 907 l 1,27,28
 382 908 382 908 406 918 c 0,29,30
 431 926 431 926 430 945 c 0,31,32
 430 952 430 952 424 961 c 0,33,34
 416 971 416 971 404 980 c 2,35,-1
 366 1010 l 2,0,1
EndSplineSet
EndChar

StartChar: uni033F
Encoding: 831 831 263
Width: 841
VWidth: 1398
GlyphClass: 2
Flags: W
LayerCount: 3
Fore
SplineSet
842 1056 m 1,0,-1
 842 1001 l 1,1,-1
 0 1001 l 1,2,-1
 0 1056 l 1,3,-1
 842 1056 l 1,0,-1
842 892 m 1,4,-1
 842 838 l 1,5,-1
 0 838 l 1,6,-1
 0 892 l 1,7,-1
 842 892 l 1,4,-1
EndSplineSet
EndChar

StartChar: uni0343
Encoding: 835 835 264
Width: 841
VWidth: 1398
GlyphClass: 2
Flags: W
LayerCount: 3
Fore
SplineSet
503 1007 m 2,0,1
 503 832 503 832 339 831 c 1,2,-1
 339 915 l 1,3,4
 415 913 415 913 415 1007 c 1,5,-1
 339 1007 l 1,6,-1
 339 1180 l 1,7,-1
 503 1180 l 1,8,-1
 503 1007 l 2,0,1
EndSplineSet
EndChar

StartChar: uni0358
Encoding: 856 856 265
Width: 841
VWidth: 1398
GlyphClass: 2
Flags: W
LayerCount: 3
Fore
SplineSet
700 1059 m 1,0,-1
 840 1059 l 1,1,-1
 840 920 l 1,2,-1
 700 920 l 1,3,-1
 700 1059 l 1,0,-1
EndSplineSet
EndChar

StartChar: uni0361
Encoding: 865 865 266
Width: 841
VWidth: 1398
GlyphClass: 2
Flags: W
LayerCount: 3
Fore
SplineSet
421 1167 m 0,0,1
 380 1167 380 1167 188 1150 c 0,2,3
 5 1135 5 1135 -81 1038 c 1,4,-1
 -161 1038 l 1,5,6
 -161 1202 -161 1202 186 1242 c 0,7,8
 342 1260 342 1260 421 1260.5 c 128,-1,9
 500 1261 500 1261 657 1242 c 0,10,11
 1004 1201 1004 1201 1004 1038 c 1,12,-1
 923 1038 l 1,13,14
 836 1135 836 1135 653 1150 c 0,15,16
 463 1167 463 1167 421 1167 c 0,0,1
EndSplineSet
EndChar

StartChar: uni0374
Encoding: 884 884 267
Width: 841
VWidth: 1398
GlyphClass: 2
Flags: W
LayerCount: 3
Fore
SplineSet
336 778 m 1,0,-1
 380 1118 l 1,1,-1
 510 1118 l 1,2,-1
 435 778 l 1,3,-1
 336 778 l 1,0,-1
EndSplineSet
EndChar

StartChar: uni0375
Encoding: 885 885 268
Width: 841
VWidth: 1398
GlyphClass: 2
Flags: W
LayerCount: 3
Fore
SplineSet
506 49 m 1,0,-1
 461 -291 l 1,1,-1
 332 -291 l 1,2,-1
 407 49 l 1,3,-1
 506 49 l 1,0,-1
EndSplineSet
EndChar

StartChar: uni037E
Encoding: 894 894 269
Width: 841
VWidth: 1398
GlyphClass: 2
Flags: W
LayerCount: 3
Fore
SplineSet
343 207 m 1,0,-1
 515 207 l 1,1,-1
 515 66 l 1,2,-1
 380 -196 l 1,3,-1
 275 -196 l 1,4,-1
 343 66 l 1,5,-1
 343 207 l 1,0,-1
334 726 m 1,6,-1
 506 726 l 1,7,-1
 506 519 l 1,8,-1
 334 519 l 1,9,-1
 334 726 l 1,6,-1
EndSplineSet
EndChar

StartChar: tonos
Encoding: 900 900 270
Width: 841
VWidth: 1398
GlyphClass: 2
Flags: W
LayerCount: 3
Fore
SplineSet
516 1118 m 1,0,-1
 651 1118 l 1,1,-1
 429 862 l 1,2,-1
 324 862 l 1,3,-1
 516 1118 l 1,0,-1
EndSplineSet
EndChar

StartChar: dieresistonos
Encoding: 901 901 271
Width: 841
VWidth: 1398
GlyphClass: 2
Flags: W
LayerCount: 3
Fore
SplineSet
218 1059 m 1,0,-1
 356 1059 l 1,1,-1
 356 922 l 1,2,-1
 218 922 l 1,3,-1
 218 1059 l 1,0,-1
485 1059 m 1,4,-1
 623 1059 l 1,5,-1
 623 922 l 1,6,-1
 485 922 l 1,7,-1
 485 1059 l 1,4,-1
516 1371 m 1,8,-1
 651 1371 l 1,9,-1
 429 1114 l 1,10,-1
 324 1114 l 1,11,-1
 516 1371 l 1,8,-1
EndSplineSet
EndChar

StartChar: anoteleia
Encoding: 903 903 272
Width: 841
VWidth: 1398
GlyphClass: 2
Flags: W
LayerCount: 3
Fore
SplineSet
334 590 m 1,0,-1
 506 590 l 1,1,-1
 506 382 l 1,2,-1
 334 382 l 1,3,-1
 334 590 l 1,0,-1
EndSplineSet
EndChar

StartChar: uni0609
Encoding: 1545 1545 273
Width: 841
VWidth: 1398
GlyphClass: 2
Flags: W
LayerCount: 3
Fore
SplineSet
657 171 m 1,0,-1
 780 171 l 1,1,-1
 780 0 l 1,2,-1
 657 0 l 1,3,-1
 657 171 l 1,0,-1
412 171 m 1,4,-1
 535 171 l 1,5,-1
 535 0 l 1,6,-1
 412 0 l 1,7,-1
 412 171 l 1,4,-1
71 887 m 1,8,-1
 194 887 l 1,9,-1
 194 717 l 1,10,-1
 71 717 l 1,11,-1
 71 887 l 1,8,-1
522 887 m 1,12,-1
 631 887 l 1,13,-1
 171 0 l 1,14,-1
 61 0 l 1,15,-1
 522 887 l 1,12,-1
EndSplineSet
EndChar

StartChar: uni060A
Encoding: 1546 1546 274
Width: 841
VWidth: 1398
GlyphClass: 2
Flags: W
LayerCount: 3
Fore
SplineSet
719 171 m 1,0,-1
 842 171 l 1,1,-1
 842 0 l 1,2,-1
 719 0 l 1,3,-1
 719 171 l 1,0,-1
494 171 m 1,4,-1
 616 171 l 1,5,-1
 616 0 l 1,6,-1
 494 0 l 1,7,-1
 494 171 l 1,4,-1
268 171 m 1,8,-1
 391 171 l 1,9,-1
 391 0 l 1,10,-1
 268 0 l 1,11,-1
 268 171 l 1,8,-1
10 887 m 1,12,-1
 132 887 l 1,13,-1
 132 717 l 1,14,-1
 10 717 l 1,15,-1
 10 887 l 1,12,-1
324 887 m 1,16,-1
 433 887 l 1,17,-1
 109 0 l 1,18,-1
 0 0 l 1,19,-1
 324 887 l 1,16,-1
EndSplineSet
EndChar

StartChar: quoteright
Encoding: 8217 8217 275
Width: 527
VWidth: 1398
GlyphClass: 2
Flags: W
LayerCount: 3
Fore
SplineSet
211 1881 m 1,0,-1
 383 1881 l 1,1,-1
 383 1741 l 1,2,-1
 249 1479 l 1,3,-1
 144 1479 l 1,4,-1
 211 1741 l 1,5,-1
 211 1881 l 1,0,-1
EndSplineSet
EndChar

StartChar: quotesinglbase
Encoding: 8218 8218 276
Width: 527
VWidth: 1398
GlyphClass: 2
Flags: W
LayerCount: 3
Fore
SplineSet
211 -173 m 1,0,-1
 383 -173 l 1,1,-1
 383 -314 l 1,2,-1
 249 -575 l 1,3,-1
 144 -575 l 1,4,-1
 211 -314 l 1,5,-1
 211 -173 l 1,0,-1
EndSplineSet
EndChar

StartChar: quotedblright
Encoding: 8221 8221 277
Width: 841
VWidth: 1398
GlyphClass: 2
Flags: W
LayerCount: 3
Fore
SplineSet
524 1861 m 1,0,-1
 696 1861 l 1,1,-1
 696 1720 l 1,2,-1
 562 1459 l 1,3,-1
 457 1459 l 1,4,-1
 524 1720 l 1,5,-1
 524 1861 l 1,0,-1
211 1861 m 1,6,-1
 383 1861 l 1,7,-1
 383 1720 l 1,8,-1
 249 1459 l 1,9,-1
 144 1459 l 1,10,-1
 211 1720 l 1,11,-1
 211 1861 l 1,6,-1
EndSplineSet
EndChar

StartChar: quotedblbase
Encoding: 8222 8222 278
Width: 841
VWidth: 1398
GlyphClass: 2
Flags: W
LayerCount: 3
Fore
SplineSet
524 -167 m 1,0,-1
 696 -167 l 1,1,-1
 696 -307 l 1,2,-1
 562 -569 l 1,3,-1
 457 -569 l 1,4,-1
 524 -307 l 1,5,-1
 524 -167 l 1,0,-1
211 -167 m 1,6,-1
 383 -167 l 1,7,-1
 383 -307 l 1,8,-1
 249 -569 l 1,9,-1
 144 -569 l 1,10,-1
 211 -307 l 1,11,-1
 211 -167 l 1,6,-1
EndSplineSet
EndChar

StartChar: stemK
Encoding: 57352 57352 281
Width: 81
VWidth: 0
GlyphClass: 2
Flags: W
LayerCount: 3
Fore
SplineSet
82 1188 m 1,0,-1
 82 41 l 1,1,2
 41 41 41 41 0 41 c 1,5,-1
 0 1188 l 1,6,7
 0 1188 0 1188 82 1188 c 1,0,-1
0 41 m 1025
EndSplineSet
Refer: 564 57346 N 1 0 0 1 0 0 2
Refer: 564 57346 N 1 0 0 1 0 1147 2
Comment: "wys 1800"
EndChar

StartChar: stemI.krt
Encoding: 57357 57357 282
Width: 81
VWidth: 0
GlyphClass: 2
Flags: W
LayerCount: 3
Fore
SplineSet
82 164 m 1,0,-1
 82 41 l 1,1,2
 41 41 41 41 0 41 c 1,5,-1
 0 164 l 1,6,7
 41 164 41 164 82 164 c 1,0,-1
0 41 m 1025
EndSplineSet
Refer: 564 57346 N 1 0 0 1 0 0 2
Refer: 564 57346 N 1 0 0 1 0 123 2
Comment: "wys 300"
EndChar

StartChar: stemKRT
Encoding: 57358 57358 283
Width: 81
VWidth: 0
GlyphClass: 2
Flags: W
LayerCount: 3
Fore
SplineSet
82 123 m 5,0,-1
 82 41 l 1,1,2
 62 41 62 41 41 41 c 1,3,4
 21 41 21 41 0 41 c 1,5,-1
 0 123 l 5,6,7
 41 123 41 123 82 123 c 5,0,-1
0 41 m 1025
EndSplineSet
Refer: 564 57346 N 1 0 0 1 0 0 2
Refer: 564 57346 S 1 0 0 1 0 82 2
Comment: "wys 240"
EndChar

StartChar: o.alt.bakk
Encoding: 983048 983048 284
Width: 387
VWidth: 0
GlyphClass: 2
Flags: W
LayerCount: 3
Fore
SplineSet
83 48 m 1,0,-1
 11 54 l 1,1,2
 19 150 19 150 49 242 c 128,-1,3
 79 334 79 334 118.5 405 c 128,-1,4
 158 476 158 476 212 543 c 128,-1,5
 266 610 266 610 314.5 656 c 128,-1,6
 363 702 363 702 416 743 c 1,7,-1
 473 689 l 1,8,9
 126 456 126 456 83 48 c 1,0,-1
EndSplineSet
EndChar

StartChar: u.alt.bak
Encoding: 983049 983049 285
Width: 300
VWidth: 0
GlyphClass: 2
Flags: W
LayerCount: 3
Fore
SplineSet
374 571 m 1,0,1
 338 564 338 564 302 557 c 1,2,3
 297 612 297 612 239 612 c 0,4,5
 214 612 214 612 174 498 c 0,6,7
 151 430 151 430 77 30 c 1,8,-1
 -2 30 l 1,9,10
 -1 72 -1 72 97 507 c 0,11,12
 137 683 137 683 238 689 c 0,13,14
 348 695 348 695 374 571 c 1,0,1
EndSplineSet
EndChar

StartChar: luTJ
Encoding: 58088 58088 286
Width: 339
VWidth: 0
GlyphClass: 2
Flags: W
LayerCount: 3
Fore
SplineSet
340 33 m 4,0,1
 336 -36 336 -36 222 -72 c 4,2,3
 71 -121 71 -121 15 33 c 4,4,5
 -35 172 -35 172 84 215 c 4,6,7
 195 255 195 255 228 163 c 4,8,9
 263 65 263 65 190 39 c 5,10,11
 187 38 187 38 182 36 c 5,12,-1
 154 113 l 5,13,14
 162 116 162 116 155 136 c 4,15,16
 149 153 149 153 111 140 c 4,17,18
 65 123 65 123 87 59 c 4,19,20
 119 -28 119 -28 195 -1 c 4,21,22
 253 19 253 19 255 50 c 4,23,-1
 340 33 l 4,0,1
EndSplineSet
Refer: 564 57346 S -0.939693 -0.34202 0.34202 -0.939693 322 95 2
Refer: 564 57346 S -0.939693 -0.34202 0.34202 -0.939693 193 127 2
EndChar

StartChar: dzi
Encoding: 983056 983056 291
Width: 321
VWidth: 0
GlyphClass: 3
LigCaretCntFixed: 1
Flags: W
LayerCount: 3
Fore
SplineSet
397 251 m 0,0,1
 469 104 469 104 367 -3 c 1,2,-1
 290 66 l 1,3,4
 319 82 319 82 313 157 c 0,5,6
 309 214 309 214 216 205 c 0,7,8
 135 198 135 198 76 33 c 1,9,-1
 -12 98 l 1,10,11
 68 270 68 270 180 311 c 0,12,13
 340 369 340 369 397 251 c 0,0,1
EndSplineSet
LCarets2: 2 72 183
EndChar

StartChar: pii
Encoding: 983061 983061 296
Width: 123
VWidth: 2095
GlyphClass: 3
Flags: W
LayerCount: 3
Fore
SplineSet
81 614 m 1,0,1
 61 615 61 615 41 614 c 1,2,3
 21 614 21 614 0 614 c 1,4,5
 0 891 0 891 0 1012 c 1,6,7
 11 1208 11 1208 160 1198 c 0,8,9
 255 1192 255 1192 287 1118 c 0,0,0
 353 966 353 966 263 819 c 0,10,11
 209 731 209 731 81 614 c 1,0,1
82 730 m 1,13,14
 157 804 157 804 188 857 c 0,15,16
 243 952 243 952 222 1050 c 0,0,0
 208 1114 208 1114 160 1114 c 0,17,18
 82 1114 82 1114 82 1012 c 0,19,20
 82 931 82 931 82 730 c 1,13,14
41 642 m 25,0,-1
 41 614 l 25,1,-1
 27 628 l 25,2,-1
 55 628 l 1049,3,-1
41 669 m 128,-1,5
 59 669 59 669 70 658 c 0,6,7
 82 646 82 646 82 628 c 0,7,8
 82 608 82 608 70 597 c 0,9,10
 60 587 60 587 41 587 c 128,-1,11
 22 587 22 587 12 597 c 0,12,13
 0 608 0 608 0 628 c 0,14,15
 0 646 0 646 12 658 c 0,16,17
 23 669 23 669 41 669 c 128,-1,5
41 639 m 25,0,-1
 41 612 l 25,1,-1
 27 625 l 25,2,-1
 55 625 l 1049,3,-1
41 666 m 128,-1,5
 59 666 59 666 70 655 c 0,6,7
 82 643 82 643 82 625 c 0,7,8
 82 605 82 605 70 594 c 0,9,10
 60 584 60 584 41 584 c 128,-1,11
 22 584 22 584 12 594 c 0,12,13
 0 605 0 605 0 625 c 0,14,15
 0 643 0 643 12 655 c 0,16,17
 23 666 23 666 41 666 c 128,-1,5
EndSplineSet
Refer: 281 57352 S 1 0 0 1 0 0 2
LCarets2: 1 0
EndChar

StartChar: bi
Encoding: 983063 983063 298
Width: 240
VWidth: 2095
GlyphClass: 3
Flags: W
LayerCount: 3
Fore
SplineSet
82 682 m 1,0,1
 114 715 114 715 146 748 c 0,2,3
 227 829 227 829 225 869 c 0,0,0
 221 945 221 945 160 949 c 0,4,5
 82 954 82 954 82 834 c 0,6,7
 82 755 82 755 82 682 c 1,0,1
81 571 m 1,10,11
 81 571 81 571 0 584 c 5,14,-1
 0 836 l 2,15,16
 0 1032 0 1032 158 1031 c 0,17,18
 230 1030 230 1030 272 970 c 0,0,0
 342 870 342 870 270 763 c 0,0,0
 255 740 255 740 210 696 c 0,19,20
 164 649 164 649 81 571 c 1,10,11
41 598 m 25,0,-1
 41 571 l 25,1,-1
 27 584 l 25,2,-1
 55 584 l 1049,3,-1
41 625 m 128,-1,5
 59 625 59 625 70 614 c 0,6,7
 82 602 82 602 82 584 c 0,7,8
 82 564 82 564 70 553 c 0,9,10
 60 543 60 543 41 543 c 128,-1,11
 22 543 22 543 12 553 c 0,12,13
 0 564 0 564 0 584 c 0,14,15
 0 602 0 602 12 614 c 0,16,17
 23 625 23 625 41 625 c 128,-1,5
41 601 m 25,0,-1
 41 574 l 25,1,-1
 27 588 l 25,2,-1
 55 588 l 1049,3,-1
41 629 m 128,-1,5
 59 629 59 629 70 618 c 0,6,7
 82 606 82 606 82 588 c 0,7,8
 82 568 82 568 70 556 c 0,9,10
 60 546 60 546 41 546.5 c 128,-1,11
 22 547 22 547 12 556 c 0,12,13
 0 567 0 567 0 588 c 0,14,15
 0 606 0 606 12 618 c 0,16,17
 23 629 23 629 41 629 c 128,-1,5
EndSplineSet
Refer: 281 57352 S 1 0 0 1 0 0 2
LCarets2: 1 0
EndChar

StartChar: mi
Encoding: 983074 983074 309
Width: 512
VWidth: 0
GlyphClass: 3
Flags: W
LayerCount: 3
Fore
SplineSet
524 108 m 1,0,-1
 604 46 l 1,1,-1
 283 -306 l 1,2,-1
 283 128 l 1,3,-1
 281 612 l 2,4,5
 282 622 282 622 281 636 c 0,6,7
 281 736 281 736 231 735 c 2,8,-1
 227 735 l 2,9,10
 203 733 203 733 180.5 719 c 128,-1,11
 158 705 158 705 142.5 687 c 128,-1,12
 127 669 127 669 115 651.5 c 128,-1,13
 103 634 103 634 97 622 c 2,14,-1
 91 610 l 1,15,-1
 -14 681 l 1,16,17
 -11 688 -11 688 -4 699.5 c 128,-1,18
 3 711 3 711 27.5 740 c 128,-1,19
 52 769 52 769 79 791.5 c 128,-1,20
 106 814 106 814 148 832.5 c 128,-1,21
 190 851 190 851 234 851 c 0,22,23
 267 851 267 851 294.5 842 c 128,-1,24
 322 833 322 833 339.5 818 c 128,-1,25
 357 803 357 803 370 785 c 128,-1,26
 383 767 383 767 389 749 c 128,-1,27
 395 731 395 731 399 716 c 128,-1,28
 403 701 403 701 403 692 c 2,29,-1
 404 683 l 1,30,-1
 405 128 l 1,31,-1
 406 128 l 1,32,-1
 404 0 l 1,33,-1
 524 108 l 1,0,-1
EndSplineSet
EndChar

StartChar: Mi
Encoding: 983075 983075 310
Width: 849
VWidth: 0
GlyphClass: 3
Flags: W
LayerCount: 3
Fore
SplineSet
848 115 m 1,0,-1
 928 53 l 1,1,-1
 606 -299 l 1,2,-1
 606 135 l 1,3,-1
 604 618 l 2,4,5
 605 628 605 628 605 642 c 0,6,7
 605 742 605 742 555 742 c 2,8,-1
 551 742 l 2,9,10
 527 740 527 740 504 726 c 0,11,12
 481 712 481 712 466 694 c 0,13,14
 450 676 450 676 439 658 c 0,15,16
 427 641 427 641 421 629 c 2,17,-1
 415 616 l 1,18,-1
 309 687 l 1,19,20
 312 694 312 694 320 706 c 0,21,22
 327 718 327 718 351 747 c 0,23,24
 375 776 375 776 402 799 c 0,25,26
 429 822 429 822 472 840 c 0,27,28
 514 858 514 858 558 858 c 0,29,30
 591 858 591 858 618 849 c 0,31,32
 645 840 645 840 663 825 c 0,33,34
 680 810 680 810 694 792 c 0,35,36
 707 774 707 774 713 756 c 0,37,38
 719 738 719 738 723 723 c 0,39,40
 727 708 727 708 727 699 c 2,41,-1
 728 689 l 1,42,-1
 728 134 l 1,43,-1
 729 134 l 1,44,-1
 728 7 l 1,45,-1
 848 115 l 1,0,-1
EndSplineSet
Refer: 169 710 S 1 0 0 1 197 1229 2
LCarets2: 1 0
EndChar

StartChar: to
Encoding: 983076 983076 311
Width: 118
VWidth: 0
GlyphClass: 3
Flags: W
LayerCount: 3
Fore
SplineSet
87 1536 m 1,0,-1
 210 1536 l 1,1,2
 115 1273 115 1273 115 1073 c 0,3,4
 115 996 115 996 128.5 923 c 128,-1,5
 142 850 142 850 161 793 c 128,-1,6
 180 736 180 736 199 681 c 128,-1,7
 218 626 218 626 232 564 c 128,-1,8
 246 502 246 502 246 440 c 0,9,10
 246 439 246 439 246 420 c 128,-1,11
 246 401 246 401 246 385 c 0,12,13
 246 96 246 96 143 17 c 0,14,15
 109 -9 109 -9 59 -9 c 0,16,17
 13 -9 13 -9 -31 12.5 c 128,-1,18
 -75 34 -75 34 -105.5 76.5 c 128,-1,19
 -136 119 -136 119 -137 173 c 2,20,-1
 -137 200 l 2,21,22
 -137 294 -137 294 -117.5 362.5 c 128,-1,23
 -98 431 -98 431 -57 493.5 c 128,-1,24
 -16 556 -16 556 63 644 c 1,25,26
 60 652 60 652 50 683.5 c 128,-1,27
 40 715 40 715 36.5 725.5 c 128,-1,28
 33 736 33 736 24 765.5 c 128,-1,29
 15 795 15 795 12 810 c 128,-1,30
 9 825 9 825 2 852.5 c 128,-1,31
 -5 880 -5 880 -7.5 900.5 c 128,-1,32
 -10 921 -10 921 -14 948.5 c 128,-1,33
 -18 976 -18 976 -19 1002.5 c 128,-1,34
 -20 1029 -20 1029 -20 1058 c 0,35,36
 -21 1264 -21 1264 87 1536 c 1,0,-1
104 498 m 1,37,38
 61 446 61 446 37 413 c 128,-1,39
 13 380 13 380 0 351 c 128,-1,40
 -13 322 -13 322 -17 305.5 c 128,-1,41
 -21 289 -21 289 -27 253 c 0,42,43
 -30 237 -30 237 -30 214 c 0,44,45
 -30 169 -30 169 -17 135.5 c 128,-1,46
 -4 102 -4 102 18 102 c 0,47,48
 37 102 37 102 59 129 c 0,49,50
 121 208 121 208 121 351 c 0,51,52
 121 393 121 393 116 427 c 0,53,54
 112 461 112 461 104 498 c 1,37,38
EndSplineSet
LCarets2: 1 0
EndChar

StartChar: To
Encoding: 983077 983077 312
Width: 479
VWidth: 0
GlyphClass: 3
Flags: W
LayerCount: 3
Fore
SplineSet
494 1537 m 1,0,-1
 616 1537 l 1,1,2
 521 1274 521 1274 522 1075 c 0,3,4
 522 998 522 998 535.5 924.5 c 128,-1,5
 549 851 549 851 568 794 c 128,-1,6
 587 737 587 737 606 682 c 128,-1,7
 625 627 625 627 639 565 c 128,-1,8
 653 503 653 503 653 442 c 0,9,10
 653 441 653 441 653 422 c 128,-1,11
 653 403 653 403 653 386 c 0,12,13
 653 97 653 97 550 18 c 0,14,15
 516 -8 516 -8 466 -8 c 0,16,17
 420 -8 420 -8 376 13.5 c 128,-1,18
 332 35 332 35 301.5 78 c 128,-1,19
 271 121 271 121 270 174 c 2,20,-1
 270 201 l 2,21,22
 270 295 270 295 289.5 364 c 128,-1,23
 309 433 309 433 349.5 495 c 128,-1,24
 390 557 390 557 470 646 c 1,25,26
 467 654 467 654 456.5 685.5 c 128,-1,27
 446 717 446 717 443 727 c 128,-1,28
 440 737 440 737 431 766.5 c 128,-1,29
 422 796 422 796 419 811 c 128,-1,30
 416 826 416 826 409 853.5 c 128,-1,31
 402 881 402 881 399.5 901.5 c 128,-1,32
 397 922 397 922 393 949.5 c 128,-1,33
 389 977 389 977 387.5 1004 c 128,-1,34
 386 1031 386 1031 386 1059 c 0,35,36
 386 1265 386 1265 494 1537 c 1,0,-1
511 499 m 1,37,38
 468 447 468 447 444 414.5 c 128,-1,39
 420 382 420 382 407 353 c 128,-1,40
 394 324 394 324 390 307.5 c 128,-1,41
 386 291 386 291 380 254 c 0,42,43
 377 238 377 238 377 216 c 0,44,45
 377 171 377 171 390 137 c 128,-1,46
 403 103 403 103 425 103 c 0,47,48
 444 103 444 103 466 130 c 0,49,50
 528 209 528 209 528 352 c 0,51,52
 528 394 528 394 523 428 c 0,53,54
 519 462 519 462 511 499 c 1,37,38
428 2351 m 1,55,-1
 528 2351 l 1,56,-1
 696 2094 l 1,57,-1
 601 2094 l 1,58,-1
 478 2262 l 1,59,-1
 355 2094 l 1,60,-1
 260 2094 l 1,61,-1
 428 2351 l 1,55,-1
EndSplineSet
EndChar

StartChar: kly
Encoding: 983082 983082 317
Width: 58
VWidth: 0
GlyphClass: 3
Flags: W
LayerCount: 3
Fore
SplineSet
0 1536 m 1,0,-1
 122 1536 l 1,1,-1
 123 77 l 2,2,3
 123 59 123 59 109 -10 c 0,4,5
 101 -52 101 -52 62 -74.5 c 128,-1,6
 23 -97 23 -97 -18 -97 c 2,7,-1
 -29 -97 l 2,8,9
 -40 -98 -40 -98 -47 -98 c 0,10,11
 -85 -98 -85 -98 -123 -66 c 0,12,13
 -139 -52 -139 -52 -149.5 -27.5 c 128,-1,14
 -160 -3 -160 -3 -160 27 c 0,15,16
 -160 86 -160 86 -123 119 c 0,17,18
 -88 151 -88 151 -47 152 c 0,19,20
 -27 152 -27 152 0 99 c 1,21,-1
 0 1536 l 1,0,-1
EndSplineSet
EndChar

StartChar: Kly
Encoding: 983083 983083 318
Width: 519
VWidth: 0
GlyphClass: 3
Flags: W
LayerCount: 3
Fore
SplineSet
487 1536 m 1,0,-1
 609 1536 l 1,1,-1
 610 77 l 2,2,3
 611 58 611 58 597 -10 c 0,4,5
 588 -52 588 -52 548.5 -74.5 c 128,-1,6
 509 -97 509 -97 469 -97 c 2,7,-1
 458 -97 l 2,8,9
 447 -98 447 -98 440 -98 c 0,10,11
 404 -98 404 -98 364 -66 c 0,12,13
 348 -52 348 -52 337.5 -27.5 c 128,-1,14
 327 -3 327 -3 327 27 c 0,15,16
 327 86 327 86 364 119 c 0,17,18
 399 151 399 151 440 152 c 0,19,20
 461 152 461 152 487 99 c 1,21,-1
 487 1536 l 1,0,-1
477 2347 m 1,22,-1
 578 2347 l 1,23,-1
 745 2090 l 1,24,-1
 651 2090 l 1,25,-1
 527 2258 l 1,26,-1
 404 2090 l 1,27,-1
 309 2090 l 1,28,-1
 477 2347 l 1,22,-1
EndSplineSet
EndChar

StartChar: Di
Encoding: 983084 983084 319
Width: 535
VWidth: 0
GlyphClass: 3
Flags: W
LayerCount: 3
Fore
SplineSet
473 2351 m 1,0,-1
 573 2351 l 1,1,-1
 741 2094 l 1,2,-1
 646 2094 l 1,3,-1
 523 2262 l 1,4,-1
 400 2094 l 1,5,-1
 305 2094 l 1,6,-1
 473 2351 l 1,0,-1
EndSplineSet
Refer: 308 983073 S 1 0 0 1 475 -16 2
LCarets2: 1 0
EndChar

StartChar: ps
Encoding: 983085 983085 320
Width: 246
VWidth: 2095
GlyphClass: 3
Flags: W
LayerCount: 3
Fore
SplineSet
59 128 m 0,0,1
 103 128 103 128 135.5 143.5 c 128,-1,2
 168 159 168 159 185 185.5 c 128,-1,3
 202 212 202 212 209.5 241 c 128,-1,4
 217 270 217 270 217 303 c 0,5,6
 217 341 217 341 209 372 c 128,-1,7
 201 403 201 403 184 430 c 128,-1,8
 167 457 167 457 135 472 c 128,-1,9
 103 487 103 487 59 487 c 2,10,-1
 58 487 l 2,11,12
 18 487 18 487 -13 470 c 128,-1,13
 -44 453 -44 453 -62 426 c 128,-1,14
 -80 399 -80 399 -89 368 c 128,-1,15
 -98 337 -98 337 -98 306 c 0,16,17
 -98 232 -98 232 -59 180 c 128,-1,18
 -20 128 -20 128 59 128 c 0,0,1
56 595 m 128,-1,20
 109 595 109 595 150.5 576 c 128,-1,21
 192 557 192 557 231 521 c 0,22,23
 271 484 271 484 295.5 428.5 c 128,-1,24
 320 373 320 373 320 306 c 128,-1,25
 320 239 320 239 293.5 179 c 128,-1,26
 267 119 267 119 231 91 c 0,27,28
 185 55 185 55 146.5 36 c 128,-1,29
 108 17 108 17 56 17 c 0,30,31
 3 17 3 17 -36.5 36 c 128,-1,32
 -76 55 -76 55 -119 91 c 0,33,34
 -157 122 -157 122 -181 180 c 128,-1,35
 -205 238 -205 238 -205 306 c 0,36,37
 -205 443 -205 443 -119 521 c 0,38,39
 -79 556 -79 556 -38 575.5 c 128,-1,19
 3 595 3 595 56 595 c 128,-1,20
125 784 m 1,40,-1
 180 838 l 1,41,-1
 183 840 l 1,42,-1
 185 842 l 2,43,44
 212 874 212 874 242.5 1068 c 128,-1,45
 273 1262 273 1262 274 1337 c 0,46,47
 274 1412 274 1412 201 1412 c 0,48,49
 178 1411 178 1411 162.5 1405 c 128,-1,50
 147 1399 147 1399 139 1386 c 128,-1,51
 131 1373 131 1373 128.5 1365.5 c 128,-1,52
 126 1358 126 1358 123 1343 c 1,53,-1
 123 1337 l 2,54,55
 125 1292 125 1292 125 971 c 2,56,-1
 125 841 l 1,57,-1
 125 784 l 1,40,-1
123 614 m 1,58,-1
 122 157 l 1,59,-1
 123 75 l 2,60,61
 123 43 123 43 147 43 c 0,62,63
 166 43 166 43 194 62.5 c 128,-1,64
 222 82 222 82 242 108 c 1,65,-1
 320 46 l 1,66,67
 260 -4 260 -4 221 -23 c 128,-1,68
 182 -42 182 -42 123 -42 c 0,69,70
 71 -42 71 -42 35.5 -13 c 128,-1,71
 0 16 0 16 0 63 c 2,72,-1
 0 155 l 1,73,-1
 2 1341 l 1,74,-1
 2 1342 l 1,75,76
 5 1401 5 1401 25 1444 c 0,77,78
 67 1535 67 1535 201 1535 c 0,79,80
 291 1535 291 1535 343.5 1478 c 128,-1,81
 396 1421 396 1421 396 1338 c 0,82,83
 396 1309 396 1309 391.5 1252 c 128,-1,84
 387 1195 387 1195 374 1109 c 128,-1,85
 361 1023 361 1023 342 943.5 c 128,-1,86
 323 864 323 864 289.5 794.5 c 128,-1,87
 256 725 256 725 215 698 c 0,88,89
 200 688 200 688 185.5 674.5 c 128,-1,90
 171 661 171 661 153 643 c 128,-1,91
 135 625 135 625 129 619 c 2,92,-1
 123 614 l 1,58,-1
EndSplineSet
EndChar

StartChar: Ps
Encoding: 983086 983086 321
Width: 637
VWidth: 2095
GlyphClass: 3
Flags: W
LayerCount: 3
Fore
SplineSet
455 128 m 0,0,1
 499 128 499 128 531.5 143.5 c 128,-1,2
 564 159 564 159 581 185.5 c 128,-1,3
 598 212 598 212 605.5 241 c 128,-1,4
 613 270 613 270 613 303 c 0,5,6
 613 341 613 341 605 372 c 128,-1,7
 597 403 597 403 580 430 c 128,-1,8
 563 457 563 457 531 472 c 128,-1,9
 499 487 499 487 455 487 c 2,10,-1
 454 487 l 2,11,12
 414 487 414 487 383 470 c 128,-1,13
 352 453 352 453 334 426 c 128,-1,14
 316 399 316 399 307 368 c 128,-1,15
 298 337 298 337 298 306 c 0,16,17
 298 232 298 232 337 180 c 128,-1,18
 376 128 376 128 455 128 c 0,0,1
452 595 m 128,-1,20
 505 595 505 595 546.5 576 c 128,-1,21
 588 557 588 557 627 521 c 0,22,23
 667 484 667 484 691.5 428.5 c 128,-1,24
 716 373 716 373 716 306 c 128,-1,25
 716 239 716 239 689.5 179 c 128,-1,26
 663 119 663 119 627 91 c 0,27,28
 581 55 581 55 542.5 36 c 128,-1,29
 504 17 504 17 452 17 c 0,30,31
 399 17 399 17 359 36 c 128,-1,32
 319 55 319 55 277 91 c 0,33,34
 239 122 239 122 214.5 180 c 128,-1,35
 190 238 190 238 190 306 c 0,36,37
 190 443 190 443 277 521 c 0,38,39
 317 556 317 556 358 575.5 c 128,-1,19
 399 595 399 595 452 595 c 128,-1,20
521 784 m 1,40,-1
 575 838 l 1,41,-1
 579 840 l 1,42,-1
 581 842 l 2,43,44
 608 874 608 874 638.5 1068 c 128,-1,45
 669 1262 669 1262 670 1337 c 0,46,47
 670 1412 670 1412 597 1412 c 0,48,49
 574 1411 574 1411 558.5 1405 c 128,-1,50
 543 1399 543 1399 535 1386 c 128,-1,51
 527 1373 527 1373 524.5 1365.5 c 128,-1,52
 522 1358 522 1358 519 1343 c 1,53,-1
 519 1337 l 2,54,55
 521 1292 521 1292 521 971 c 2,56,-1
 521 841 l 1,57,-1
 521 784 l 1,40,-1
519 614 m 1,58,-1
 518 157 l 1,59,-1
 519 75 l 2,60,61
 519 43 519 43 543 43 c 0,62,63
 562 43 562 43 590 62.5 c 128,-1,64
 618 82 618 82 638 108 c 1,65,-1
 716 46 l 1,66,67
 656 -4 656 -4 617 -23 c 128,-1,68
 578 -42 578 -42 519 -42 c 0,69,70
 467 -42 467 -42 431.5 -13 c 128,-1,71
 396 16 396 16 396 63 c 2,72,-1
 396 155 l 1,73,-1
 398 1341 l 1,74,-1
 398 1342 l 1,75,76
 401 1401 401 1401 421 1444 c 0,77,78
 463 1535 463 1535 597 1535 c 0,79,80
 687 1535 687 1535 739.5 1478 c 128,-1,81
 792 1421 792 1421 792 1338 c 0,82,83
 792 1309 792 1309 787.5 1252 c 128,-1,84
 783 1195 783 1195 770 1109 c 128,-1,85
 757 1023 757 1023 738 943.5 c 128,-1,86
 719 864 719 864 685.5 794.5 c 128,-1,87
 652 725 652 725 611 698 c 0,88,89
 596 688 596 688 581.5 674.5 c 128,-1,90
 567 661 567 661 549 643 c 128,-1,91
 531 625 531 625 525 619 c 2,92,-1
 519 614 l 1,58,-1
440 2347 m 1,93,-1
 541 2347 l 1,94,-1
 709 2090 l 1,95,-1
 614 2090 l 1,96,-1
 490 2258 l 1,97,-1
 367 2090 l 1,98,-1
 272 2090 l 1,99,-1
 440 2347 l 1,93,-1
EndSplineSet
EndChar

StartChar: ksz
Encoding: 983087 983087 322
Width: 500
VWidth: 0
GlyphClass: 3
LigCaretCntFixed: 1
Flags: W
LayerCount: 3
Fore
SplineSet
-119 1536 m 1,0,-1
 3 1536 l 1,1,-1
 389 75 l 2,2,3
 398 44 398 44 421 44 c 0,4,5
 440 44 440 44 463.5 63.5 c 128,-1,6
 487 83 487 83 500 108 c 1,7,-1
 594 46 l 1,8,9
 548 -4 548 -4 513.5 -23 c 128,-1,10
 479 -42 479 -42 420 -42 c 0,11,12
 368 -42 368 -42 325 -12.5 c 128,-1,13
 282 17 282 17 270 63 c 2,14,-1
 -119 1536 l 1,0,-1
EndSplineSet
LCarets2: 2 197 197
EndChar

StartChar: Ksz
Encoding: 983088 983088 323
Width: 1466
VWidth: 0
GlyphClass: 3
Flags: W
LayerCount: 3
Fore
SplineSet
846 1536 m 1,0,-1
 968 1536 l 1,1,-1
 1354 75 l 2,2,3
 1363 44 1363 44 1386 44 c 0,4,5
 1405 44 1405 44 1428.5 63.5 c 128,-1,6
 1452 83 1452 83 1465 108 c 1,7,-1
 1559 46 l 1,8,9
 1513 -4 1513 -4 1478.5 -23 c 128,-1,10
 1444 -42 1444 -42 1385 -42 c 0,11,12
 1333 -42 1333 -42 1290 -12.5 c 128,-1,13
 1247 17 1247 17 1235 63 c 2,14,-1
 846 1536 l 1,0,-1
678 2331 m 1,15,-1
 778 2331 l 1,16,-1
 946 2074 l 1,17,-1
 851 2074 l 1,18,-1
 728 2241 l 1,19,-1
 605 2074 l 1,20,-1
 510 2074 l 1,21,-1
 678 2331 l 1,15,-1
EndSplineSet
EndChar

StartChar: psz
Encoding: 983089 983089 324
Width: 492
VWidth: 2095
GlyphClass: 3
LigCaretCntFixed: 1
Flags: W
LayerCount: 3
Fore
SplineSet
197 784 m 1,0,-1
 238 838 l 1,1,-1
 240 840 l 1,2,-1
 242 842 l 2,3,4
 250 856 250 856 250 910 c 0,5,6
 250 995 250 995 232 1140 c 128,-1,7
 214 1285 214 1285 201 1337 c 0,8,9
 182 1412 182 1412 107 1412 c 0,10,11
 72 1411 72 1411 59.5 1396.5 c 128,-1,12
 47 1382 47 1382 47 1359 c 0,13,14
 47 1356 47 1356 47.5 1350.5 c 128,-1,15
 48 1345 48 1345 48 1343 c 2,16,-1
 50 1337 l 2,17,18
 62 1298 62 1298 149 971 c 0,19,20
 156 945 156 945 166.5 901 c 128,-1,21
 177 857 177 857 182 841 c 2,22,-1
 197 784 l 1,0,-1
240 614 m 1,23,-1
 359 157 l 1,24,-1
 382 75 l 2,25,26
 391 43 391 43 414 43 c 0,27,28
 433 43 433 43 456 62.5 c 128,-1,29
 479 82 479 82 493 108 c 1,30,-1
 587 46 l 1,31,32
 541 -4 541 -4 506.5 -23 c 128,-1,33
 472 -42 472 -42 413 -42 c 0,34,35
 361 -42 361 -42 318 -13 c 128,-1,36
 275 16 275 16 263 63 c 2,37,-1
 238 155 l 1,38,-1
 -73 1341 l 1,39,-1
 -73 1342 l 1,40,41
 -81 1383 -81 1383 -81 1406 c 0,42,43
 -81 1425 -81 1425 -77 1444 c 0,44,45
 -60 1535 -60 1535 74 1535 c 0,46,47
 164 1535 164 1535 232.5 1477.5 c 128,-1,48
 301 1420 301 1420 322 1338 c 0,49,50
 336 1285 336 1285 354 1163.5 c 128,-1,51
 372 1042 372 1042 372 933 c 0,52,53
 372 747 372 747 311 698 c 0,54,55
 299 688 299 688 287.5 675 c 128,-1,56
 276 662 276 662 262.5 643.5 c 128,-1,57
 249 625 249 625 245 619 c 2,58,-1
 240 614 l 1,23,-1
EndSplineSet
LCarets2: 2 197 197
EndChar

StartChar: Psz
Encoding: 983090 983090 325
Width: 1184
VWidth: 2095
GlyphClass: 3
Flags: W
LayerCount: 3
Fore
SplineSet
890 784 m 1,0,-1
 930 838 l 1,1,-1
 934 840 l 1,2,-1
 935 842 l 2,3,4
 943 857 943 857 943 909 c 0,5,6
 943 994 943 994 925 1139 c 128,-1,7
 907 1284 907 1284 894 1337 c 0,8,9
 874 1412 874 1412 801 1412 c 0,10,11
 766 1411 766 1411 753.5 1396 c 128,-1,12
 741 1381 741 1381 741 1359 c 2,13,-1
 741 1343 l 1,14,-1
 743 1337 l 1,15,16
 769 1250 769 1250 841 971 c 0,17,18
 849 942 849 942 875 841 c 2,19,-1
 890 784 l 1,0,-1
933 614 m 1,20,-1
 1053 157 l 1,21,-1
 1075 75 l 2,22,23
 1084 43 1084 43 1108 43 c 0,24,25
 1127 43 1127 43 1149.5 62.5 c 128,-1,26
 1172 82 1172 82 1186 108 c 1,27,-1
 1280 46 l 1,28,29
 1234 -4 1234 -4 1199.5 -23 c 128,-1,30
 1165 -42 1165 -42 1106 -42 c 0,31,32
 1054 -42 1054 -42 1011 -13 c 128,-1,33
 968 16 968 16 956 63 c 2,34,-1
 931 155 l 1,35,-1
 621 1341 l 1,36,-1
 621 1342 l 1,37,38
 613 1382 613 1382 612 1405 c 0,39,40
 612 1418 612 1418 616 1444 c 0,41,42
 625 1487 625 1487 659.5 1511 c 128,-1,43
 694 1535 694 1535 768 1535 c 0,44,45
 858 1535 858 1535 925.5 1478 c 128,-1,46
 993 1421 993 1421 1015 1338 c 0,47,48
 1029 1285 1029 1285 1047 1163.5 c 128,-1,49
 1065 1042 1065 1042 1065 934 c 0,50,51
 1065 748 1065 748 1004 698 c 0,52,53
 992 688 992 688 980.5 674.5 c 128,-1,54
 969 661 969 661 956 643 c 128,-1,55
 943 625 943 625 938 619 c 2,56,-1
 933 614 l 1,20,-1
518 2343 m 1,57,-1
 618 2343 l 1,58,-1
 786 2086 l 1,59,-1
 692 2086 l 1,60,-1
 568 2253 l 1,61,-1
 445 2086 l 1,62,-1
 350 2086 l 1,63,-1
 518 2343 l 1,57,-1
EndSplineSet
EndChar

StartChar: fsz
Encoding: 983091 983091 326
Width: 571
VWidth: 0
GlyphClass: 3
LigCaretCntFixed: 1
Flags: W
LayerCount: 3
Fore
SplineSet
673 40 m 1,0,1
 591 -21 591 -21 523 -21 c 0,2,3
 494 -21 494 -21 466 -10 c 128,-1,4
 438 1 438 1 413.5 17.5 c 128,-1,5
 389 34 389 34 358 65.5 c 128,-1,6
 327 97 327 97 303 124.5 c 128,-1,7
 279 152 279 152 242 199 c 0,8,9
 190 263 190 263 120.5 422 c 128,-1,10
 51 581 51 581 7 747 c 1,11,-1
 3 762 l 1,12,13
 -29 888 -29 888 -54 1039 c 128,-1,14
 -79 1190 -79 1190 -79 1309 c 0,15,16
 -79 1532 -79 1532 21 1532 c 0,17,18
 95 1532 95 1532 219 1411 c 1,19,-1
 258 1265 l 1,20,21
 158 1358 158 1358 103 1358 c 0,22,23
 40 1358 40 1358 40 1234 c 0,24,25
 40 1104 40 1104 114 820 c 2,26,-1
 129 763 l 2,27,28
 171 605 171 605 230.5 465.5 c 128,-1,29
 290 326 290 326 332 258 c 0,30,31
 438 87 438 87 514 87 c 0,32,33
 529 87 529 87 541.5 94 c 128,-1,34
 554 101 554 101 559 108 c 2,35,-1
 564 114 l 1,36,-1
 673 40 l 1,0,1
EndSplineSet
LCarets2: 2 199 199
EndChar

StartChar: Fsz
Encoding: 983092 983092 327
Width: 1219
VWidth: 0
GlyphClass: 2
Flags: W
LayerCount: 3
Fore
SplineSet
1328 40 m 1,0,1
 1246 -21 1246 -21 1178 -21 c 0,2,3
 1149 -21 1149 -21 1121 -10 c 128,-1,4
 1093 1 1093 1 1068.5 17.5 c 128,-1,5
 1044 34 1044 34 1013 65.5 c 128,-1,6
 982 97 982 97 958.5 124.5 c 128,-1,7
 935 152 935 152 897 199 c 0,8,9
 845 263 845 263 775.5 422 c 128,-1,10
 706 581 706 581 662 747 c 1,11,-1
 659 762 l 1,12,13
 627 888 627 888 602 1039 c 128,-1,14
 577 1190 577 1190 577 1309 c 0,15,16
 577 1532 577 1532 677 1532 c 0,17,18
 751 1532 751 1532 874 1411 c 1,19,-1
 913 1265 l 1,20,21
 813 1358 813 1358 758 1358 c 0,22,23
 695 1358 695 1358 695 1234 c 0,24,25
 695 1104 695 1104 769 820 c 2,26,-1
 784 763 l 2,27,28
 826 605 826 605 885.5 465.5 c 128,-1,29
 945 326 945 326 987 258 c 0,30,31
 1093 87 1093 87 1169 87 c 0,32,33
 1184 87 1184 87 1197 94 c 128,-1,34
 1210 101 1210 101 1214 108 c 2,35,-1
 1219 114 l 1,36,-1
 1328 40 l 1,0,1
489 2339 m 1,37,-1
 590 2339 l 1,38,-1
 758 2082 l 1,39,-1
 663 2082 l 1,40,-1
 539 2249 l 1,41,-1
 416 2082 l 1,42,-1
 322 2082 l 1,43,-1
 489 2339 l 1,37,-1
EndSplineSet
EndChar

StartChar: hsz
Encoding: 983093 983093 328
Width: 873
VWidth: 0
GlyphClass: 3
Flags: W
LayerCount: 3
Fore
SplineSet
765 75 m 2,0,1
 774 44 774 44 797 44 c 0,2,3
 816 44 816 44 839 63.5 c 128,-1,4
 862 83 862 83 875 108 c 1,5,-1
 969 46 l 1,6,7
 922 -4 922 -4 888.5 -23 c 128,-1,8
 855 -42 855 -42 795 -42 c 0,9,10
 743 -42 743 -42 700.5 -12.5 c 128,-1,11
 658 17 658 17 646 63 c 2,12,-1
 312 1296 l 2,13,14
 311 1306 311 1306 307 1320 c 0,15,16
 280 1420 280 1420 231 1420 c 2,17,-1
 227 1420 l 2,18,19
 204 1418 204 1418 184.5 1404 c 128,-1,20
 165 1390 165 1390 154 1372 c 128,-1,21
 143 1354 143 1354 135.5 1336.5 c 128,-1,22
 128 1319 128 1319 126 1307 c 2,23,-1
 124 1294 l 1,24,-1
 -1 1365 l 1,25,26
 0 1368 0 1368 1.5 1374.5 c 128,-1,27
 3 1381 3 1381 11.5 1399 c 128,-1,28
 20 1417 20 1417 29.5 1433 c 128,-1,29
 39 1449 39 1449 56.5 1468.5 c 128,-1,30
 74 1488 74 1488 93.5 1502.5 c 128,-1,31
 113 1517 113 1517 142 1526.5 c 128,-1,32
 171 1536 171 1536 203 1536 c 0,33,34
 236 1536 236 1536 266 1527 c 128,-1,35
 296 1518 296 1518 317 1503 c 128,-1,36
 338 1488 338 1488 355.5 1469.5 c 128,-1,37
 373 1451 373 1451 384 1433.5 c 128,-1,38
 395 1416 395 1416 402.5 1401 c 128,-1,39
 410 1386 410 1386 414 1376 c 2,40,-1
 416 1367 l 1,41,-1
 765 75 l 2,0,1
EndSplineSet
EndChar

StartChar: Hsz
Encoding: 983094 983094 329
Width: 1355
VWidth: 0
GlyphClass: 2
Flags: W
LayerCount: 3
Fore
SplineSet
1242 75 m 2,0,1
 1251 44 1251 44 1275 44 c 0,2,3
 1294 44 1294 44 1317 63.5 c 128,-1,4
 1340 83 1340 83 1353 108 c 1,5,-1
 1447 46 l 1,6,7
 1400 -4 1400 -4 1366.5 -23 c 128,-1,8
 1333 -42 1333 -42 1273 -42 c 0,9,10
 1221 -42 1221 -42 1178.5 -12.5 c 128,-1,11
 1136 17 1136 17 1124 63 c 2,12,-1
 790 1296 l 2,13,14
 789 1306 789 1306 784 1320 c 0,15,16
 757 1420 757 1420 709 1420 c 2,17,-1
 705 1420 l 2,18,19
 682 1418 682 1418 662.5 1404 c 128,-1,20
 643 1390 643 1390 632 1372 c 128,-1,21
 621 1354 621 1354 613.5 1336.5 c 128,-1,22
 606 1319 606 1319 603 1307 c 2,23,-1
 601 1294 l 1,24,-1
 477 1365 l 1,25,26
 478 1368 478 1368 479.5 1374.5 c 128,-1,27
 481 1381 481 1381 489.5 1399 c 128,-1,28
 498 1417 498 1417 507.5 1433 c 128,-1,29
 517 1449 517 1449 534.5 1468.5 c 128,-1,30
 552 1488 552 1488 571.5 1502.5 c 128,-1,31
 591 1517 591 1517 620 1526.5 c 128,-1,32
 649 1536 649 1536 681 1536 c 0,33,34
 714 1536 714 1536 743.5 1527 c 128,-1,35
 773 1518 773 1518 794.5 1503 c 128,-1,36
 816 1488 816 1488 833.5 1469.5 c 128,-1,37
 851 1451 851 1451 861.5 1433.5 c 128,-1,38
 872 1416 872 1416 880 1401 c 128,-1,39
 888 1386 888 1386 892 1376 c 2,40,-1
 894 1367 l 1,41,-1
 1242 75 l 2,0,1
498 2343 m 1,42,-1
 598 2343 l 1,43,-1
 766 2086 l 1,44,-1
 671 2086 l 1,45,-1
 547 2253 l 1,46,-1
 425 2086 l 1,47,-1
 330 2086 l 1,48,-1
 498 2343 l 1,42,-1
EndSplineSet
EndChar

StartChar: tsz
Encoding: 983095 983095 330
Width: 342
VWidth: 2095
GlyphClass: 3
Flags: W
LayerCount: 3
Fore
SplineSet
-121 1536 m 1,0,-1
 3 1535 l 1,1,-1
 491 -323 l 1,2,-1
 491 -324 l 1,3,4
 499 -364 499 -364 499 -386 c 0,5,6
 499 -402 499 -402 494 -425 c 0,7,8
 486 -468 486 -468 452 -492.5 c 128,-1,9
 418 -517 418 -517 343 -517 c 0,10,11
 253 -517 253 -517 185 -459 c 128,-1,12
 117 -401 117 -401 96 -319 c 0,13,14
 80 -259 80 -259 80 -188 c 0,15,16
 80 -13 80 -13 174 63 c 0,17,18
 186 73 186 73 197.5 86.5 c 128,-1,19
 209 100 209 100 222.5 118.5 c 128,-1,20
 236 137 236 137 240 142 c 2,21,-1
 245 147 l 1,22,-1
 -121 1536 l 1,0,-1
287 -23 m 1,23,-1
 246 -76 l 1,24,-1
 244 -79 l 1,25,-1
 242 -81 l 2,26,27
 228 -109 228 -109 219 -155 c 128,-1,28
 210 -201 210 -201 210 -247 c 0,29,30
 210 -289 210 -289 218 -318 c 0,31,32
 237 -393 237 -393 310 -393 c 0,33,34
 346 -392 346 -392 358.5 -377 c 128,-1,35
 371 -362 371 -362 371 -339 c 0,36,37
 371 -336 371 -336 370.5 -331 c 128,-1,38
 370 -326 370 -326 370 -324 c 2,39,-1
 369 -318 l 2,40,41
 366 -309 366 -309 365 -309 c 2,42,-1
 365 -310 l 2,43,44
 364 -310 364 -310 337 -210 c 0,45,46
 330 -186 330 -186 318.5 -142 c 128,-1,47
 307 -98 307 -98 302 -80 c 2,48,-1
 287 -23 l 1,23,-1
EndSplineSet
EndChar

StartChar: Tsz
Encoding: 983096 983096 331
Width: 1067
VWidth: 2095
GlyphClass: 2
Flags: W
LayerCount: 3
Fore
SplineSet
630 1536 m 1,0,-1
 754 1535 l 1,1,-1
 1242 -323 l 1,2,-1
 1242 -324 l 1,3,4
 1250 -364 1250 -364 1250 -386 c 0,5,6
 1250 -402 1250 -402 1245 -425 c 0,7,8
 1237 -468 1237 -468 1203 -492.5 c 128,-1,9
 1169 -517 1169 -517 1094 -517 c 0,10,11
 1004 -517 1004 -517 936 -459 c 128,-1,12
 868 -401 868 -401 847 -319 c 0,13,14
 831 -259 831 -259 831 -188 c 0,15,16
 831 -13 831 -13 925 63 c 0,17,18
 937 73 937 73 948.5 86.5 c 128,-1,19
 960 100 960 100 973 118.5 c 128,-1,20
 986 137 986 137 991 142 c 2,21,-1
 996 147 l 1,22,-1
 630 1536 l 1,0,-1
1038 -23 m 1,23,-1
 997 -76 l 1,24,-1
 995 -79 l 1,25,-1
 993 -81 l 2,26,27
 979 -109 979 -109 970 -155 c 128,-1,28
 961 -201 961 -201 961 -247 c 0,29,30
 961 -289 961 -289 969 -318 c 0,31,32
 988 -393 988 -393 1061 -393 c 0,33,34
 1097 -392 1097 -392 1109.5 -377 c 128,-1,35
 1122 -362 1122 -362 1122 -339 c 0,36,37
 1122 -336 1122 -336 1121.5 -331 c 128,-1,38
 1121 -326 1121 -326 1121 -324 c 2,39,-1
 1120 -318 l 2,40,41
 1117 -309 1117 -309 1116 -309 c 2,42,-1
 1115 -310 l 2,43,44
 1114 -310 1114 -310 1087 -210 c 0,45,46
 1080 -186 1080 -186 1068.5 -142 c 128,-1,47
 1057 -98 1057 -98 1053 -80 c 2,48,-1
 1038 -23 l 1,23,-1
498 2347 m 1,49,-1
 598 2347 l 1,50,-1
 766 2090 l 1,51,-1
 671 2090 l 1,52,-1
 547 2258 l 1,53,-1
 425 2090 l 1,54,-1
 330 2090 l 1,55,-1
 498 2347 l 1,49,-1
EndSplineSet
EndChar

StartChar: kszi
Encoding: 983097 983097 332
Width: 490
VWidth: 0
GlyphClass: 3
Flags: W
LayerCount: 3
Fore
SplineSet
-120 1537 m 1,0,-1
 3 1536 l 1,1,-1
 407 0 l 1,2,-1
 501 107 l 1,3,-1
 595 46 l 1,4,-1
 366 -306 l 1,5,-1
 -120 1537 l 1,0,-1
EndSplineSet
LCarets2: 2 0 0
EndChar

StartChar: Kszi
Encoding: 983098 983098 333
Width: 1159
VWidth: 0
GlyphClass: 3
Flags: W
LayerCount: 3
Fore
SplineSet
542 1537 m 1,0,-1
 665 1537 l 1,1,-1
 1069 1 l 1,2,-1
 1163 108 l 1,3,-1
 1257 47 l 1,4,-1
 1027 -305 l 1,5,-1
 542 1537 l 1,0,-1
477 2327 m 1,6,-1
 578 2327 l 1,7,-1
 745 2070 l 1,8,-1
 651 2070 l 1,9,-1
 527 2237 l 1,10,-1
 404 2070 l 1,11,-1
 309 2070 l 1,12,-1
 477 2327 l 1,6,-1
EndSplineSet
EndChar

StartChar: pszi
Encoding: 983099 983099 334
Width: 510
VWidth: 2095
GlyphClass: 3
Flags: W
LayerCount: 3
Fore
SplineSet
216 784 m 1,0,-1
 257 838 l 1,1,-1
 260 840 l 1,2,-1
 261 842 l 2,3,4
 269 856 269 856 270 910 c 0,5,6
 270 995 270 995 251.5 1140 c 128,-1,7
 233 1285 233 1285 221 1337 c 0,8,9
 202 1412 202 1412 127 1412 c 0,10,11
 92 1411 92 1411 79.5 1396.5 c 128,-1,12
 67 1382 67 1382 67 1359 c 0,13,14
 67 1356 67 1356 67.5 1350.5 c 128,-1,15
 68 1345 68 1345 68 1343 c 2,16,-1
 70 1337 l 2,17,18
 78 1311 78 1311 168 971 c 0,19,20
 175 946 175 946 186 901.5 c 128,-1,21
 197 857 197 857 202 841 c 2,22,-1
 216 784 l 1,0,-1
388 127 m 1,23,-1
 421 0 l 1,24,-1
 515 107 l 1,25,-1
 608 46 l 1,26,-1
 380 -306 l 1,27,-1
 265 128 l 1,28,-1
 -53 1341 l 1,29,-1
 -53 1342 l 1,30,31
 -61 1382 -61 1382 -61 1405 c 0,32,33
 -61 1421 -61 1421 -57 1444 c 0,34,35
 -49 1487 -49 1487 -14.5 1511 c 128,-1,36
 20 1535 20 1535 94 1535 c 0,37,38
 184 1535 184 1535 251.5 1478 c 128,-1,39
 319 1421 319 1421 341 1338 c 0,40,41
 355 1284 355 1284 373.5 1162 c 128,-1,42
 392 1040 392 1040 392 932 c 0,43,44
 392 748 392 748 330 698 c 0,45,46
 318 688 318 688 307 675 c 128,-1,47
 296 662 296 662 282.5 643.5 c 128,-1,48
 269 625 269 625 265 619 c 2,49,-1
 259 614 l 1,50,-1
 388 128 l 1,51,-1
 388 127 l 1,23,-1
EndSplineSet
EndChar

StartChar: Pszi
Encoding: 983100 983100 335
Width: 1041
VWidth: 2095
GlyphClass: 3
Flags: W
LayerCount: 3
Fore
SplineSet
750 786 m 1,0,-1
 790 840 l 1,1,-1
 793 842 l 1,2,-1
 795 844 l 2,3,4
 803 860 803 860 803 911 c 0,5,6
 803 996 803 996 784.5 1141 c 128,-1,7
 766 1286 766 1286 753 1339 c 0,8,9
 733 1414 733 1414 660 1414 c 0,10,11
 625 1413 625 1413 612.5 1398 c 128,-1,12
 600 1383 600 1383 600 1361 c 2,13,-1
 600 1345 l 1,14,-1
 602 1339 l 2,15,16
 624 1266 624 1266 700 973 c 0,17,18
 708 944 708 944 735 843 c 2,19,-1
 750 786 l 1,0,-1
921 129 m 1,20,-1
 954 2 l 1,21,-1
 1047 109 l 1,22,-1
 1141 48 l 1,23,-1
 912 -304 l 1,24,-1
 797 130 l 1,25,-1
 480 1343 l 1,26,-1
 480 1344 l 1,27,28
 472 1384 472 1384 472 1407 c 0,29,30
 472 1420 472 1420 476 1446 c 0,31,32
 485 1489 485 1489 519 1513 c 128,-1,33
 553 1537 553 1537 627 1537 c 0,34,35
 717 1537 717 1537 785 1480 c 128,-1,36
 853 1423 853 1423 874 1340 c 0,37,38
 888 1287 888 1287 906 1165.5 c 128,-1,39
 924 1044 924 1044 924 936 c 0,40,41
 924 750 924 750 863 700 c 0,42,43
 851 690 851 690 839.5 676.5 c 128,-1,44
 828 663 828 663 815 645 c 128,-1,45
 802 627 802 627 797 621 c 2,46,-1
 793 616 l 1,47,-1
 921 130 l 1,48,-1
 921 129 l 1,20,-1
498 2347 m 1,49,-1
 598 2347 l 1,50,-1
 766 2090 l 1,51,-1
 671 2090 l 1,52,-1
 547 2258 l 1,53,-1
 425 2090 l 1,54,-1
 330 2090 l 1,55,-1
 498 2347 l 1,49,-1
EndSplineSet
EndChar

StartChar: fsi
Encoding: 983101 983101 336
Width: 588
VWidth: 0
GlyphClass: 3
Flags: W
LayerCount: 3
Fore
SplineSet
51 747 m 0,0,1
 49 752 49 752 46 763.5 c 128,-1,2
 43 775 43 775 42 780 c 0,3,4
 -49 1124 -49 1124 -49 1332 c 0,5,6
 -49 1532 -49 1532 46 1532 c 0,7,8
 120 1532 120 1532 243 1411 c 1,9,-1
 283 1265 l 1,10,11
 183 1358 183 1358 128 1358 c 0,12,13
 70 1358 70 1358 70 1253 c 0,14,15
 70 1152 70 1152 130 925 c 0,16,17
 149 853 149 853 158 820 c 2,18,-1
 172 763 l 2,19,20
 195 674 195 674 259.5 504.5 c 128,-1,21
 324 335 324 335 356 258 c 0,22,23
 359 252 359 252 367.5 231.5 c 128,-1,24
 376 211 376 211 383.5 194 c 128,-1,25
 391 177 391 177 395 168 c 2,26,-1
 481 -48 l 1,27,-1
 590 107 l 1,28,-1
 683 46 l 1,29,-1
 454 -306 l 1,30,-1
 266 199 l 2,31,32
 264 203 264 203 245.5 247 c 128,-1,33
 227 291 227 291 213.5 322.5 c 128,-1,34
 200 354 200 354 178 408 c 128,-1,35
 156 462 156 462 138.5 505.5 c 128,-1,36
 121 549 121 549 102.5 596.5 c 128,-1,37
 84 644 84 644 71 682.5 c 128,-1,38
 58 721 58 721 51 747 c 0,0,1
EndSplineSet
EndChar

StartChar: bl
Encoding: 983109 983109 344
Width: 68
VWidth: 0
GlyphClass: 3
Flags: W
LayerCount: 3
Fore
SplineSet
0 853 m 1,0,-1
 123 853 l 1,1,-1
 123 172 l 1,2,-1
 0 171 l 1,3,-1
 0 853 l 1,0,-1
0 300 m 1,4,-1
 122 300 l 1,5,-1
 123 168 l 1,6,7
 180 102 180 102 211 12.5 c 128,-1,8
 242 -77 242 -77 242 -162 c 0,9,10
 242 -248 242 -248 211 -303 c 128,-1,11
 180 -358 180 -358 122 -358 c 0,12,13
 0 -358 0 -358 0 -102 c 2,14,-1
 0 33 l 1,15,16
 -22 21 -22 21 -46 21 c 0,17,18
 -84 21 -84 21 -122 53 c 0,19,20
 -138 67 -138 67 -149 92 c 128,-1,21
 -160 117 -160 117 -160 146 c 0,22,23
 -160 205 -160 205 -122 239 c 0,24,25
 -87 271 -87 271 -46 271 c 0,26,27
 -20 271 -20 271 0 260 c 1,28,-1
 0 300 l 1,4,-1
123 98 m 1,29,-1
 123 -89 l 2,30,31
 123 -102 123 -102 123.5 -122.5 c 128,-1,32
 124 -143 124 -143 125.5 -170.5 c 128,-1,33
 127 -198 127 -198 130.5 -217 c 128,-1,34
 134 -236 134 -236 139 -236 c 0,35,36
 145 -236 145 -236 151 -219.5 c 128,-1,37
 157 -203 157 -203 161 -173.5 c 128,-1,38
 165 -144 165 -144 165 -110 c 0,39,40
 165 10 165 10 123 98 c 1,29,-1
125 739 m 1,41,-1
 180 793 l 1,42,-1
 183 795 l 1,43,-1
 185 797 l 1,44,45
 273 901 273 901 274 994 c 0,46,47
 274 1069 274 1069 201 1069 c 0,48,49
 178 1068 178 1068 162 1061 c 128,-1,50
 146 1054 146 1054 138.5 1040 c 128,-1,51
 131 1026 131 1026 128.5 1017.5 c 128,-1,52
 126 1009 126 1009 123 994 c 1,53,54
 125 949 125 949 125 879 c 2,55,-1
 125 796 l 1,56,-1
 125 739 l 1,41,-1
122 341 m 1,57,-1
 0 341 l 1,58,-1
 2 999 l 1,59,-1
 2 999 l 1,60,61
 5 1058 5 1058 25 1101 c 0,62,63
 67 1192 67 1192 201 1193 c 0,64,65
 291 1193 291 1193 343.5 1135.5 c 128,-1,66
 396 1078 396 1078 396 995 c 0,67,68
 396 963 396 963 387.5 923 c 128,-1,69
 379 883 379 883 360.5 833.5 c 128,-1,70
 342 784 342 784 304 735.5 c 128,-1,71
 266 687 266 687 215 653 c 0,72,73
 200 643 200 643 185.5 629.5 c 128,-1,74
 171 616 171 616 153 598 c 128,-1,75
 135 580 135 580 129 574 c 2,76,-1
 123 569 l 1,77,-1
 122 341 l 1,57,-1
EndSplineSet
LCarets2: 1 0
EndChar

StartChar: Bl
Encoding: 983110 983110 345
Width: 498
VWidth: 0
GlyphClass: 3
Flags: W
LayerCount: 3
Fore
SplineSet
410 853 m 1,0,-1
 532 853 l 1,1,-1
 532 172 l 1,2,-1
 410 171 l 1,3,-1
 410 853 l 1,0,-1
410 300 m 1,4,-1
 532 300 l 1,5,-1
 532 168 l 1,6,7
 589 102 589 102 620.5 12.5 c 128,-1,8
 652 -77 652 -77 652 -162 c 0,9,10
 652 -248 652 -248 621 -303 c 128,-1,11
 590 -358 590 -358 532 -358 c 0,12,13
 410 -358 410 -358 410 -102 c 2,14,-1
 410 33 l 1,15,16
 388 21 388 21 363 21 c 0,17,18
 325 21 325 21 287 53 c 0,19,20
 271 67 271 67 260.5 92 c 128,-1,21
 250 117 250 117 250 146 c 0,22,23
 250 205 250 205 287 239 c 0,24,25
 322 271 322 271 363 271 c 0,26,27
 389 271 389 271 410 260 c 1,28,-1
 410 300 l 1,4,-1
532 98 m 1,29,-1
 532 -89 l 2,30,31
 532 -102 532 -102 533 -122.5 c 128,-1,32
 534 -143 534 -143 535.5 -170.5 c 128,-1,33
 537 -198 537 -198 540.5 -217 c 128,-1,34
 544 -236 544 -236 549 -236 c 0,35,36
 555 -236 555 -236 561 -219.5 c 128,-1,37
 567 -203 567 -203 571 -173.5 c 128,-1,38
 575 -144 575 -144 575 -110 c 0,39,40
 574 10 574 10 532 98 c 1,29,-1
535 739 m 1,41,-1
 589 793 l 1,42,-1
 593 795 l 1,43,-1
 595 797 l 1,44,45
 683 901 683 901 683 994 c 0,46,47
 683 1069 683 1069 610 1069 c 0,48,49
 587 1068 587 1068 571.5 1061 c 128,-1,50
 556 1054 556 1054 548.5 1040 c 128,-1,51
 541 1026 541 1026 538 1017.5 c 128,-1,52
 535 1009 535 1009 532 994 c 1,53,54
 534 949 534 949 535 879 c 2,55,-1
 535 796 l 1,56,-1
 535 739 l 1,41,-1
532 341 m 1,57,-1
 410 341 l 1,58,-1
 412 999 l 1,59,-1
 412 999 l 1,60,61
 415 1058 415 1058 435 1101 c 0,62,63
 477 1192 477 1192 610 1193 c 0,64,65
 700 1193 700 1193 753 1135.5 c 128,-1,66
 806 1078 806 1078 806 995 c 0,67,68
 806 963 806 963 797 923 c 128,-1,69
 788 883 788 883 770 833.5 c 128,-1,70
 752 784 752 784 714 735.5 c 128,-1,71
 676 687 676 687 625 653 c 0,72,73
 610 643 610 643 595 629.5 c 128,-1,74
 580 616 580 616 562.5 598 c 128,-1,75
 545 580 545 580 539 574 c 2,76,-1
 532 569 l 1,77,-1
 532 341 l 1,57,-1
502 2343 m 1,78,-1
 602 2343 l 1,79,-1
 770 2086 l 1,80,-1
 675 2086 l 1,81,-1
 552 2253 l 1,82,-1
 429 2086 l 1,83,-1
 334 2086 l 1,84,-1
 502 2343 l 1,78,-1
EndSplineSet
EndChar

StartChar: Hly
Encoding: 983118 983118 353
Width: 723
VWidth: 0
GlyphClass: 3
Flags: W
LayerCount: 3
Fore
SplineSet
644 1260 m 1,0,-1
 642 1299 l 2,1,2
 643 1309 643 1309 643 1323 c 0,3,4
 643 1423 643 1423 593 1423 c 2,5,-1
 589 1423 l 2,6,7
 565 1421 565 1421 542.5 1407 c 128,-1,8
 520 1393 520 1393 504.5 1374.5 c 128,-1,9
 489 1356 489 1356 477 1339 c 128,-1,10
 465 1322 465 1322 459 1309 c 2,11,-1
 453 1297 l 1,12,-1
 347 1368 l 1,13,14
 350 1375 350 1375 357.5 1386.5 c 128,-1,15
 365 1398 365 1398 389.5 1427.5 c 128,-1,16
 414 1457 414 1457 441 1479.5 c 128,-1,17
 468 1502 468 1502 510 1520.5 c 128,-1,18
 552 1539 552 1539 596 1539 c 0,19,20
 629 1539 629 1539 656.5 1529.5 c 128,-1,21
 684 1520 684 1520 701.5 1505 c 128,-1,22
 719 1490 719 1490 732 1472 c 128,-1,23
 745 1454 745 1454 751 1436.5 c 128,-1,24
 757 1419 757 1419 761 1404 c 128,-1,25
 765 1389 765 1389 765 1379 c 2,26,-1
 766 1370 l 1,27,-1
 767 1259 l 1,28,-1
 644 1260 l 1,0,-1
644 1260 m 1,29,-1
 767 1260 l 1,30,-1
 767 578 l 1,31,-1
 644 577 l 1,32,-1
 644 1260 l 1,29,-1
644 302 m 1,33,-1
 766 302 l 1,34,-1
 767 76 l 2,35,36
 767 57 767 57 753 -11 c 0,37,38
 748 -40 748 -40 725 -60.5 c 128,-1,39
 702 -81 702 -81 676.5 -89.5 c 128,-1,40
 651 -98 651 -98 625 -98 c 0,41,42
 618 -98 618 -98 615 -98 c 0,43,44
 610 -99 610 -99 597 -99 c 0,45,46
 560 -99 560 -99 521 -68 c 0,47,48
 505 -54 505 -54 494 -28.5 c 128,-1,49
 483 -3 483 -3 483 26 c 0,50,51
 483 85 483 85 521 119 c 0,52,53
 556 151 556 151 597 151 c 0,54,55
 609 151 609 151 620 137.5 c 128,-1,56
 631 124 631 124 644 98 c 1,57,-1
 644 302 l 1,33,-1
644 853 m 1,58,-1
 767 853 l 1,59,-1
 767 172 l 1,60,-1
 644 171 l 1,61,-1
 644 853 l 1,58,-1
489 2347 m 1,62,-1
 590 2347 l 1,63,-1
 758 2090 l 1,64,-1
 663 2090 l 1,65,-1
 539 2258 l 1,66,-1
 416 2090 l 1,67,-1
 322 2090 l 1,68,-1
 489 2347 l 1,62,-1
EndSplineSet
EndChar

StartChar: zd
Encoding: 983133 983133 368
Width: 75
VWidth: 0
GlyphClass: 3
Flags: W
LayerCount: 3
Fore
SplineSet
106 587 m 1,0,1
 101 614 101 614 95.5 634 c 128,-1,2
 90 654 90 654 81 680 c 128,-1,3
 72 706 72 706 66 727 c 1,4,5
 65 726 65 726 64 724 c 0,6,7
 64 723 64 723 65 724 c 0,8,9
 79 724 79 724 153 768.5 c 128,-1,10
 227 813 227 813 254 847 c 0,11,12
 279 877 279 877 279 915 c 0,13,14
 279 943 279 943 265 961.5 c 128,-1,15
 251 980 251 980 225 980 c 0,16,17
 224 980 224 980 221.5 980 c 128,-1,18
 219 980 219 980 218 980 c 0,19,20
 128 970 128 970 128 810 c 0,21,22
 128 782 128 782 131 751 c 128,-1,23
 134 720 134 720 136.5 700 c 128,-1,24
 139 680 139 680 139 677 c 0,25,26
 139 618 139 618 174.5 491.5 c 128,-1,27
 210 365 210 365 210 296 c 0,28,29
 210 224 210 224 185 141 c 128,-1,30
 160 58 160 58 105 -1 c 1,31,-1
 -17 0 l 1,32,33
 36 57 36 57 61 139.5 c 128,-1,34
 86 222 86 222 86 294 c 0,35,36
 86 351 86 351 66.5 420 c 128,-1,37
 47 489 47 489 25 558 c 128,-1,38
 3 627 3 627 -1 675 c 0,39,40
 -11 788 -11 788 -12 856 c 0,41,42
 -12 902 -12 902 10.5 943 c 128,-1,43
 33 984 33 984 81 1031 c 0,44,45
 107 1056 107 1056 143.5 1070.5 c 128,-1,46
 180 1085 180 1085 219 1085 c 0,47,48
 289 1085 289 1085 336.5 1037.5 c 128,-1,49
 384 990 384 990 384 892 c 0,50,51
 384 889 384 889 384 887 c 0,52,53
 384 864 384 864 379 843.5 c 128,-1,54
 374 823 374 823 367.5 805.5 c 128,-1,55
 361 788 361 788 349 770.5 c 128,-1,56
 337 753 337 753 326 740 c 128,-1,57
 315 727 315 727 297 711.5 c 128,-1,58
 279 696 279 696 265 685.5 c 128,-1,59
 251 675 251 675 228 660.5 c 128,-1,60
 205 646 205 646 189.5 636.5 c 128,-1,61
 174 627 174 627 148 612 c 128,-1,62
 122 597 122 597 106 587 c 1,0,1
EndSplineSet
EndChar

StartChar: ml
Encoding: 983137 983137 372
Width: 68
VWidth: 0
GlyphClass: 3
Flags: W
LayerCount: 3
Fore
SplineSet
0 621 m 1,0,-1
 123 621 l 1,1,-1
 123 172 l 1,2,-1
 0 171 l 1,3,-1
 0 621 l 1,0,-1
0 300 m 1,4,-1
 122 300 l 1,5,-1
 123 168 l 1,6,7
 180 102 180 102 211 12.5 c 128,-1,8
 242 -77 242 -77 242 -162 c 0,9,10
 242 -248 242 -248 211 -303 c 128,-1,11
 180 -358 180 -358 122 -358 c 0,12,13
 0 -358 0 -358 0 -102 c 2,14,-1
 0 33 l 1,15,16
 -22 21 -22 21 -46 21 c 0,17,18
 -84 21 -84 21 -122 53 c 0,19,20
 -138 67 -138 67 -149 92 c 128,-1,21
 -160 117 -160 117 -160 146 c 0,22,23
 -160 205 -160 205 -122 239 c 0,24,25
 -87 271 -87 271 -46 271 c 0,26,27
 -20 271 -20 271 0 260 c 1,28,-1
 0 300 l 1,4,-1
123 98 m 1,29,-1
 123 -89 l 2,30,31
 123 -102 123 -102 123.5 -122.5 c 128,-1,32
 124 -143 124 -143 125.5 -170.5 c 128,-1,33
 127 -198 127 -198 130.5 -217 c 128,-1,34
 134 -236 134 -236 139 -236 c 0,35,36
 145 -236 145 -236 151 -219.5 c 128,-1,37
 157 -203 157 -203 161 -173.5 c 128,-1,38
 165 -144 165 -144 165 -110 c 0,39,40
 165 10 165 10 123 98 c 1,29,-1
3 572 m 1,41,-1
 1 612 l 2,42,43
 2 622 2 622 1 636 c 0,44,45
 1 736 1 736 -48 735 c 2,46,-1
 -53 735 l 2,47,48
 -77 733 -77 733 -99.5 719 c 128,-1,49
 -122 705 -122 705 -137.5 687 c 128,-1,50
 -153 669 -153 669 -165 651.5 c 128,-1,51
 -177 634 -177 634 -183 622 c 2,52,-1
 -188 610 l 1,53,-1
 -294 681 l 1,54,55
 -291 688 -291 688 -283.5 699.5 c 128,-1,56
 -276 711 -276 711 -252 740 c 128,-1,57
 -228 769 -228 769 -201 791.5 c 128,-1,58
 -174 814 -174 814 -131.5 832.5 c 128,-1,59
 -89 851 -89 851 -46 851 c 0,60,61
 -13 851 -13 851 14.5 842 c 128,-1,62
 42 833 42 833 59.5 818 c 128,-1,63
 77 803 77 803 90 785 c 128,-1,64
 103 767 103 767 109 749 c 128,-1,65
 115 731 115 731 119 716 c 128,-1,66
 123 701 123 701 124 692 c 2,67,-1
 124 683 l 1,68,-1
 125 571 l 1,69,-1
 3 572 l 1,41,-1
EndSplineSet
EndChar

StartChar: po
Encoding: 983143 983143 378
Width: 522
VWidth: 0
GlyphClass: 2
Flags: W
LayerCount: 3
Fore
SplineSet
0 853 m 1,0,-1
 123 853 l 1,1,-1
 123 -285 l 1,2,-1
 0 -287 l 1,3,-1
 0 853 l 1,0,-1
123 512 m 1,4,-1
 0 513 l 1,5,-1
 2 1341 l 1,6,-1
 2 1342 l 1,7,8
 5 1401 5 1401 25 1444 c 0,9,10
 67 1535 67 1535 201 1535 c 0,11,12
 291 1535 291 1535 343.5 1478 c 128,-1,13
 396 1421 396 1421 396 1338 c 0,14,15
 396 1309 396 1309 391.5 1252 c 128,-1,16
 387 1195 387 1195 374 1109 c 128,-1,17
 361 1023 361 1023 342 943.5 c 128,-1,18
 323 864 323 864 289.5 794.5 c 128,-1,19
 256 725 256 725 215 698 c 0,20,21
 200 688 200 688 185.5 674.5 c 128,-1,22
 171 661 171 661 153 643 c 128,-1,23
 135 625 135 625 129 619 c 2,24,-1
 123 614 l 1,25,-1
 123 512 l 1,4,-1
125 784 m 1,26,-1
 180 838 l 1,27,-1
 183 840 l 1,28,-1
 185 842 l 2,29,30
 212 874 212 874 242.5 1068 c 128,-1,31
 273 1262 273 1262 274 1337 c 0,32,33
 274 1412 274 1412 201 1412 c 0,34,35
 178 1411 178 1411 162.5 1405 c 128,-1,36
 147 1399 147 1399 139 1386 c 128,-1,37
 131 1373 131 1373 128.5 1365.5 c 128,-1,38
 126 1358 126 1358 123 1343 c 1,39,-1
 123 1337 l 2,40,41
 125 1292 125 1292 125 971 c 2,42,-1
 125 841 l 1,43,-1
 125 784 l 1,26,-1
EndSplineSet
EndChar

StartChar: psze
Encoding: 983147 983147 382
Width: 1176
VWidth: 0
GlyphClass: 2
Flags: W
LayerCount: 3
Fore
SplineSet
938 617 m 1,0,-1
 938 740 l 1,1,-1
 1278 740 l 1,2,-1
 1279 617 l 1,3,-1
 938 617 l 1,0,-1
1232 740 m 1,4,-1
 1230 617 l 1,5,-1
 451 620 l 1,6,-1
 449 620 l 1,7,8
 388 623 388 623 348 643 c 0,9,10
 305 662 305 662 281 702.5 c 128,-1,11
 257 743 257 743 257 818 c 0,12,13
 257 908 257 908 314 960.5 c 128,-1,14
 371 1013 371 1013 453 1013 c 0,15,16
 482 1013 482 1013 539.5 1008.5 c 128,-1,17
 597 1004 597 1004 683 991 c 128,-1,18
 769 978 769 978 848 959 c 128,-1,19
 927 940 927 940 996.5 907 c 128,-1,20
 1066 874 1066 874 1094 833 c 0,21,22
 1104 818 1104 818 1117.5 803 c 128,-1,23
 1131 788 1131 788 1149 771 c 128,-1,24
 1167 754 1167 754 1173 747 c 2,25,-1
 1177 740 l 1,26,-1
 1232 740 l 1,4,-1
1008 743 m 1,27,-1
 954 797 l 1,28,-1
 952 800 l 1,29,-1
 949 803 l 1,30,31
 918 830 918 830 725 860 c 128,-1,32
 532 890 532 890 455 892 c 0,33,34
 380 892 380 892 380 818 c 0,35,36
 381 800 381 800 385.5 785.5 c 128,-1,37
 390 771 390 771 396.5 763.5 c 128,-1,38
 403 756 403 756 414.5 750.5 c 128,-1,39
 426 745 426 745 431.5 744 c 128,-1,40
 437 743 437 743 449 740 c 1,41,-1
 455 740 l 1,42,43
 495 743 495 743 821 743 c 2,44,-1
 950 743 l 1,45,-1
 1008 743 l 1,27,-1
EndSplineSet
EndChar

StartChar: pszy
Encoding: 983149 983149 384
Width: 1135
VWidth: 0
GlyphClass: 2
Flags: W
LayerCount: 3
Fore
SplineSet
803 529 m 1,0,-1
 697 591 l 1,1,-1
 1137 1352 l 1,2,-1
 1243 1292 l 1,3,-1
 803 529 l 1,0,-1
868 886 m 1,4,-1
 973 823 l 1,5,-1
 557 107 l 1,6,-1
 557 106 l 1,7,8
 524 56 524 56 486 30 c 0,9,10
 446 2 446 2 403 2 c 0,11,12
 350 2 350 2 288 39 c 0,13,14
 238 68 238 68 213 110.5 c 128,-1,15
 188 153 188 153 188 202 c 0,16,17
 188 256 188 256 218 307 c 0,18,19
 233 332 233 332 265 379 c 128,-1,20
 297 426 297 426 351.5 494.5 c 128,-1,21
 406 563 406 563 462 622 c 128,-1,22
 518 681 518 681 582 724.5 c 128,-1,23
 646 768 646 768 695 771 c 0,24,25
 713 772 713 772 732.5 776.5 c 128,-1,26
 752 781 752 781 775.5 787.5 c 128,-1,27
 799 794 799 794 808 796 c 2,28,-1
 816 797 l 1,29,-1
 868 886 l 1,4,-1
729 651 m 1,30,-1
 655 632 l 1,31,-1
 651 632 l 1,32,-1
 649 631 l 1,33,34
 609 617 609 617 485.5 464.5 c 128,-1,35
 362 312 362 312 324 247 c 0,36,37
 310 221 310 221 310 202 c 0,38,39
 310 169 310 169 350 145 c 0,40,41
 373 132 373 132 394 132 c 0,42,43
 407 132 407 132 419.5 139 c 128,-1,44
 432 146 432 146 437 151 c 128,-1,45
 442 156 442 156 452 167 c 2,46,-1
 455 172 l 1,47,48
 478 219 478 219 636 489 c 0,49,50
 650 514 650 514 672.5 552.5 c 128,-1,51
 695 591 695 591 701 602 c 2,52,-1
 729 651 l 1,30,-1
EndSplineSet
EndChar

StartChar: spsze
Encoding: 983151 983151 386
Width: 1239
VWidth: 2095
GlyphClass: 2
Flags: W
LayerCount: 3
Fore
SplineSet
1345 730 m 1,0,-1
 1343 608 l 1,1,-1
 515 609 l 1,2,3
 379 614 379 614 324 653 c 0,4,5
 321 655 321 655 302 667.5 c 128,-1,6
 283 680 283 680 277 685.5 c 128,-1,7
 271 691 271 691 255 705.5 c 128,-1,8
 239 720 239 720 232 734 c 128,-1,9
 225 748 225 748 215 768 c 128,-1,10
 205 788 205 788 201.5 813.5 c 128,-1,11
 198 839 198 839 198 870 c 0,12,13
 198 929 198 929 222.5 978.5 c 128,-1,14
 247 1028 247 1028 286 1060 c 128,-1,15
 325 1092 325 1092 367 1112.5 c 128,-1,16
 409 1133 409 1133 451 1140 c 0,17,18
 513 1151 513 1151 623 1151 c 0,19,20
 684 1151 684 1151 740.5 1146 c 128,-1,21
 797 1141 797 1141 864 1127.5 c 128,-1,22
 931 1114 931 1114 985 1092 c 128,-1,23
 1039 1070 1039 1070 1086.5 1032 c 128,-1,24
 1134 994 1134 994 1159 945 c 0,25,26
 1165 933 1165 933 1197 839 c 128,-1,27
 1229 745 1229 745 1242 730 c 1,28,-1
 1345 730 l 1,0,-1
1072 732 m 1,29,-1
 1013 900 l 1,30,31
 987 935 987 935 939.5 959.5 c 128,-1,32
 892 984 892 984 833 996 c 128,-1,33
 774 1008 774 1008 718.5 1013.5 c 128,-1,34
 663 1019 663 1019 603 1019 c 0,35,36
 513 1019 513 1019 452 1010 c 0,37,38
 322 996 322 996 322 877 c 0,39,40
 323 847 323 847 338 821.5 c 128,-1,41
 353 796 353 796 374.5 780.5 c 128,-1,42
 396 765 396 765 423.5 753.5 c 128,-1,43
 451 742 451 742 473 737.5 c 128,-1,44
 495 733 495 733 513 730 c 2,45,-1
 520 730 l 2,46,47
 550 732 550 732 1072 732 c 1,29,-1
EndSplineSet
EndChar

StartChar: spszy
Encoding: 983153 983153 388
Width: 1215
VWidth: 2095
GlyphClass: 2
Flags: W
LayerCount: 3
Fore
SplineSet
1217 1359 m 1,0,-1
 1323 1296 l 1,1,-1
 679 184 l 1,2,-1
 679 183 l 1,3,4
 645 129 645 129 613.5 93 c 128,-1,5
 582 57 582 57 545 40 c 0,6,7
 542 39 542 39 525.5 31 c 128,-1,8
 509 23 509 23 501.5 19.5 c 128,-1,9
 494 16 494 16 479 10.5 c 128,-1,10
 464 5 464 5 450 3 c 128,-1,11
 436 1 436 1 421 1 c 0,12,13
 363 1 363 1 295 40 c 0,14,15
 228 79 228 79 197.5 141.5 c 128,-1,16
 167 204 167 204 167 276 c 0,17,18
 167 336 167 336 187 393 c 0,19,20
 193 411 193 411 208 443.5 c 128,-1,21
 223 476 223 476 251 525.5 c 128,-1,22
 279 575 279 575 311.5 626 c 128,-1,23
 344 677 344 677 388.5 728.5 c 128,-1,24
 433 780 433 780 480 819.5 c 128,-1,25
 527 859 527 859 584 884 c 128,-1,26
 641 909 641 909 698 909 c 2,27,-1
 710 909 l 2,28,29
 724 908 724 908 812 890 c 128,-1,30
 900 872 900 872 926 872 c 0,31,32
 931 872 931 872 937 874 c 1,33,-1
 1217 1359 l 1,0,-1
851 728 m 1,34,-1
 677 760 l 1,35,36
 626 755 626 755 571.5 714 c 128,-1,37
 517 673 517 673 475 622 c 128,-1,38
 433 571 433 571 393.5 506 c 128,-1,39
 354 441 354 441 333.5 401 c 128,-1,40
 313 361 313 361 299 330 c 0,41,42
 282 288 282 288 282 257 c 0,43,44
 282 191 282 191 351 150 c 0,45,46
 378 136 378 136 406 135 c 0,47,48
 455 135 455 135 500.5 170 c 128,-1,49
 546 205 546 205 573 243 c 1,50,-1
 576 248 l 2,51,52
 582 259 582 259 851 728 c 1,34,-1
EndSplineSet
EndChar

StartChar: tk
Encoding: 983155 983155 390
Width: 615
VWidth: 0
GlyphClass: 3
Flags: W
LayerCount: 3
Fore
SplineSet
264 521 m 1,0,1
 235 492 235 492 206 463 c 1,4,5
 200 469 200 469 200 470 c 1,6,7
 -9 680 -9 680 -9 1010 c 0,8,9
 -9 1017 -9 1017 -9 1024 c 1,10,-1
 73 1024 l 1,11,12
 73 1022 73 1022 73 1010 c 0,13,14
 73 714 73 714 258 528 c 1,15,16
 264 521 264 521 264 521 c 1,0,1
32 1010 m 25,0,-1
 32 1038 l 25,1,-1
 46 1024 l 25,2,-1
 19 1024 l 1049,3,-1
32 983 m 128,-1,5
 14 983 14 983 3 994 c 0,6,7
 -9 1006 -9 1006 -9 1024 c 0,7,8
 -9 1044 -9 1044 3 1056 c 0,9,10
 13 1066 13 1066 32 1065.5 c 128,-1,11
 51 1065 51 1065 62 1056 c 0,12,13
 74 1045 74 1045 73 1024 c 0,14,15
 73 1006 73 1006 61 994 c 0,16,17
 50 983 50 983 32 983 c 128,-1,5
226 483 m 25,0,-1
 245 502 l 25,1,-1
 245 483 l 25,2,-1
 226 502 l 1049,3,-1
206 464 m 128,-1,5
 193 477 193 477 193 492 c 0,6,7
 193 508 193 508 206 521 c 0,7,8
 220 535 220 535 237 535 c 0,9,10
 251 535 251 535 264.5 521.5 c 128,-1,11
 278 508 278 508 278 494 c 0,12,13
 278 478 278 478 264 463 c 0,14,15
 251 450 251 450 234 451 c 0,16,17
 219 451 219 451 206 464 c 128,-1,5
EndSplineSet
Refer: 281 57352 N 1 0 0 1 372 -35 2
LCarets2: 2 533 558
EndChar

StartChar: tkt
Encoding: 983159 983159 394
Width: 422
VWidth: 0
GlyphClass: 2
Flags: W
LayerCount: 3
Fore
SplineSet
-134 397 m 5,0,-1
 -175 326 l 5,1,2
 -360 433 -360 433 -360 680 c 5,3,-1
 -278 680 l 5,4,5
 -278 482 -278 482 -134 397 c 5,0,-1
-143 355 m 25,0,-1
 -166 369 l 25,1,-1
 -148 374 l 25,2,-1
 -161 350 l 1049,3,-1
-119 341 m 128,-1,5
 -128 325 -128 325 -143 321 c 0,6,7
 -159 317 -159 317 -175 326 c 0,7,8
 -193 336 -193 336 -196 352 c 0,9,10
 -199 366 -199 366 -189.5 382.5 c 128,-1,11
 -180 399 -180 399 -167 403 c 0,12,13
 -152 408 -152 408 -134 397 c 0,14,15
 -119 388 -119 388 -114 372 c 0,16,17
 -110 357 -110 357 -119 341 c 128,-1,5
-319 666 m 25,0,-1
 -319 694 l 25,1,-1
 -305 680 l 25,2,-1
 -332 680 l 1049,3,-1
-319 639 m 128,-1,5
 -337 639 -337 639 -348 650 c 0,6,7
 -360 662 -360 662 -360 680 c 0,7,8
 -360 700 -360 700 -348 711 c 0,9,10
 -338 721 -338 721 -319 721 c 128,-1,11
 -300 721 -300 721 -289 711 c 0,12,13
 -277 700 -277 700 -278 680 c 0,14,15
 -278 662 -278 662 -290 650 c 0,16,17
 -301 639 -301 639 -319 639 c 128,-1,5
EndSplineSet
Refer: 424 57353 N 1 0 0 1 169 332 2
EndChar

StartChar: sici
Encoding: 983169 983169 404
Width: 386
VWidth: 0
GlyphClass: 2
Flags: W
LayerCount: 3
Fore
SplineSet
468 728 m 1,0,1
 419 815 419 815 302 795 c 0,2,3
 257 785 257 785 200 754.5 c 128,-1,4
 143 724 143 724 108.5 697 c 128,-1,5
 74 670 74 670 76 666 c 1,6,-1
 0 737 l 2,7,8
 -1 738 -1 738 11.5 748.5 c 128,-1,9
 24 759 24 759 46.5 775 c 128,-1,10
 69 791 69 791 98 810 c 128,-1,11
 127 829 127 829 161.5 847 c 128,-1,12
 196 865 196 865 230 879 c 128,-1,13
 264 893 264 893 298 899.5 c 128,-1,14
 332 906 332 906 359 901 c 0,15,16
 433 893 433 893 474.5 871 c 128,-1,17
 516 849 516 849 541 812 c 1,18,19
 572 774 572 774 585.5 707 c 128,-1,20
 599 640 599 640 605 549 c 0,21,22
 605 543 605 543 607 509.5 c 128,-1,23
 609 476 609 476 609.5 458.5 c 128,-1,24
 610 441 610 441 611 404 c 128,-1,25
 612 367 612 367 611 338 c 128,-1,26
 610 309 610 309 608 268 c 128,-1,27
 606 227 606 227 602 188 c 1,28,29
 593 142 593 142 583 102.5 c 128,-1,30
 573 63 573 63 565.5 38 c 128,-1,31
 558 13 558 13 542.5 -24 c 128,-1,32
 527 -61 527 -61 521 -75 c 128,-1,33
 515 -89 515 -89 491.5 -135 c 128,-1,34
 468 -181 468 -181 460 -198 c 0,35,36
 399 -324 399 -324 258 -485 c 128,-1,37
 117 -646 117 -646 -32 -742 c 1,38,-1
 -32 -606 l 1,39,40
 96 -511 96 -511 197.5 -396 c 128,-1,41
 299 -281 299 -281 357 -167 c 0,42,43
 401 -80 401 -80 421 -37.5 c 128,-1,44
 441 5 441 5 461 68.5 c 128,-1,45
 481 132 481 132 490 205 c 1,46,47
 500 308 500 308 500 500 c 0,48,49
 499 624 499 624 468 728 c 1,0,1
EndSplineSet
EndChar

StartChar: szcz
Encoding: 983171 983171 406
Width: 428
VWidth: 0
GlyphClass: 3
Flags: W
LayerCount: 3
Fore
SplineSet
81 646 m 1,0,-1
 -7 717 l 1,1,2
 22 778 22 778 82.5 839 c 128,-1,3
 143 900 143 900 206.5 937 c 128,-1,4
 270 974 270 974 311 974 c 0,5,6
 357 974 357 974 418.5 934.5 c 128,-1,7
 480 895 480 895 506 862 c 0,8,9
 548 809 548 809 569 732 c 128,-1,10
 590 655 590 655 590 589 c 0,11,12
 590 559 590 559 587.5 526.5 c 128,-1,13
 585 494 585 494 578.5 451 c 128,-1,14
 572 408 572 408 567.5 382.5 c 128,-1,15
 563 357 563 357 552.5 298 c 128,-1,16
 542 239 542 239 538 217 c 0,17,18
 515 87 515 87 489.5 -13 c 128,-1,19
 464 -113 464 -113 416 -258 c 0,20,21
 416 -259 416 -259 405 -294.5 c 128,-1,22
 394 -330 394 -330 386 -354 c 128,-1,23
 378 -378 378 -378 361.5 -422 c 128,-1,24
 345 -466 345 -466 328 -500 c 128,-1,25
 311 -534 311 -534 289.5 -573 c 128,-1,26
 268 -612 268 -612 242 -643.5 c 128,-1,27
 216 -675 216 -675 188 -697 c 0,28,29
 75 -786 75 -786 -37 -786 c 0,30,31
 -81 -786 -81 -786 -122.5 -748 c 128,-1,32
 -164 -710 -164 -710 -188 -652.5 c 128,-1,33
 -212 -595 -212 -595 -212 -539 c 0,34,35
 -212 -492 -212 -492 -192.5 -414.5 c 128,-1,36
 -173 -337 -173 -337 -143 -265 c 0,37,38
 -85 -131 -85 -131 41 -6 c 0,39,40
 85 37 85 37 139 65 c 128,-1,41
 193 93 193 93 234 105 c 128,-1,42
 275 117 275 117 377 141 c 0,43,44
 390 144 390 144 396 145 c 1,45,46
 426 262 426 262 460 520 c 0,47,48
 467 578 467 578 467 608 c 0,49,50
 467 684 467 684 440 741 c 0,51,52
 412 801 412 801 381 826 c 128,-1,53
 350 851 350 851 302 851 c 0,54,55
 301 851 301 851 298.5 850.5 c 128,-1,56
 296 850 296 850 294 850 c 0,57,58
 260 849 260 849 200 788 c 128,-1,59
 140 727 140 727 81 646 c 1,0,-1
360 0 m 1,60,61
 256 -20 256 -20 159 -86.5 c 128,-1,62
 62 -153 62 -153 16 -254 c 0,63,64
 -19 -330 -19 -330 -42.5 -405.5 c 128,-1,65
 -66 -481 -66 -481 -66 -519 c 2,66,-1
 -66 -535 l 2,67,68
 -66 -644 -66 -644 -14 -649 c 0,69,70
 1 -650 1 -650 8 -650 c 0,71,72
 99 -650 99 -650 159 -554 c 0,73,74
 192 -502 192 -502 220 -442.5 c 128,-1,75
 248 -383 248 -383 262 -345 c 128,-1,76
 276 -307 276 -307 291.5 -262.5 c 128,-1,77
 307 -218 307 -218 309 -212 c 0,78,79
 321 -180 321 -180 330 -147 c 128,-1,80
 339 -114 339 -114 348 -64 c 128,-1,81
 357 -14 357 -14 360 0 c 1,60,61
266 -231 m 0,82,83
 309 -231 309 -231 331.5 -192.5 c 128,-1,84
 354 -154 354 -154 354 -113 c 0,85,86
 354 -69 354 -69 331.5 -29 c 128,-1,87
 309 11 309 11 266 11 c 0,88,89
 226 11 226 11 199 -29.5 c 128,-1,90
 172 -70 172 -70 172 -107 c 0,91,92
 172 -147 172 -147 199 -189 c 128,-1,93
 226 -231 226 -231 266 -231 c 0,82,83
264 103 m 0,94,95
 332 103 332 103 389 50 c 0,96,97
 418 24 418 24 436 -16.5 c 128,-1,98
 454 -57 454 -57 454 -105 c 0,99,100
 454 -153 454 -153 434.5 -196.5 c 128,-1,101
 415 -240 415 -240 390 -260 c 0,102,103
 357 -287 357 -287 329 -300 c 128,-1,104
 301 -313 301 -313 263.5 -313 c 128,-1,105
 226 -313 226 -313 197.5 -299.5 c 128,-1,106
 169 -286 169 -286 137 -260 c 0,107,108
 110 -237 110 -237 92.5 -195.5 c 128,-1,109
 75 -154 75 -154 75 -105 c 0,110,111
 75 -7 75 -7 137 50 c 0,112,113
 197 103 197 103 264 103 c 0,94,95
EndSplineSet
EndChar

StartChar: mrz.alt
Encoding: 983177 983177 412
Width: 713
VWidth: 0
GlyphClass: 2
Flags: W
LayerCount: 3
Fore
SplineSet
476 63 m 2,0,-1
 309 612 l 2,1,2
 304 639 304 639 296.5 663 c 128,-1,3
 289 687 289 687 272 711 c 128,-1,4
 255 735 255 735 236 735 c 2,5,-1
 231 735 l 2,6,7
 207 733 207 733 184.5 719 c 128,-1,8
 162 705 162 705 146.5 687 c 128,-1,9
 131 669 131 669 119 651.5 c 128,-1,10
 107 634 107 634 101 622 c 2,11,-1
 96 610 l 1,12,-1
 -10 681 l 1,13,14
 -7 688 -7 688 0.5 699.5 c 128,-1,15
 8 711 8 711 32 740 c 128,-1,16
 56 769 56 769 83 791.5 c 128,-1,17
 110 814 110 814 152.5 832.5 c 128,-1,18
 195 851 195 851 238 851 c 0,19,20
 284 851 284 851 321 833.5 c 128,-1,21
 358 816 358 816 378 791.5 c 128,-1,22
 398 767 398 767 411.5 742 c 128,-1,23
 425 717 425 717 429 700 c 2,24,-1
 433 683 l 1,25,-1
 598 75 l 2,26,27
 607 44 607 44 630 44 c 0,28,29
 649 44 649 44 677 63.5 c 128,-1,30
 705 83 705 83 726 108 c 1,31,-1
 803 46 l 1,32,33
 743 -4 743 -4 704.5 -23 c 128,-1,34
 666 -42 666 -42 606 -42 c 0,35,36
 557 -42 557 -42 523.5 -12.5 c 128,-1,37
 490 17 490 17 476 63 c 2,0,-1
EndSplineSet
EndChar

StartChar: Zdl
Encoding: 983180 983180 415
Width: 574
VWidth: 0
GlyphClass: 2
Flags: W
LayerCount: 3
Fore
SplineSet
636 2399 m 1,0,-1
 948 2019 l 1,1,-1
 826 2019 l 1,2,-1
 575 2288 l 1,3,-1
 326 2019 l 1,4,-1
 204 2019 l 1,5,-1
 515 2399 l 1,6,-1
 636 2399 l 1,0,-1
503 321 m 1,7,-1
 625 321 l 1,8,-1
 626 188 l 1,9,10
 684 122 684 122 714.5 32.5 c 128,-1,11
 745 -57 745 -57 745 -141 c 0,12,13
 745 -227 745 -227 714 -282.5 c 128,-1,14
 683 -338 683 -338 625 -338 c 0,15,16
 605 -338 605 -338 588.5 -331 c 128,-1,17
 572 -324 572 -324 560.5 -313 c 128,-1,18
 549 -302 549 -302 539.5 -285 c 128,-1,19
 530 -268 530 -268 524 -252 c 128,-1,20
 518 -236 518 -236 513.5 -213.5 c 128,-1,21
 509 -191 509 -191 507.5 -175.5 c 128,-1,22
 506 -160 506 -160 504.5 -138 c 128,-1,23
 503 -116 503 -116 503 -106.5 c 128,-1,24
 503 -97 503 -97 503 -81 c 2,25,-1
 503 53 l 1,26,27
 481 41 481 41 457 42 c 0,28,29
 434 42 434 42 417 50 c 128,-1,30
 400 58 400 58 381 74 c 0,31,32
 365 88 365 88 354 112.5 c 128,-1,33
 343 137 343 137 343 167 c 0,34,35
 343 226 343 226 381 259 c 0,36,37
 416 291 416 291 457 291 c 0,38,39
 483 291 483 291 503 281 c 1,40,-1
 503 321 l 1,7,-1
626 118 m 1,41,-1
 626 -69 l 2,42,43
 626 -82 626 -82 626.5 -102 c 128,-1,44
 627 -122 627 -122 628.5 -149.5 c 128,-1,45
 630 -177 630 -177 634 -196 c 128,-1,46
 638 -215 638 -215 642 -215 c 0,47,48
 648 -215 648 -215 654.5 -199 c 128,-1,49
 661 -183 661 -183 664.5 -153.5 c 128,-1,50
 668 -124 668 -124 668 -89 c 0,51,52
 668 30 668 30 626 118 c 1,41,-1
528 655 m 1,53,54
 523 682 523 682 517 702 c 128,-1,55
 511 722 511 722 502 748 c 128,-1,56
 493 774 493 774 487 795 c 1,57,58
 486 794 486 794 485 793 c 0,59,60
 485 792 485 792 486 792 c 0,61,62
 501 792 501 792 575 836.5 c 128,-1,63
 649 881 649 881 675 915 c 0,64,65
 700 945 700 945 700 983 c 0,66,67
 700 1011 700 1011 686 1030 c 128,-1,68
 672 1049 672 1049 646 1049 c 0,69,70
 645 1049 645 1049 642.5 1048.5 c 128,-1,71
 640 1048 640 1048 639 1048 c 0,72,73
 549 1038 549 1038 549 878 c 0,74,75
 549 850 549 850 552 819 c 128,-1,76
 555 788 555 788 557.5 768 c 128,-1,77
 560 748 560 748 560 745 c 0,78,79
 560 705 560 705 571.5 653.5 c 128,-1,80
 583 602 583 602 596.5 559.5 c 128,-1,81
 610 517 610 517 620.5 463 c 128,-1,82
 631 409 631 409 631 364 c 0,83,84
 631 320 631 320 622.5 271 c 128,-1,85
 614 222 614 222 589 165 c 128,-1,86
 564 108 564 108 526 68 c 1,87,-1
 404 68 l 1,88,89
 441 108 441 108 465 164.5 c 128,-1,90
 489 221 489 221 498 269.5 c 128,-1,91
 507 318 507 318 507 362 c 0,92,93
 507 407 507 407 495 461 c 128,-1,94
 483 515 483 515 468 557.5 c 128,-1,95
 453 600 453 600 438 652.5 c 128,-1,96
 423 705 423 705 420 743 c 0,97,98
 410 856 410 856 410 924 c 0,99,100
 410 970 410 970 432 1011 c 128,-1,101
 454 1052 454 1052 502 1099 c 0,102,103
 528 1124 528 1124 564.5 1139 c 128,-1,104
 601 1154 601 1154 640 1154 c 0,105,106
 673 1154 673 1154 701.5 1143 c 128,-1,107
 730 1132 730 1132 754 1109.5 c 128,-1,108
 778 1087 778 1087 792 1049 c 128,-1,109
 806 1011 806 1011 806 961 c 0,110,111
 806 958 806 958 805 956 c 0,112,113
 805 933 805 933 800.5 912 c 128,-1,114
 796 891 796 891 789 873.5 c 128,-1,115
 782 856 782 856 770 838.5 c 128,-1,116
 758 821 758 821 747.5 808 c 128,-1,117
 737 795 737 795 718.5 780 c 128,-1,118
 700 765 700 765 686 754 c 128,-1,119
 672 743 672 743 649 728.5 c 128,-1,120
 626 714 626 714 610.5 705 c 128,-1,121
 595 696 595 696 569.5 680.5 c 128,-1,122
 544 665 544 665 528 655 c 1,53,54
EndSplineSet
EndChar

StartChar: stemK.krt
Encoding: 57353 57353 424
Width: 81
VWidth: 0
GlyphClass: 2
Flags: W
LayerCount: 3
Fore
SplineSet
82 778 m 5,0,-1
 82 41 l 1,1,2
 41 41 41 41 0 41 c 1,5,-1
 0 778 l 5,6,7
 41 778 41 778 82 778 c 5,0,-1
0 41 m 1025
EndSplineSet
Refer: 564 57346 N 1 0 0 1 0 0 2
Refer: 564 57346 S 1 0 0 1 0 737 2
Comment: "wys 1200"
EndChar

StartChar: stemG
Encoding: 57354 57354 425
Width: 81
VWidth: 0
GlyphClass: 2
Flags: W
LayerCount: 3
Fore
SplineSet
82 505 m 5,0,-1
 82 41 l 1,1,2
 41 41 41 41 0 41 c 1,5,-1
 0 505 l 5,6,7
 41 505 41 505 82 505 c 5,0,-1
0 41 m 1025
EndSplineSet
Refer: 564 57346 N 1 0 0 1 0 0 2
Refer: 564 57346 S 1 0 0 1 0 464 2
Comment: "wys 800"
EndChar

StartChar: tw
Encoding: 983195 983195 426
Width: 539
VWidth: 0
GlyphClass: 2
Flags: W
LayerCount: 3
Fore
SplineSet
271 771 m 1,0,1
 242 742 242 742 213 713 c 1,4,5
 207 719 207 719 207 719 c 1,6,7
 -2 929 -2 929 -2 1260 c 0,8,9
 -2 1267 -2 1267 -2 1273 c 1,10,-1
 80 1273 l 1,11,12
 80 1271 80 1271 80 1260 c 0,13,14
 80 964 80 964 264 777 c 1,15,16
 271 771 271 771 271 771 c 1,0,1
39 1260 m 25,0,-1
 39 1287 l 25,1,-1
 53 1273 l 25,2,-1
 25 1273 l 1049,3,-1
39 1232 m 128,-1,5
 21 1232 21 1232 10 1243 c 0,6,7
 -2 1255 -2 1255 -2 1273 c 0,7,8
 -2 1293 -2 1293 10 1305 c 0,9,10
 20 1315 20 1315 39 1314.5 c 128,-1,11
 58 1314 58 1314 68 1305 c 0,12,13
 80 1294 80 1294 80 1273 c 0,14,15
 80 1255 80 1255 68 1243 c 0,16,17
 57 1232 57 1232 39 1232 c 128,-1,5
233 732 m 25,0,-1
 252 751 l 25,1,-1
 252 732 l 25,2,-1
 233 751 l 1049,3,-1
213 713 m 128,-1,5
 200 726 200 726 200 741 c 0,6,7
 200 757 200 757 213 771 c 0,7,8
 227 785 227 785 244 785 c 0,9,10
 258 785 258 785 271.5 771 c 128,-1,11
 285 757 285 757 285 743 c 0,12,13
 285 727 285 727 271 713 c 0,14,15
 258 700 258 700 241 700 c 0,16,17
 226 700 226 700 213 713 c 128,-1,5
EndSplineSet
Refer: 91 119 N 1 0 0 1 237 0 2
EndChar

StartChar: zja
Encoding: 983201 983201 432
Width: 106
VWidth: 1398
GlyphClass: 3
Flags: W
LayerCount: 3
Fore
SplineSet
-14 133 m 1,0,1
 48 136 48 136 96.5 148 c 128,-1,2
 145 160 145 160 189 185 c 128,-1,3
 233 210 233 210 261 254.5 c 128,-1,4
 289 299 289 299 298 362 c 0,5,6
 309 422 309 422 284 487 c 128,-1,7
 259 552 259 552 212 599 c 128,-1,8
 165 646 165 646 111 661 c 0,9,10
 45 678 45 678 -17.5 660.5 c 128,-1,11
 -80 643 -80 643 -124 606 c 1,12,13
 -200 515 -200 515 -184 397 c 1,14,15
 -169 367 -169 367 -152.5 345.5 c 128,-1,16
 -136 324 -136 324 -117 312 c 128,-1,17
 -98 300 -98 300 -81 293.5 c 128,-1,18
 -64 287 -64 287 -40 286.5 c 128,-1,19
 -16 286 -16 286 3 287.5 c 128,-1,20
 22 289 22 289 51 294 c 0,21,22
 67 298 67 298 77 301 c 128,-1,23
 87 304 87 304 104.5 313 c 128,-1,24
 122 322 122 322 132.5 331.5 c 128,-1,25
 143 341 143 341 150.5 358 c 128,-1,26
 158 375 158 375 158 396 c 0,27,28
 152 446 152 446 139.5 469.5 c 128,-1,29
 127 493 127 493 85 516 c 1,30,31
 -13 541 -13 541 -36 483 c 1,32,33
 -37 434 -37 434 -9 420 c 128,-1,34
 19 406 19 406 66 434 c 1,35,-1
 134 379 l 1,36,37
 109 354 109 354 67 341 c 128,-1,38
 25 328 25 328 -17 331 c 128,-1,39
 -59 334 -59 334 -91 364.5 c 128,-1,40
 -123 395 -123 395 -126 449 c 1,41,42
 -117 595 -117 595 25 606 c 1,43,44
 87 616 87 616 158 559 c 128,-1,45
 229 502 229 502 248 419 c 1,46,47
 253 381 253 381 246 351 c 128,-1,48
 239 321 239 321 226.5 301 c 128,-1,49
 214 281 214 281 191 262.5 c 128,-1,50
 168 244 168 244 149 234 c 128,-1,51
 130 224 130 224 100 212 c 0,52,53
 60 193 60 193 14.5 190.5 c 128,-1,54
 -31 188 -31 188 -75.5 203 c 128,-1,55
 -120 218 -120 218 -159.5 245 c 128,-1,56
 -199 272 -199 272 -228 313 c 128,-1,57
 -257 354 -257 354 -270 403 c 1,58,59
 -273 490 -273 490 -248.5 568 c 128,-1,60
 -224 646 -224 646 -169 691 c 0,61,62
 -51 784 -51 784 152 741 c 1,63,64
 202 721 202 721 259 658 c 128,-1,65
 316 595 316 595 356.5 509.5 c 128,-1,66
 397 424 397 424 395 353 c 1,67,68
 382 286 382 286 357 237 c 128,-1,69
 332 188 332 188 300 157 c 128,-1,70
 268 126 268 126 221.5 106 c 128,-1,71
 175 86 175 86 129 77 c 128,-1,72
 83 68 83 68 20 61 c 1,73,-1
 -14 133 l 1,0,1
EndSplineSet
LCarets2: 2 0 0
EndChar

StartChar: cja
Encoding: 983203 983203 434
Width: 66
VWidth: 1398
GlyphClass: 2
Flags: W
LayerCount: 3
Fore
SplineSet
0 50 m 1,0,1
 59 68 59 68 107.5 73.5 c 128,-1,2
 156 79 156 79 202.5 69 c 128,-1,3
 249 59 249 59 288.5 26.5 c 128,-1,4
 328 -6 328 -6 358 -62 c 1,5,6
 383 -119 383 -119 373.5 -189.5 c 128,-1,7
 364 -260 364 -260 338.5 -320.5 c 128,-1,8
 313 -381 313 -381 285 -407 c 0,9,10
 258 -430 258 -430 231 -446 c 128,-1,11
 204 -462 204 -462 185.5 -470 c 128,-1,12
 167 -478 167 -478 142.5 -482 c 128,-1,13
 118 -486 118 -486 107 -486.5 c 128,-1,14
 96 -487 96 -487 72 -486 c 128,-1,15
 48 -485 48 -485 41 -485 c 0,16,17
 -19 -485 -19 -485 -62 -439 c 128,-1,18
 -105 -393 -105 -393 -108 -311 c 0,19,20
 -108 -256 -108 -256 -91 -213.5 c 128,-1,21
 -74 -171 -74 -171 -44 -144 c 128,-1,22
 -14 -117 -14 -117 22.5 -102.5 c 128,-1,23
 59 -88 59 -88 104 -83 c 0,24,25
 182 -75 182 -75 209 -160 c 1,26,27
 220 -205 220 -205 209 -236.5 c 128,-1,28
 198 -268 198 -268 160 -297 c 0,29,30
 142 -312 142 -312 126.5 -321 c 128,-1,31
 111 -330 111 -330 95.5 -334 c 128,-1,32
 80 -338 80 -338 68.5 -329.5 c 128,-1,33
 57 -321 57 -321 53 -300 c 1,34,35
 50 -267 50 -267 77.5 -247 c 128,-1,36
 105 -227 105 -227 149 -222 c 1,37,-1
 72 -160 l 1,38,39
 27 -171 27 -171 -12 -213.5 c 128,-1,40
 -51 -256 -51 -256 -49 -314 c 0,41,42
 -48 -332 -48 -332 -39.5 -349.5 c 128,-1,43
 -31 -367 -31 -367 -12.5 -382 c 128,-1,44
 6 -397 6 -397 32.5 -404.5 c 128,-1,45
 59 -412 59 -412 99 -407.5 c 128,-1,46
 139 -403 139 -403 186 -384 c 1,47,48
 234 -355 234 -355 270.5 -290.5 c 128,-1,49
 307 -226 307 -226 297 -147 c 1,50,51
 289 -116 289 -116 280 -93.5 c 128,-1,52
 271 -71 271 -71 257.5 -56.5 c 128,-1,53
 244 -42 244 -42 232.5 -33 c 128,-1,54
 221 -24 221 -24 199.5 -18.5 c 128,-1,55
 178 -13 178 -13 163 -11 c 128,-1,56
 148 -9 148 -9 120 -7 c 0,57,58
 48 0 48 0 -27 -40 c 128,-1,59
 -102 -80 -102 -80 -151.5 -154.5 c 128,-1,60
 -201 -229 -201 -229 -199 -311 c 1,61,62
 -194 -351 -194 -351 -188 -378.5 c 128,-1,63
 -182 -406 -182 -406 -166 -441.5 c 128,-1,64
 -150 -477 -150 -477 -126 -500.5 c 128,-1,65
 -102 -524 -102 -524 -59 -544.5 c 128,-1,66
 -16 -565 -16 -565 41 -573 c 1,67,68
 66 -572 66 -572 87.5 -572.5 c 128,-1,69
 109 -573 109 -573 127 -572.5 c 128,-1,70
 145 -572 145 -572 161 -570.5 c 128,-1,71
 177 -569 177 -569 193.5 -564.5 c 128,-1,72
 210 -560 210 -560 226 -553 c 128,-1,73
 242 -546 242 -546 261.5 -534.5 c 128,-1,74
 281 -523 281 -523 302.5 -507 c 128,-1,75
 324 -491 324 -491 351 -468 c 0,76,77
 391 -433 391 -433 423.5 -352 c 128,-1,78
 456 -271 456 -271 464 -183 c 128,-1,79
 472 -95 472 -95 446 -20 c 1,80,81
 402 56 402 56 344.5 101 c 128,-1,82
 287 146 287 146 222.5 158.5 c 128,-1,83
 158 171 158 171 92 160.5 c 128,-1,84
 26 150 26 150 -44 119 c 1,85,-1
 0 50 l 1,0,1
EndSplineSet
EndChar

StartChar: luKL
Encoding: 58085 58085 437
Width: 316
VWidth: 0
GlyphClass: 2
Flags: W
LayerCount: 3
Fore
SplineSet
139 257 m 1,0,-1
 203 255 l 1,1,2
 209 200 209 200 210 193 c 1,3,4
 282 115 282 115 294 94 c 0,5,6
 317 55 317 55 316 -8 c 0,7,8
 316 -25 316 -25 292 -59 c 0,9,10
 267 -93 267 -93 209 -93 c 0,11,12
 126 -93 126 -93 127 -10 c 2,13,-1
 127 67 l 1,14,15
 122 61 122 61 111 61 c 0,16,17
 63 58 63 58 30 86 c 0,18,19
 17 97 17 97 8 116 c 0,20,21
 0 136 0 136 0 159 c 0,22,23
 0 207 0 207 30 232 c 0,24,25
 65 262 65 262 111 257 c 0,26,27
 118 256 118 256 128 251 c 1,28,-1
 139 257 l 1,0,-1
210 84 m 1,29,-1
 210 47 l 2,30,31
 210 47 210 47 210 27 c 0,32,33
 210 7 210 7 212 -6 c 0,34,35
 215 -19 215 -19 222 -19 c 0,36,37
 236 -19 236 -19 241 -1 c 0,38,39
 246 17 246 17 235 43 c 0,40,41
 226 66 226 66 210 84 c 1,29,-1
EndSplineSet
Refer: 564 57346 N 1 0 0 1 128 110 2
Refer: 564 57346 N 1 0 0 1 128 0 2
EndChar

StartChar: luSJ
Encoding: 58086 58086 438
Width: 313
VWidth: 0
GlyphClass: 2
Flags: W
LayerCount: 3
Fore
SplineSet
194 0 m 4,0,-1
 177 84 l 4,1,2
 208 88 208 88 228 144 c 4,3,4
 256 220 256 220 168 252 c 4,5,6
 104 274 104 274 87 229 c 4,7,8
 73 191 73 191 91 184 c 4,9,10
 112 177 112 177 114 185 c 5,11,-1
 191 157 l 5,12,13
 190 153 190 153 189 150 c 5,14,15
 162 76 162 76 64 111 c 4,16,17
 -28 145 -28 145 12 256 c 4,18,19
 55 375 55 375 194 325 c 4,20,21
 354 267 354 267 300 117 c 4,22,23
 263 18 263 18 194 0 c 4,0,-1
EndSplineSet
Refer: 564 57346 S 0.939693 -0.34202 0.34202 0.939693 101 147 2
Refer: 564 57346 S 0.939693 -0.34202 0.34202 0.939693 133 17 2
Layer: 2
SplineSet
197.723632812 460.495117188 m 4
 242.491210938 460.698242188 285.74609375 441.086914062 327.489257812 401.66015625 c 4
 374.038085938 357.801757812 397.416992188 299.91796875 397.626953125 228.010742188 c 4
 397.872070312 157.013671875 374.493164062 100.495117188 327.489257812 58.45703125 c 4
 284.380859375 19.4853515625 241.353515625 -0.1259765625 198.40625 -0.3779296875 c 4
 156.702148438 -0.5810546875 113.401367188 19.0302734375 68.5029296875 58.45703125 c 4
 22.833984375 98.6748046875 0 154.737304688 0 226.645507812 c 4
 0 302.193359375 22.833984375 360.532226562 68.5029296875 401.66015625 c 4
 112.036132812 440.631835938 155.109375 460.243164062 197.723632812 460.495117188 c 4
199.08203125 85.6748046875 m 4
 233.38671875 85.90234375 261.609375 103.034179688 283.75 137.072265625 c 4
 303.934570312 168.115234375 313.66796875 198.50390625 312.951171875 228.237304688 c 4
 311.84765625 267.680664062 303.787109375 299.235351562 288.767578125 322.901367188 c 4
 267.377929688 357.490234375 237.254882812 374.849609375 198.399414062 374.98046875 c 4
 161.250976562 374.849609375 132.665039062 357.490234375 112.639648438 322.901367188 c 4
 92.615234375 287.857421875 82.7900390625 255.724609375 83.1650390625 226.500976562 c 4
 83.2451171875 195.194335938 92.876953125 165.157226562 112.059570312 136.389648438 c 4
 134.747070312 102.3515625 163.754882812 85.447265625 199.08203125 85.6748046875 c 4
EndSplineSet
Refer: 564 57346 S 1 0 0 1 268.971 59.392 2
Refer: 564 57346 S 1 0 0 1 0 185.003 2
Refer: 564 57346 S 1 0 0 1 171.349 1.36533 2
Refer: 564 57346 S 1 0 0 1 143.793 0.987334 2
Refer: 564 57346 S 1 0 0 1 315.392 185.003 2
Refer: 564 57346 S 1 0 0 1 18.432 275.115 2
Refer: 564 57346 S 1 0 0 1 293.547 95.5733 2
Refer: 564 57346 S 1 0 0 1 44.3733 318.805 2
Refer: 564 57346 S 1 0 0 1 170.667 376.832 2
Refer: 564 57346 S 1 0 0 1 146.773 376.832 2
EndChar

StartChar: luCJ
Encoding: 58087 58087 439
Width: 309
VWidth: 0
GlyphClass: 2
Flags: W
LayerCount: 3
Fore
SplineSet
5 139 m 4,0,1
 46 198 46 198 151 197 c 4,2,3
 310 197 310 197 310 27 c 4,4,5
 309 -120 309 -120 183 -120 c 4,6,7
 65 -120 65 -120 65 -22 c 4,8,9
 65 82 65 82 144 82 c 5,10,11
 148 82 148 82 152 82 c 5,12,-1
 152 0 l 5,13,14
 143 0 143 0 143 -22 c 4,15,16
 143 -40 143 -40 183 -40 c 4,17,18
 232 -40 232 -40 233 27 c 4,19,20
 233 121 233 121 152 121 c 4,21,22
 93 121 93 121 78 94 c 4,23,-1
 5 139 l 4,0,1
EndSplineSet
Refer: 564 57346 S 1 0 0 1 0 74 2
Refer: 564 57346 S 1 0 0 1 111 0 2
EndChar

StartChar: gzi
Encoding: 983216 983216 440
Width: 490
VWidth: 0
GlyphClass: 2
Flags: W
LayerCount: 3
Fore
SplineSet
-123 737 m 1,0,-1
 0 737 l 1,1,-1
 399 -55 l 1,2,-1
 501 107 l 1,3,-1
 595 46 l 1,4,-1
 366 -306 l 1,5,-1
 -123 737 l 1,0,-1
EndSplineSet
EndChar

StartChar: drz
Encoding: 983218 983218 442
Width: 342
VWidth: 2095
GlyphClass: 3
Flags: W
LayerCount: 3
Fore
SplineSet
-121 742 m 1,0,1
 -78 736 -78 736 0 737 c 1,2,3
 31 677 31 677 221 325 c 0,4,5
 396 0 396 0 457 -156 c 0,6,7
 549 -396 549 -396 477 -474 c 0,8,9
 437 -518 437 -518 343 -517 c 0,10,11
 253 -517 253 -517 185 -459 c 128,-1,12
 117 -401 117 -401 96 -319 c 0,13,14
 80 -259 80 -259 80 -188 c 0,15,16
 80 -168 80 -168 84.5 -145 c 128,-1,17
 89 -122 89 -122 96.5 -100 c 128,-1,18
 104 -78 104 -78 114 -55.5 c 128,-1,19
 124 -33 124 -33 134.5 -13 c 128,-1,20
 145 7 145 7 156 25.5 c 128,-1,21
 167 44 167 44 176.5 58.5 c 128,-1,22
 186 73 186 73 193.5 84 c 128,-1,23
 201 95 201 95 205 100 c 2,24,-1
 209 106 l 1,25,-1
 -121 742 l 1,0,1
277 0 m 1,26,27
 192 -105 192 -105 192 -189 c 0,28,29
 192 -220 192 -220 233 -339 c 0,30,31
 237 -351 237 -351 245 -363 c 128,-1,32
 253 -375 253 -375 266 -388 c 128,-1,33
 279 -401 279 -401 294.5 -408 c 128,-1,34
 310 -415 310 -415 333 -413 c 128,-1,35
 356 -411 356 -411 381 -397 c 0,36,37
 399 -385 399 -385 399 -351 c 128,-1,38
 399 -317 399 -317 387.5 -275 c 128,-1,39
 376 -233 376 -233 358 -184 c 128,-1,40
 340 -135 340 -135 322 -97 c 128,-1,41
 304 -59 304 -59 290.5 -30 c 128,-1,42
 277 -1 277 -1 277 0 c 1,26,27
EndSplineSet
LCarets2: 2 0 0
EndChar

StartChar: brz
Encoding: 983220 983220 444
Width: 492
VWidth: 2095
GlyphClass: 2
Flags: W
LayerCount: 3
Fore
SplineSet
169 728 m 1,0,-1
 237 795 l 1,1,2
 260 827 260 827 270 859 c 0,3,4
 273 871 273 871 270 904 c 128,-1,5
 267 937 267 937 249 992 c 128,-1,6
 231 1047 231 1047 198 1092 c 0,7,8
 180 1117 180 1117 166.5 1122 c 128,-1,9
 153 1127 153 1127 107 1127 c 1,10,11
 47 1123 47 1123 47 1075 c 0,12,13
 47 1072 47 1072 47.5 1061.5 c 128,-1,14
 48 1051 48 1051 48 1049 c 2,15,-1
 61 1003 l 2,16,17
 66 984 66 984 82 928 c 0,18,19
 102 854 102 854 169 728 c 1,0,-1
206 593 m 1,20,-1
 360 131 l 2,21,22
 381 74 381 74 392 57 c 128,-1,23
 403 40 403 40 417 38 c 0,24,25
 425 38 425 38 429.5 36.5 c 128,-1,26
 434 35 434 35 440 38.5 c 128,-1,27
 446 42 446 42 450 43.5 c 128,-1,28
 454 45 454 45 459 50.5 c 128,-1,29
 464 56 464 56 467 59.5 c 128,-1,30
 470 63 470 63 474.5 69.5 c 128,-1,31
 479 76 479 76 481.5 80 c 128,-1,32
 484 84 484 84 488.5 91 c 128,-1,33
 493 98 493 98 496 102 c 1,34,-1
 587 46 l 1,35,36
 541 -4 541 -4 506.5 -23 c 128,-1,37
 472 -42 472 -42 413 -42 c 0,38,39
 365 -42 365 -42 342 -22.5 c 128,-1,40
 319 -3 319 -3 283 54 c 1,41,-1
 240 155 l 1,42,-1
 -73 1057 l 1,43,-1
 -73 1057 l 1,44,45
 -81 1098 -81 1098 -81 1122 c 0,46,47
 -81 1141 -81 1141 -77 1159 c 0,48,49
 -60 1250 -60 1250 74 1251 c 0,50,51
 170 1251 170 1251 223 1224 c 128,-1,52
 276 1197 276 1197 314 1127 c 0,53,54
 318 1119 318 1119 329.5 1102 c 128,-1,55
 341 1085 341 1085 345 1074.5 c 128,-1,56
 349 1064 349 1064 357 1028 c 128,-1,57
 365 992 365 992 372 933 c 0,58,59
 382 859 382 859 363.5 795.5 c 128,-1,60
 345 732 345 732 311 698 c 0,61,62
 301 688 301 688 277 661 c 128,-1,63
 253 634 253 634 240 623 c 2,64,-1
 206 593 l 1,20,-1
EndSplineSet
EndChar

